<svg width="46" height="46" viewBox="0 0 46 46" fill="none" xmlns="http://www.w3.org/2000/svg">
<circle cx="22.3979" cy="22.3979" r="22.3979" transform="matrix(-1 0 0 1 45.6152 0.803223)" fill="#1A75BB"/>
<path d="M15.3608 11.3314C13.6089 11.7107 12.0015 13.1826 11.4597 14.9074L11.252 15.5666V23.1973V30.8279L11.4597 31.4871C12.0105 33.23 13.6179 34.6929 15.4059 35.0722C16.3451 35.2709 30.0893 35.2709 31.0284 35.0722C32.8164 34.6929 34.4238 33.23 34.9747 31.4871L35.1824 30.8279V23.1973V15.5666L34.9747 14.9074C34.4238 13.1646 32.8164 11.7017 31.0284 11.3224C30.1163 11.1327 16.2548 11.1327 15.3608 11.3314ZM31.9676 13.6974C32.9428 14.1489 33.1415 15.5757 32.3378 16.3433C31.5161 17.1289 30.3421 16.9663 29.7461 15.9911C29.5023 15.6028 29.4662 14.8352 29.6648 14.4559C30.1163 13.589 31.0736 13.2729 31.9676 13.6974ZM24.3821 15.4763C24.6891 15.5125 25.2941 15.6479 25.7186 15.7924C30.902 17.5533 32.7261 23.9649 29.2314 28.182C27.931 29.7443 26.0527 30.7557 24.066 30.9634C19.0813 31.4781 14.9363 27.3332 15.4511 22.3484C15.8303 18.7092 18.7562 15.7924 22.4044 15.4312C23.0727 15.368 23.2262 15.368 24.3821 15.4763Z" fill="white"/>
<path d="M22.3503 18.8992C21.4653 19.0978 20.7971 19.4771 20.1469 20.1273C19.4516 20.8226 19.0994 21.4909 18.9007 22.4933C18.7743 23.1254 18.7743 23.2699 18.9007 23.902C19.0994 24.9044 19.4516 25.5726 20.1469 26.277C20.8332 26.9633 21.4744 27.3064 22.5129 27.5141C23.1631 27.6496 23.2714 27.6496 23.9577 27.5141C24.9782 27.2974 25.5922 26.9723 26.2966 26.277C26.9919 25.5726 27.317 24.9585 27.5337 23.9381C27.6782 23.2428 27.6782 23.1525 27.5337 22.4571C27.3351 21.527 27.028 20.8859 26.4501 20.2628C25.4116 19.1159 23.7771 18.5741 22.3503 18.8992Z" fill="white"/>
</svg>
