<svg width="46" height="46" viewBox="0 0 46 46" fill="none" xmlns="http://www.w3.org/2000/svg">
<circle cx="22.3979" cy="22.3979" r="22.3979" transform="matrix(-1 0 0 1 45.3418 0.803223)" fill="#1A75BB"/>
<path d="M24.0985 20.3591V21.9985C24.2126 21.8463 24.3084 21.7125 24.412 21.584C24.8265 21.0561 25.3674 20.6411 25.9847 20.3775C26.602 20.1139 27.2758 20.0101 27.9438 20.0758C28.6576 20.1001 29.3543 20.301 29.9714 20.6607C30.4576 20.9573 30.8787 21.3494 31.2091 21.8133C31.5396 22.2772 31.7726 22.8033 31.894 23.3598C32.0473 23.9726 32.1235 24.6022 32.1209 25.2339C32.1209 27.4844 32.1209 29.7354 32.1209 31.9867C32.1209 32.0235 32.1209 32.0615 32.1209 32.1048H28.2218V31.9867C28.2218 29.8884 28.2218 27.79 28.2218 25.6916C28.2301 25.2265 28.1532 24.7638 27.995 24.3263C27.8804 23.9908 27.6641 23.6993 27.3762 23.4925C27.0882 23.2856 26.7429 23.1737 26.3884 23.1722C26.0938 23.1606 25.7998 23.2084 25.5241 23.3129C25.2483 23.4174 24.9965 23.5763 24.7835 23.7802C24.5705 23.9841 24.4008 24.2288 24.2845 24.4998C24.1681 24.7707 24.1076 25.0623 24.1064 25.3572C24.1169 26.2096 24.1064 27.0621 24.1064 27.912C24.1064 29.2698 24.1064 30.6272 24.1064 31.9841V32.1074H20.1995V20.3591H24.0985Z" fill="white"/>
<path d="M13.8298 20.3564H17.7302V32.1048H13.8298V20.3564Z" fill="white"/>
<path d="M15.7771 18.3155C16.8875 18.3155 17.7876 17.4153 17.7876 16.3049C17.7876 15.1946 16.8875 14.2944 15.7771 14.2944C14.6667 14.2944 13.7666 15.1946 13.7666 16.3049C13.7666 17.4153 14.6667 18.3155 15.7771 18.3155Z" fill="white"/>
</svg>
