<svg width="46" height="46" viewBox="0 0 46 46" fill="none" xmlns="http://www.w3.org/2000/svg">
<circle cx="22.3979" cy="22.3979" r="22.3979" transform="matrix(-1 0 0 1 45.0688 0.803223)" fill="#1A75BB"/>
<path fill-rule="evenodd" clip-rule="evenodd" d="M31.3438 16.2109C30.602 16.6395 29.7933 16.9401 28.9516 17.1001C28.5943 16.7316 28.166 16.4393 27.6927 16.2407C27.2194 16.0421 26.7108 15.9414 26.1975 15.9446C25.2133 15.932 24.2644 16.3106 23.5591 16.9972C22.8539 17.6837 22.45 18.6222 22.4361 19.6063C22.4374 19.8892 22.4722 20.171 22.5397 20.4457C21.0502 20.3783 19.5908 20.0031 18.2534 19.3438C16.916 18.6844 15.7297 17.7553 14.7692 16.6148C14.436 17.1694 14.2597 17.804 14.259 18.4509C14.2602 19.0595 14.4143 19.658 14.7071 20.1915C15 20.725 15.4223 21.1763 15.9351 21.504C15.3388 21.4866 14.755 21.3299 14.2302 21.0463C14.2302 21.0608 14.2302 21.0765 14.2302 21.0922C14.2388 21.9478 14.5444 22.7737 15.0946 23.4289C15.6448 24.0841 16.4054 24.5279 17.2466 24.6844C16.9228 24.7711 16.589 24.8151 16.2538 24.8155C16.0161 24.816 15.779 24.7936 15.5456 24.7487C15.797 25.4846 16.2704 26.1244 16.9006 26.5801C17.5307 27.0357 18.2867 27.2848 19.0643 27.293C17.7203 28.3175 16.0762 28.8707 14.3862 28.8667C14.0868 28.8643 13.7877 28.8446 13.4905 28.8077C15.2215 29.887 17.2211 30.4578 19.261 30.4549C20.652 30.4849 22.035 30.2379 23.3296 29.7283C24.6242 29.2187 25.8046 28.4568 26.8019 27.4867C27.7993 26.5167 28.5937 25.358 29.1391 24.0781C29.6845 22.7981 29.9698 21.4225 29.9785 20.0312C29.9785 19.8725 29.9785 19.7152 29.968 19.5578C30.7039 19.0425 31.3417 18.3999 31.8513 17.6601C31.1624 17.9583 30.4332 18.1531 29.6874 18.2384C30.469 17.788 31.0583 17.0666 31.3438 16.2109V16.2109Z" fill="white"/>
</svg>
