<svg width="56" height="57" viewBox="0 0 56 57" fill="none" xmlns="http://www.w3.org/2000/svg">
<mask id="mask0_1127_1123" style="mask-type:alpha" maskUnits="userSpaceOnUse" x="0" y="0" width="56" height="57">
<ellipse cx="28" cy="28.2324" rx="28" ry="28.2324" fill="url(#paint0_linear_1127_1123)"/>
</mask>
<g mask="url(#mask0_1127_1123)">
<path d="M17.0625 46.7595L12.6875 32.2021L42 32.6433L37.625 46.7595L36.3125 44.5538L34.125 49.8474L21.875 49.4063L17.5 43.2304L17.0625 46.7595Z" fill="#4F4F4F"/>
<path d="M30.0821 54.2227L31.5791 62.1471" stroke="white" stroke-linecap="round"/>
<path fill-rule="evenodd" clip-rule="evenodd" d="M24.2725 46.928C22.6884 46.541 19.3619 46.3088 18.7283 48.476C18.0947 50.6432 18.9923 51.701 19.5203 51.959C16.4842 54.152 10.808 60.2407 12.392 67.0519H27.8366H27.8367H43.2813C44.8653 60.2407 39.1891 54.152 36.153 51.959C36.681 51.701 37.5786 50.6432 36.945 48.476C36.3114 46.3088 32.9849 46.541 31.4008 46.928L27.8367 48.476H27.8366L24.2725 46.928Z" fill="#333333"/>
<path d="M25.5911 54.5996L24.0941 62.524" stroke="white" stroke-linecap="round"/>
<path d="M18.5515 22.7148C19.5486 23.0467 22.274 23.9536 25.1988 24.9269" stroke="#4F4F4F" stroke-linecap="round"/>
<rect x="22.5972" y="36.8643" width="10.4789" height="15.8488" rx="5.23946" fill="#F5B1B1"/>
<path d="M38.3154 27.8072C38.3154 31.1417 38.9967 34.2222 41.6836 34.2222C44.3706 34.2222 46.9231 30.387 46.9231 27.0525C46.9231 23.718 45.8676 21.7695 43.1806 21.7695C40.4936 21.7695 38.3154 24.4727 38.3154 27.8072Z" fill="#F5B1B1"/>
<path d="M17.3577 27.8082C17.3577 31.1427 16.6764 34.2232 13.9895 34.2232C11.3025 34.2232 8.75 30.388 8.75 27.0535C8.75 23.719 9.80549 21.7705 12.4925 21.7705C15.1795 21.7705 17.3577 24.4737 17.3577 27.8082Z" fill="#F5B1B1"/>
<rect x="12.8667" y="8.93945" width="29.9398" height="36.9806" rx="14.9699" fill="#FFD9CB"/>
<rect x="27.088" y="33.0898" width="2.99398" height="5.28295" rx="1.49699" fill="#F5B1B1"/>
<circle cx="21.4767" cy="28.5625" r="2" fill="#4F4F4F"/>
<circle cx="36.4767" cy="28.5625" r="2" fill="#6A3851"/>
<path d="M30.0823 21.3931C31.205 20.3868 34.2738 18.978 37.5672 21.3931" stroke="#6A3851" stroke-linecap="round"/>
<path d="M30.2011 27.6565C28.7455 21.1449 21.7106 13.7715 18.375 10.8987C21.5589 6.58954 30.2011 0.077939 39.298 8.50472C48.395 16.9315 45.5143 30.2101 42.9368 35.796C43.0884 31.4868 43.3007 24.0176 42.9368 28.6141C42.5729 33.2105 39.4496 38.5091 37.9335 40.5839L34.2947 31.4868V35.796L30.2011 23.8261V27.6565Z" fill="#4F4F4F"/>
<path d="M13.7481 32.8523C13.0363 23.5121 18.4938 14.9503 21.3116 11.8369L28.875 5.29878C9.2991 4.92517 10.0406 26.3142 12.8584 37.0554V25.3802L13.7481 32.8523Z" fill="#4F4F4F"/>
</g>
<defs>
<linearGradient id="paint0_linear_1127_1123" x1="28" y1="0" x2="28" y2="56.4648" gradientUnits="userSpaceOnUse">
<stop stop-color="#FFC1C2"/>
<stop offset="1" stop-color="#E97C7C"/>
</linearGradient>
</defs>
</svg>
