<svg width="57" height="57" viewBox="0 0 57 57" fill="none" xmlns="http://www.w3.org/2000/svg">
<mask id="mask0_1127_1078" style="mask-type:alpha" maskUnits="userSpaceOnUse" x="0" y="0" width="57" height="57">
<ellipse cx="28.7939" cy="28.4824" rx="28.2061" ry="28.4824" fill="url(#paint0_linear_1127_1078)"/>
</mask>
<g mask="url(#mask0_1127_1078)">
<path d="M30.8913 54.7021L32.3993 62.6967" stroke="white" stroke-linecap="round"/>
<path fill-rule="evenodd" clip-rule="evenodd" d="M25.0388 47.3443C23.4431 46.9539 20.0921 46.7197 19.4538 48.906C18.8155 51.0924 19.7198 52.1596 20.2517 52.4198C17.1932 54.6322 11.4752 60.7749 13.0709 67.6464H28.6292V48.906L25.0388 47.3443ZM32.2198 47.3443C33.8155 46.9539 37.1666 46.7197 37.8048 48.906C38.4431 51.0924 37.5389 52.1596 37.007 52.4198C40.0655 54.6322 45.7834 60.7749 44.1877 67.6464H28.6294V48.906L32.2198 47.3443Z" fill="#333333"/>
<path d="M26.3673 55.083L24.8593 63.0776" stroke="white" stroke-linecap="round"/>
<rect x="23.3511" y="37.1904" width="10.5561" height="15.9892" rx="5.27803" fill="#F5B1B1"/>
<path d="M39.1854 28.054C39.1854 31.418 39.8717 34.5258 42.5784 34.5258C45.2852 34.5258 47.8564 30.6567 47.8564 27.2926C47.8564 23.9286 46.7932 21.9629 44.0864 21.9629C41.3797 21.9629 39.1854 24.69 39.1854 28.054Z" fill="#F5B1B1"/>
<path d="M18.0733 28.055C18.0733 31.419 17.387 34.5268 14.6802 34.5268C11.9735 34.5268 9.40222 30.6576 9.40222 27.2936C9.40222 23.9296 10.4655 21.9639 13.1722 21.9639C15.879 21.9639 18.0733 24.691 18.0733 28.055Z" fill="#F5B1B1"/>
<rect x="13.5493" y="9.01953" width="30.1602" height="37.3081" rx="15.0801" fill="#FFD9CB"/>
<rect x="27.8752" y="33.3828" width="3.01602" height="5.32973" rx="1.50801" fill="#F5B1B1"/>
<circle cx="22.2079" cy="28.8145" r="2" fill="#4F4F4F"/>
<circle cx="37.2079" cy="28.8145" r="2" fill="#4F4F4F"/>
<path d="M30.5568 24.0322C31.7467 24.0322 34.9992 24.0322 38.4897 24.0322" stroke="#4F4F4F" stroke-linecap="round"/>
<path d="M18.2167 21.3613C19.4066 21.3613 22.6591 21.3613 26.1496 21.3613" stroke="#4F4F4F" stroke-linecap="round"/>
<path fill-rule="evenodd" clip-rule="evenodd" d="M36.2316 6.49349C36.3907 6.47842 36.5519 6.4707 36.715 6.4707C39.056 6.4707 41.0294 8.06043 41.6342 10.2292C41.6972 10.2248 41.7608 10.2227 41.825 10.2227C43.3643 10.2227 44.6122 11.4828 44.6122 13.0372C44.6122 13.4771 44.5123 13.8934 44.3341 14.2643C45.0536 14.6628 45.5413 15.4349 45.5413 16.322C45.5413 17.6174 44.5014 18.6675 43.2186 18.6675C42.6267 18.6675 42.0864 18.4439 41.6763 18.0758C41.2042 18.4465 40.611 18.6672 39.9667 18.6672C38.7396 18.6672 37.6978 17.8665 37.3255 16.7543C37.1253 16.7784 36.9216 16.7908 36.715 16.7908C36.1832 16.7908 35.6705 16.7088 35.1884 16.5566C34.6622 18.8408 32.6336 20.5427 30.2113 20.5427C27.7417 20.5427 25.6813 18.7737 25.205 16.422C24.7569 16.6571 24.2477 16.79 23.7079 16.79C23.4537 16.79 23.2064 16.7605 22.969 16.7048C22.4654 17.8602 21.3216 18.6669 19.9913 18.6669C18.9428 18.6669 18.0103 18.1659 17.4156 17.3879C17.0312 18.1475 16.2488 18.6675 15.346 18.6675C14.0632 18.6675 13.0233 17.6174 13.0233 16.322C13.0233 15.9182 13.1244 15.5383 13.3023 15.2065C13.1236 14.8352 13.0233 14.4183 13.0233 13.9776C13.0233 13.8731 13.029 13.77 13.04 13.6684C11.9324 13.1449 11.1652 12.0093 11.1652 10.6928C11.1652 8.87932 12.621 7.40918 14.417 7.40918C15.3268 7.40918 16.1494 7.78651 16.7396 8.39467C17.1034 8.01983 17.5554 7.73268 18.0618 7.56752C17.8112 7.10203 17.6688 6.56852 17.6688 6.00143C17.6688 4.18792 19.1247 2.71777 20.9206 2.71777C22.3162 2.71777 23.5064 3.60546 23.9677 4.85217C24.4705 4.68511 25.0078 4.59473 25.566 4.59473C25.8996 4.59473 26.2257 4.627 26.5414 4.68863C27.3696 2.96703 29.1178 1.78027 31.1405 1.78027C33.8136 1.78027 36.0073 3.85289 36.2316 6.49349Z" fill="#4F4F4F"/>
</g>
<defs>
<linearGradient id="paint0_linear_1127_1078" x1="28.7939" y1="0" x2="28.7939" y2="56.9648" gradientUnits="userSpaceOnUse">
<stop stop-color="#FFC1C2"/>
<stop offset="1" stop-color="#E97C7C"/>
</linearGradient>
</defs>
</svg>
