<svg width="36" height="36" viewBox="0 0 36 36" fill="none" xmlns="http://www.w3.org/2000/svg">
<path fill-rule="evenodd" clip-rule="evenodd" d="M31.6799 28.08C31.6799 30.8635 29.4235 33.12 26.6399 33.12H9.35995C6.57643 33.12 4.31995 30.8635 4.31995 28.08V5.04C4.31995 3.84707 5.28701 2.88 6.47995 2.88H23.0855C23.7265 2.88 24.3345 3.16474 24.7448 3.65721L31.1793 11.3786C31.5028 11.7667 31.6799 12.2561 31.6799 12.7614V28.08ZM29.4227 11.52L24.4799 5.58868V10.8C24.4799 11.1976 24.8023 11.52 25.1999 11.52H29.4227ZM5.75995 5.04C5.75995 4.64236 6.0823 4.32 6.47995 4.32H22.3199C22.7176 4.32 23.0399 4.64236 23.0399 5.04V10.8C23.0399 11.9929 24.007 12.96 25.1999 12.96H29.5199C29.9176 12.96 30.2399 13.2824 30.2399 13.68V28.08C30.2399 30.0682 28.6282 31.68 26.6399 31.68H9.35995C7.37172 31.68 5.75995 30.0682 5.75995 28.08V5.04Z" fill="#1565D8"/>
<path fill-rule="evenodd" clip-rule="evenodd" d="M11.52 16.56C11.52 16.9577 11.8424 17.28 12.24 17.28H16.56C16.9577 17.28 17.28 16.9577 17.28 16.56C17.28 16.1624 16.9577 15.84 16.56 15.84H12.24C11.8424 15.84 11.52 16.1624 11.52 16.56ZM12.24 21.6C11.8424 21.6 11.52 21.2777 11.52 20.88C11.52 20.4824 11.8424 20.16 12.24 20.16H23.76C24.1577 20.16 24.48 20.4824 24.48 20.88C24.48 21.2777 24.1577 21.6 23.76 21.6H12.24ZM12.24 25.92C11.8424 25.92 11.52 25.5977 11.52 25.2C11.52 24.8024 11.8424 24.48 12.24 24.48H20.88C21.2777 24.48 21.6 24.8024 21.6 25.2C21.6 25.5977 21.2777 25.92 20.88 25.92H12.24Z" fill="#36B37E"/>
</svg>
