<svg width="66" height="66" viewBox="0 0 66 66" fill="none" xmlns="http://www.w3.org/2000/svg">
<g opacity="0.2">
<rect opacity="0.4" x="1" y="1" width="64" height="64" rx="16" fill="#1565D8" stroke="#1565D8"/>
</g>
<path fill-rule="evenodd" clip-rule="evenodd" d="M46.6936 22.2178L33.2536 17.3645C33.0897 17.3053 32.9103 17.3053 32.7464 17.3645L19.3064 22.2178C19.0105 22.3246 18.8134 22.6055 18.8134 22.9201V33.0001C18.8134 40.9156 23.5407 46.1682 32.8065 48.6546C32.9349 48.689 33.0703 48.6886 33.1984 48.6532C42.4612 46.0998 47.1867 40.8493 47.1867 33.0001V22.9201C47.1867 22.6055 46.9895 22.3246 46.6936 22.2178ZM27.8453 31.694C28.1441 31.4098 28.6167 31.4215 28.9009 31.7202L31.9215 34.8945L38.2644 28.014C38.5439 27.7108 39.0163 27.6916 39.3194 27.9711C39.6226 28.2506 39.6418 28.723 39.3623 29.0262L32.4791 36.4929C32.1865 36.8102 31.6867 36.8141 31.3892 36.5015L27.8191 32.7496C27.5348 32.4509 27.5466 31.9783 27.8453 31.694Z" fill="#1565D8"/>
</svg>
