<svg width="66" height="66" viewBox="0 0 66 66" fill="none" xmlns="http://www.w3.org/2000/svg">
<g opacity="0.2">
<rect opacity="0.4" x="0.841248" y="1" width="64" height="64" rx="16" fill="#1565D8" stroke="#1565D8"/>
</g>
<path fill-rule="evenodd" clip-rule="evenodd" d="M25.2165 42.9809C24.7135 41.6182 24.3139 40.1101 24.0352 38.4947C22.712 37.4089 21.5422 36.2647 20.5508 35.099C19.2739 37.332 18.9121 39.4092 19.7348 40.8794C20.5729 42.3774 22.5888 43.0731 25.2165 42.9809ZM26.2547 45.3154C22.253 45.6689 19.0157 44.6042 17.5728 42.0254C16.187 39.5487 16.8336 36.2761 18.9741 33.0003C16.8336 29.7245 16.187 26.452 17.5728 23.9753C19.0157 21.3965 22.253 20.3317 26.2547 20.6853C27.9092 17.5797 30.2153 15.667 32.8412 15.667C35.4671 15.667 37.7732 17.5797 39.4277 20.6853C43.4294 20.3318 46.6667 21.3965 48.1096 23.9753C49.4953 26.452 48.8488 29.7245 46.7083 33.0003C48.8488 36.2761 49.4953 39.5487 48.1096 42.0254C46.6667 44.6042 43.4294 45.6689 39.4277 45.3154C37.7732 48.421 35.4671 50.3337 32.8412 50.3337C30.2153 50.3337 27.9092 48.421 26.2547 45.3154ZM45.1316 30.9017C46.4085 28.6686 46.7703 26.5914 45.9476 25.1211C45.1095 23.6232 43.0936 22.9275 40.4659 23.0197C40.9689 24.3824 41.3686 25.8906 41.6472 27.506C42.9704 28.5917 44.1402 29.7359 45.1316 30.9017ZM36.8768 21.0812C35.7232 19.2027 34.3135 18.0855 32.8412 18.0855C31.3689 18.0855 29.9591 19.2027 28.8056 21.0812C30.109 21.3654 31.464 21.7798 32.8412 22.3217C34.2184 21.7798 35.5733 21.3654 36.8768 21.0812ZM36.0157 23.7816C36.6881 23.5875 37.3454 23.43 37.9819 23.3092C38.2363 23.9419 38.4675 24.6203 38.6719 25.3374C38.315 25.1065 37.9507 24.8801 37.5793 24.6588C37.0592 24.3489 36.5375 24.0565 36.0157 23.7816ZM29.6666 23.7816C28.9943 23.5875 28.337 23.43 27.7005 23.3092C27.4461 23.9419 27.2149 24.6203 27.0105 25.3374C27.3674 25.1064 27.7316 24.8801 28.103 24.6588C28.6232 24.3489 29.1449 24.0565 29.6666 23.7816ZM26.2826 28.8178C27.2409 28.0742 28.2799 27.3626 29.3882 26.7023C30.5394 26.0165 31.6985 25.4256 32.8412 24.9301C33.9838 25.4256 35.143 26.0165 36.2941 26.7023C37.4025 27.3626 38.4415 28.0742 39.3998 28.8178C39.5866 30.1464 39.6879 31.5503 39.6879 33.0003C39.6879 34.4502 39.5866 35.8541 39.3997 37.1828C38.4415 37.9264 37.4025 38.6379 36.2941 39.2982C35.143 39.9841 33.9838 40.575 32.8412 41.0705C31.6985 40.575 30.5394 39.9841 29.3882 39.2982C28.2799 38.6379 27.2409 37.9264 26.2827 37.1828C26.0958 35.8541 25.9945 34.4502 25.9945 33.0003C25.9945 31.5503 26.0958 30.1464 26.2826 28.8178ZM24.0352 27.506C24.3139 25.8906 24.7135 24.3824 25.2165 23.0197C22.5888 22.9275 20.5729 23.6232 19.7348 25.1211C18.9121 26.5914 19.2739 28.6686 20.5508 30.9017C21.5422 29.7359 22.712 28.5917 24.0352 27.506ZM21.9864 33.0003C22.475 32.3853 23.0237 31.769 23.6274 31.1603C23.5947 31.7647 23.578 32.3786 23.578 33.0003C23.578 33.6221 23.5947 34.2359 23.6274 34.8403C23.0237 34.2316 22.475 33.6153 21.9864 33.0003ZM32.8412 43.6789C34.2184 44.2208 35.5733 44.6352 36.8767 44.9194C35.7232 46.7979 34.3134 47.915 32.8412 47.915C31.369 47.915 29.9592 46.7979 28.8057 44.9194C30.1091 44.6352 31.464 44.2208 32.8412 43.6789ZM29.6665 42.219C28.9942 42.4131 28.337 42.5706 27.7005 42.6914C27.4462 42.0587 27.215 41.3804 27.0106 40.6633C27.3674 40.8943 27.7317 41.1206 28.103 41.3418C28.6232 41.6517 29.1448 41.9442 29.6665 42.219ZM36.0158 42.219C36.5375 41.9442 37.0592 41.6517 37.5793 41.3418C37.9507 41.1206 38.315 40.8942 38.6718 40.6633C38.4674 41.3804 38.2362 42.0587 37.9819 42.6914C37.3454 42.5706 36.6882 42.4131 36.0158 42.219ZM41.6472 38.4947C41.3686 40.11 40.9689 41.6182 40.4659 42.9809C43.0936 43.073 45.1095 42.3774 45.9476 40.8794C46.7703 39.4092 46.4085 37.332 45.1316 35.099C44.1402 36.2647 42.9704 37.4089 41.6472 38.4947ZM42.055 34.8403C42.6587 34.2316 43.2074 33.6153 43.6959 33.0003C43.2074 32.3853 42.6587 31.769 42.055 31.1603C42.0877 31.7647 42.1044 32.3786 42.1044 33.0003C42.1044 33.622 42.0877 34.2359 42.055 34.8403Z" fill="#1565D8"/>
<path opacity="0.3" fill-rule="evenodd" clip-rule="evenodd" d="M32.9139 37.0889C30.6646 37.0889 28.8412 35.2781 28.8412 33.0444C28.8412 30.8108 30.6646 29 32.9139 29C35.1632 29 36.9866 30.8108 36.9866 33.0444C36.9866 35.2781 35.1632 37.0889 32.9139 37.0889Z" fill="#1565D8"/>
</svg>
