<svg width="66" height="66" viewBox="0 0 66 66" fill="none" xmlns="http://www.w3.org/2000/svg">
<g opacity="0.2">
<rect opacity="0.4" x="0.886749" y="0.966309" width="64" height="64" rx="16" fill="#1565D8" stroke="#1565D8"/>
</g>
<path fill-rule="evenodd" clip-rule="evenodd" d="M34.0657 35.8435C34.9945 33.8256 34.1385 32.163 31.7738 31.1332L27.8562 29.5156C26.587 28.9916 25.1328 29.2076 24.0703 30.0778L20.4675 33.0289L20.3627 34.0796L20.1939 42.6734V44.1667H24.553L33.4431 46.6927C34.5645 47.0114 35.7704 46.7871 36.7026 46.0864C42.5603 41.6835 46.4741 38.7105 47.0668 38.1593C48.5037 36.8233 49.0694 35.3378 48.0456 33.8735C47.218 32.6899 45.8224 32.5636 44.0926 33.3468L35.6794 37.6256L33.3138 36.8733C33.6188 36.6103 33.8703 36.2679 34.0657 35.8435Z" fill="#1A75BB"/>
<path opacity="0.3" fill-rule="evenodd" clip-rule="evenodd" d="M42.1495 20.2748H40.3529V19.9006C40.3529 19.2817 39.8516 18.7798 39.2329 18.7798C38.6143 18.7798 38.1129 19.2817 38.1129 19.9006V20.2748H37.7604C36.317 20.2748 35.1471 21.446 35.1471 22.8905V23.6392C35.1471 25.0837 36.317 26.2549 37.7604 26.2549H40.7262C40.9323 26.2549 41.0996 26.4224 41.0996 26.6291V27.3755C41.0996 27.5822 40.9323 27.7496 40.7262 27.7496H37.2994C37.1336 27.3564 36.7503 27.0785 36.3011 27.0649C35.6828 27.046 35.1664 27.5325 35.1476 28.1511L35.1268 28.8364C35.1076 29.4683 35.6143 29.9912 36.2463 29.9912H38.1129V30.3523C38.1129 30.9712 38.6143 31.4731 39.2329 31.4731C39.8516 31.4731 40.3529 30.9712 40.3529 30.3523V29.9912H40.7262C42.1696 29.9912 43.3396 28.82 43.3396 27.3755V26.6291C43.3396 25.1845 42.1696 24.0133 40.7262 24.0133H37.7604C37.5543 24.0133 37.3871 23.8459 37.3871 23.6392V22.8905C37.3871 22.6838 37.5543 22.5164 37.7604 22.5164H41.1761C41.3708 22.858 41.7376 23.0823 42.1495 23.0823C42.7682 23.0823 43.2695 22.5804 43.2695 21.9615V21.3956C43.2695 20.7767 42.7682 20.2748 42.1495 20.2748ZM19.4468 31.0998H19.8201V45.2865H19.4468C18.8282 45.2865 18.3268 45.7879 18.3268 46.4065C18.3268 47.0251 18.8282 47.5265 19.4468 47.5265H20.9401C21.5586 47.5265 22.0601 47.0251 22.0601 46.4065V29.9798C22.0601 29.3613 21.5586 28.8598 20.9401 28.8598H19.4468C18.8282 28.8598 18.3268 29.3613 18.3268 29.9798C18.3268 30.5984 18.8282 31.0998 19.4468 31.0998Z" fill="#1565D8"/>
</svg>
