<svg width="66" height="66" viewBox="0 0 66 66" fill="none" xmlns="http://www.w3.org/2000/svg">
<g opacity="0.2">
<rect opacity="0.4" x="0.989685" y="0.880859" width="64" height="64" rx="16" fill="#1565D8" stroke="#1565D8"/>
</g>
<path fill-rule="evenodd" clip-rule="evenodd" d="M25.0494 28.8697C27.012 26.0808 28.237 22.8805 28.7285 19.2575C28.7753 18.9124 29.0196 18.6254 29.3549 18.5217C32.7346 17.4757 34.6561 19.1378 34.6243 22.9276C34.6182 23.6633 34.5842 24.3172 34.512 25.3172C34.3505 27.5511 34.3634 28.1606 34.6135 28.5708C34.8539 28.9652 35.6343 29.0998 37.4802 28.7493C38.0627 28.6387 38.647 28.5134 39.2941 28.3628C39.5798 28.2964 41.6376 27.7943 42.1635 27.6807C43.1669 27.464 43.8868 27.3724 44.5199 27.4112C46.2349 27.5164 47.145 28.6206 47.3022 30.7361C47.5791 34.4617 46.7234 41.945 45.8697 44.7014C44.9974 47.518 43.4761 48.5812 39.8243 48.6455C37.4764 48.6867 33.8653 48.6867 28.9742 48.6454C27.7256 48.6163 26.5941 48.3745 25.5876 47.9225C25.8701 47.3375 26.0283 46.6822 26.0283 45.9904V31.6544C26.0283 30.6019 25.6622 29.6343 25.0494 28.8697Z" fill="#1A75BB"/>
<path opacity="0.3" fill-rule="evenodd" clip-rule="evenodd" d="M19.7013 28.9663C18.2037 28.9663 16.9897 30.1698 16.9897 31.6543V45.9903C16.9897 47.4748 18.2037 48.6783 19.7013 48.6783H21.509C23.0065 48.6783 24.2206 47.4748 24.2206 45.9903V31.6543C24.2206 30.1698 23.0065 28.9663 21.509 28.9663H19.7013Z" fill="#1565D8"/>
</svg>
