<svg width="66" height="66" viewBox="0 0 66 66" fill="none" xmlns="http://www.w3.org/2000/svg">
<g opacity="0.2">
<rect opacity="0.4" x="1" y="1" width="64" height="64" rx="16" fill="#1565D8" stroke="#1565D8"/>
</g>
<path fill-rule="evenodd" clip-rule="evenodd" d="M24.1653 27.578C30.7805 28.5116 35.9547 26.1004 39.5579 20.3769C39.576 20.3483 39.5925 20.3188 39.6075 20.2888C40.9941 21.8492 41.8364 23.9041 41.8364 26.1558V29.3913C41.8364 32.6614 40.0433 35.6012 37.2637 37.1326C36.9015 36.881 36.4615 36.7336 35.9871 36.7336C34.75 36.7336 33.7471 37.7364 33.7471 38.9736C33.7471 40.2107 34.75 41.2136 35.9871 41.2136C36.6137 41.2136 37.1801 40.9563 37.5867 40.5417C36.9809 42.4446 35.1567 43.8269 33.0005 43.8269C30.3515 43.8269 28.2038 41.7408 28.2005 39.1662L28.9087 37.2243C26.032 35.7206 24.1653 32.7279 24.1653 29.3913V27.578H24.1653ZM24.1823 25.5948C24.4716 20.9764 28.309 17.3201 33.0003 17.3201C34.9776 17.3201 36.8032 17.9696 38.2754 19.0669C38.2302 19.1134 38.1886 19.1661 38.1516 19.2248C34.9088 24.3759 30.3254 26.4909 24.2691 25.6026C24.24 25.5983 24.211 25.5958 24.1823 25.5948H24.1823ZM26.3561 40.1432C26.8439 43.2849 29.6329 45.6932 33.0004 45.6932C36.3687 45.6932 39.1582 43.284 39.6451 40.1413L43.2256 40.8632C44.6479 41.1407 45.7812 42.2162 46.1327 43.622L47.1652 47.7521C47.283 48.2234 46.9266 48.6799 46.4408 48.6799H19.5608C19.0751 48.6799 18.7186 48.2234 18.8364 47.7521L19.8676 43.6274C20.22 42.2181 21.3578 41.1411 22.7771 40.8681L26.3561 40.1432V40.1432Z" fill="#1565D8"/>
<path opacity="0.3" fill-rule="evenodd" clip-rule="evenodd" d="M35.9862 39.7199C36.3986 39.7199 36.7329 39.3856 36.7329 38.9732C36.7329 38.5609 36.3986 38.2266 35.9862 38.2266C35.5739 38.2266 35.2396 38.5609 35.2396 38.9732C35.2396 39.3856 35.5739 39.7199 35.9862 39.7199Z" fill="#1565D8"/>
<path opacity="0.3" fill-rule="evenodd" clip-rule="evenodd" d="M43.2394 24.7869H43.4533C44.6905 24.7869 45.6933 25.7897 45.6933 27.0269V30.0135C45.6933 31.2507 44.6905 32.2535 43.4533 32.2535H42.9257C43.1898 31.3372 43.3293 30.3754 43.3293 29.3913V26.1558C43.3293 25.6917 43.2987 25.2347 43.2394 24.7869Z" fill="#1565D8"/>
<path opacity="0.3" fill-rule="evenodd" clip-rule="evenodd" d="M23.0757 32.2535H22.5473C21.3102 32.2535 20.3073 31.2507 20.3073 30.0135V27.0269C20.3073 25.7897 21.3102 24.7869 22.5473 24.7869H22.762C22.7027 25.2347 22.6721 25.6917 22.6721 26.1558V29.3913C22.6721 30.3754 22.8116 31.3372 23.0757 32.2535V32.2535Z" fill="#1565D8"/>
</svg>
