<svg width="64" height="64" viewBox="0 0 64 64" fill="none" xmlns="http://www.w3.org/2000/svg">
<g opacity="0.06">
<rect width="64" height="64" rx="16" fill="#1565D8"/>
</g>
<path fill-rule="evenodd" clip-rule="evenodd" d="M32.3005 22.0794H24.4603V19.6984H32.3005L31.1582 18.5561C30.6933 18.0912 30.6933 17.3374 31.1582 16.8725C31.6231 16.4076 32.3769 16.4076 32.8418 16.8725L36.0164 20.0471C36.4813 20.512 36.4813 21.2658 36.0164 21.7307L32.8418 24.9053C32.3769 25.3702 31.6231 25.3702 31.1582 24.9053C30.6933 24.4404 30.6933 23.6866 31.1582 23.2217L32.3005 22.0794ZM45.4439 31.1582L44.3016 32.3005V24.4603H41.9206V32.3005L40.7783 31.1582C40.3134 30.6933 39.5596 30.6933 39.0947 31.1582C38.6298 31.6231 38.6298 32.3769 39.0947 32.8418L42.2693 36.0164C42.5018 36.2488 42.8064 36.3651 43.1111 36.3651C43.4158 36.3651 43.7204 36.2488 43.9529 36.0164L47.1275 32.8418C47.5924 32.3769 47.5924 31.6231 47.1275 31.1582C46.6626 30.6933 45.9088 30.6933 45.4439 31.1582ZM32.8418 45.4439L31.6995 44.3016H39.5397V41.9206H31.6995L32.8418 40.7783C33.3067 40.3134 33.3067 39.5596 32.8418 39.0947C32.3769 38.6298 31.6231 38.6298 31.1582 39.0947L27.9836 42.2693C27.5187 42.7342 27.5187 43.488 27.9836 43.9529L31.1582 47.1275C31.6231 47.5924 32.3769 47.5924 32.8418 47.1275C33.3067 46.6626 33.3067 45.9088 32.8418 45.4439ZM18.5561 32.8418L19.6984 31.6995V39.5397H22.0794V31.6995L23.2217 32.8418C23.6866 33.3067 24.4404 33.3067 24.9053 32.8418C25.3702 32.3769 25.3702 31.6231 24.9053 31.1582L21.7307 27.9836C21.2658 27.5187 20.512 27.5187 20.0471 27.9836L16.8725 31.1582C16.4076 31.6231 16.4076 32.3769 16.8725 32.8418C17.3374 33.3067 18.0912 33.3067 18.5561 32.8418Z" fill="#B4CCEF"/>
<path fill-rule="evenodd" clip-rule="evenodd" d="M26.4445 24.0635V17.7143C26.4445 16.3994 25.3785 15.3334 24.0635 15.3334H17.7143C16.3994 15.3334 15.3334 16.3994 15.3334 17.7143V24.0635C15.3334 25.3785 16.3994 26.4445 17.7143 26.4445H24.0635C25.3785 26.4445 26.4445 25.3785 26.4445 24.0635ZM24.0635 37.5556H17.7143C16.3994 37.5556 15.3334 38.6216 15.3334 39.9365V46.2858C15.3334 47.6007 16.3994 48.6667 17.7143 48.6667H24.0635C25.3785 48.6667 26.4445 47.6007 26.4445 46.2858V39.9365C26.4445 38.6216 25.3785 37.5556 24.0635 37.5556ZM46.2858 26.4445H39.9365C38.6216 26.4445 37.5556 25.3785 37.5556 24.0635V17.7143C37.5556 16.3994 38.6216 15.3334 39.9365 15.3334H46.2858C47.6007 15.3334 48.6667 16.3994 48.6667 17.7143V24.0635C48.6667 25.3785 47.6007 26.4445 46.2858 26.4445ZM37.5556 39.9365V46.2858C37.5556 47.6007 38.6216 48.6667 39.9365 48.6667H46.2858C47.6007 48.6667 48.6667 47.6007 48.6667 46.2858V39.9365C48.6667 38.6216 47.6007 37.5556 46.2858 37.5556H39.9365C38.6216 37.5556 37.5556 38.6216 37.5556 39.9365Z" fill="#1565D8"/>
</svg>
