<svg width="64" height="64" viewBox="0 0 64 64" fill="none" xmlns="http://www.w3.org/2000/svg">
<g opacity="0.06">
<rect width="64" height="64" rx="16" fill="#1565D8"/>
</g>
<path fill-rule="evenodd" clip-rule="evenodd" d="M17.7143 15.3334H36.7619C38.0769 15.3334 39.1429 16.3994 39.1429 17.7143V36.7619C39.1429 38.0769 38.0769 39.1429 36.7619 39.1429H17.7143C16.3994 39.1429 15.3334 38.0769 15.3334 36.7619V17.7143C15.3334 16.3994 16.3994 15.3334 17.7143 15.3334ZM45.4921 24.8572H46.2858C47.6007 24.8572 48.6667 25.9232 48.6667 27.2381V46.2858C48.6667 47.6007 47.6007 48.6667 46.2858 48.6667H27.2381C25.9232 48.6667 24.8572 47.6007 24.8572 46.2858V45.4921H41.5238C43.7155 45.4921 45.4921 43.7155 45.4921 41.5238V24.8572Z" fill="#1565D8"/>
<path d="M40.7301 20.0952H41.5238C42.8388 20.0952 43.9047 21.1612 43.9047 22.4762V41.5238C43.9047 42.8388 42.8388 43.9047 41.5238 43.9047H22.4762C21.1612 43.9047 20.0952 42.8388 20.0952 41.5238V40.7301H36.7619C38.9535 40.7301 40.7301 38.9535 40.7301 36.7619V20.0952Z" fill="#B4CCEF"/>
</svg>
