<svg width="64" height="64" viewBox="0 0 64 64" fill="none" xmlns="http://www.w3.org/2000/svg">
<g opacity="0.06">
<rect width="64" height="64" rx="16" fill="#1565D8"/>
</g>
<path fill-rule="evenodd" clip-rule="evenodd" d="M24.1808 26.9923C26.3351 23.9407 27.6799 20.439 28.2194 16.4748C28.2708 16.0972 28.5389 15.7832 28.907 15.6696C32.6171 14.5252 34.7263 16.3438 34.6915 20.4906C34.6847 21.2955 34.6475 22.011 34.5681 23.1053C34.3909 25.5495 34.405 26.2165 34.6796 26.6653C34.9435 27.0968 35.8002 27.2441 37.8265 26.8606C38.4659 26.7396 39.1073 26.6024 39.8177 26.4377C40.1313 26.365 42.3901 25.8156 42.9675 25.6913C44.069 25.4543 44.8593 25.354 45.5542 25.3964C47.4368 25.5115 48.4358 26.7197 48.6084 29.0345C48.9124 33.111 47.9731 41.2991 47.036 44.3151C46.0784 47.3971 44.4083 48.5604 40.3996 48.6307C37.8223 48.6759 33.8583 48.6759 28.4891 48.6306C27.1185 48.5988 25.8764 48.3343 24.7715 47.8397C25.0816 47.1996 25.2553 46.4826 25.2553 45.7255V30.0393C25.2553 28.8877 24.8535 27.8289 24.1808 26.9923Z" fill="#1565D8"/>
<path d="M18.31 27.098C16.666 27.098 15.3334 28.4148 15.3334 30.0392V45.7255C15.3334 47.3498 16.666 48.6667 18.31 48.6667H20.2944C21.9383 48.6667 23.271 47.3498 23.271 45.7255V30.0392C23.271 28.4148 21.9383 27.098 20.2944 27.098H18.31Z" fill="#B4CCEF"/>
</svg>
