<svg width="64" height="64" viewBox="0 0 64 64" fill="none" xmlns="http://www.w3.org/2000/svg">
<g opacity="0.06">
<rect width="64" height="64" rx="16" fill="#1565D8"/>
</g>
<path d="M37.5556 39.1429V46.2857C37.5556 47.6007 36.4896 48.6667 35.1746 48.6667H17.7143C16.3994 48.6667 15.3334 47.6007 15.3334 46.2857V28.8254C15.3334 27.5104 16.3994 26.4445 17.7143 26.4445H24.8572V35.1746C24.8572 37.3662 26.6338 39.1429 28.8254 39.1429H37.5556Z" fill="#B4CCEF"/>
<path fill-rule="evenodd" clip-rule="evenodd" d="M28.8254 15.3333H46.2857C47.6007 15.3333 48.6667 16.3993 48.6667 17.7143V35.1746C48.6667 36.4895 47.6007 37.5555 46.2857 37.5555H28.8254C27.5104 37.5555 26.4445 36.4895 26.4445 35.1746V17.7143C26.4445 16.3993 27.5104 15.3333 28.8254 15.3333Z" fill="#1565D8"/>
</svg>
