<svg width="19" height="20" viewBox="0 0 19 20" fill="none" xmlns="http://www.w3.org/2000/svg">
<path d="M8.28919 0.47163C5.17131 0.851055 2.4741 2.75642 1.08426 5.56911C-0.181866 8.1261 -0.181866 11.1945 1.08426 13.7432C1.22035 14.0113 1.32758 14.2546 1.32758 14.2835C1.32758 14.3165 1.03889 15.3929 0.68421 16.6755C0.329531 17.9623 0.0490873 19.0263 0.0614598 19.0387C0.0738324 19.051 1.18324 18.7706 2.52359 18.42L4.96098 17.7808L5.42289 17.9994C6.22298 18.387 7.01482 18.6304 7.92626 18.783C8.4789 18.8737 9.61717 18.9067 10.2152 18.849C12.0216 18.6716 13.8032 17.954 15.1848 16.8364C15.589 16.5064 16.4221 15.6486 16.7273 15.2444C17.6676 13.9866 18.2697 12.5472 18.5089 10.9677C18.5996 10.3779 18.612 9.02105 18.5336 8.45191C18.2614 6.5053 17.4531 4.78139 16.1664 3.40392C14.6817 1.80786 12.8753 0.842806 10.7513 0.512873C10.1657 0.42214 8.88719 0.40152 8.28919 0.47163ZM6.74675 5.47838C6.89109 5.53612 6.99832 5.74645 7.43136 6.79399C7.78192 7.6477 7.80254 7.72606 7.7613 7.8539C7.70768 8.01062 7.55509 8.23745 7.23752 8.60863C7.08905 8.78597 7.01894 8.90557 7.01894 8.9798C7.02307 9.3551 8.19846 10.7326 8.96143 11.2563C9.43983 11.5863 10.2894 11.9987 10.4874 11.9987C10.6152 11.9987 10.6688 11.9657 10.8586 11.7595C10.9823 11.6316 11.205 11.3718 11.3493 11.1821C11.4978 10.9883 11.6545 10.8316 11.7081 10.8192C11.803 10.7944 12.2731 11.0007 13.4114 11.5574C13.8321 11.7636 13.9352 11.8337 13.9641 11.9286C14.0177 12.0771 13.9434 12.5596 13.8238 12.8772C13.6754 13.2648 13.2506 13.6236 12.6196 13.8917C12.3804 13.9907 12.3185 13.9989 11.7824 13.9948C11.2668 13.9948 11.1679 13.9824 10.8544 13.8793C9.79451 13.5288 9.1264 13.2195 8.44178 12.7617C7.386 12.0523 6.59828 11.2522 5.69508 9.97373C4.71353 8.57563 4.5032 7.4951 5.01872 6.45168C5.21668 6.04339 5.53424 5.67634 5.79406 5.54849C5.96315 5.46188 6.06213 5.44126 6.32196 5.44126C6.4993 5.44126 6.68901 5.45776 6.74675 5.47838Z" fill="#101F5D"/>
</svg>
