<svg width="26" height="23" viewBox="0 0 26 23" fill="none" xmlns="http://www.w3.org/2000/svg">
<path d="M23.9301 0.221191H2.53721C2.06266 0.223477 1.60793 0.41179 1.27071 0.745679C0.933478 1.07957 0.74065 1.5324 0.733643 2.00691V2.73905C0.734588 3.21693 0.924967 3.67494 1.26305 4.01269C1.60113 4.35044 2.05933 4.54036 2.53721 4.54083H23.9301C24.408 4.54036 24.8662 4.35044 25.2042 4.01269C25.5423 3.67494 25.7327 3.21693 25.7336 2.73905V2.01048C25.7276 1.53535 25.5351 1.08161 25.1978 0.746953C24.8605 0.412298 24.4052 0.223493 23.9301 0.221191Z" fill="#1B74BA"/>
<path d="M23.9301 9.02393H2.53721C2.06266 9.02621 1.60793 9.21452 1.27071 9.54841C0.933478 9.8823 0.74065 10.3351 0.733643 10.8096V11.5364C0.734115 12.0146 0.924286 12.4731 1.26242 12.8112C1.60055 13.1494 2.05902 13.3395 2.53721 13.34H23.9301C24.4064 13.3395 24.8633 13.1508 25.2011 12.815C25.5389 12.4792 25.7303 12.0235 25.7336 11.5471V10.8186C25.7294 10.3424 25.5378 9.88699 25.2002 9.55109C24.8626 9.21518 24.4063 9.02579 23.9301 9.02393Z" fill="#1B74BA"/>
<path d="M23.9247 17.8403H2.53721C2.06266 17.8426 1.60793 18.0309 1.27071 18.3648C0.933478 18.6987 0.74065 19.1515 0.733643 19.626L0.733643 20.351C0.734115 20.8292 0.924286 21.2877 1.26242 21.6258C1.60055 21.964 2.05902 22.1541 2.53721 22.1546H23.9247C24.4029 22.1556 24.8619 21.9668 25.2011 21.6296C25.5402 21.2925 25.7318 20.8346 25.7336 20.3564V19.6296C25.728 19.1534 25.535 18.6986 25.1964 18.3637C24.8578 18.0288 24.4009 17.8408 23.9247 17.8403Z" fill="#1B74BA"/>
</svg>
