<svg width="138" height="72" viewBox="0 0 138 72" fill="none" xmlns="http://www.w3.org/2000/svg">
<path d="M58.4387 16.4444C58.5465 16.6279 59.1474 18.8295 59.4247 20.0374C59.5171 20.4502 59.7328 21.3217 59.9177 21.9486C60.0871 22.5754 60.5493 24.3031 60.9191 25.7709C61.3042 27.2387 61.7972 29.104 61.9975 29.899C62.2132 30.6941 62.5059 31.8714 62.6599 32.4982C62.814 33.1251 63.1992 34.6082 63.5227 35.7854C63.8462 36.9627 64.2314 38.4458 64.37 39.0727C65.4484 43.5677 66.0493 44.7909 67.7131 45.7541C69.0072 46.5033 69.6389 46.5645 76.4329 46.5645C79.8839 46.5645 82.7032 46.5339 82.7032 46.5033C82.7032 46.4116 83.797 42.1764 84.7214 38.614C85.0603 37.3144 85.4146 35.9689 85.4917 35.6326C85.5687 35.2962 85.6765 34.914 85.7382 34.7916C85.7844 34.6693 85.9538 34.0425 86.0925 33.4156C86.2466 32.7887 86.6163 31.3362 86.9244 30.2048C87.2479 29.0734 87.6023 27.7127 87.7255 27.1928C87.8334 26.6577 88.1261 25.5874 88.3418 24.823C88.5575 24.0432 88.8348 23.0188 88.9426 22.5601C89.4664 20.3891 89.7745 19.1659 90.1597 17.8969C90.3754 17.1477 90.5602 16.475 90.5602 16.4138C90.5602 16.3527 88.3572 16.2915 85.6611 16.2915H80.7466L80.4693 17.5452C80.3306 18.2485 80.115 19.12 80.0071 19.5023C79.8993 19.8845 79.7606 20.4808 79.7144 20.8324C79.6682 21.1841 79.3755 22.499 79.0828 23.7374C78.7746 24.9759 78.4357 26.4436 78.3125 26.9941C78.0043 28.4007 77.1878 31.9325 76.9105 33.1098C76.7873 33.6449 76.5408 34.7458 76.3867 35.5561C76.2172 36.3512 75.9707 37.3755 75.8475 37.8036L75.601 38.614H74.692C74.1374 38.614 73.7369 38.5375 73.6752 38.4305C73.5982 38.3235 73.4596 37.8189 73.3671 37.3144C73.1668 36.397 72.982 35.5867 71.6571 29.899C71.2873 28.2631 70.8405 26.2908 70.6865 25.5416C70.517 24.7771 70.2551 23.6151 70.0856 22.9271C69.7159 21.4746 69.3924 19.961 68.9918 18.0039C68.8223 17.2242 68.6529 16.5208 68.6067 16.4444C68.545 16.3527 66.6193 16.2915 63.4302 16.2915C59.9485 16.2915 58.3771 16.3374 58.4387 16.4444Z" fill="#1A75BB"/>
<path d="M94.0338 31.4356L94.0832 46.5645H98.8558C101.489 46.5645 103.678 46.5492 103.76 46.5492C103.826 46.5492 103.859 39.7527 103.842 31.4508L103.793 16.3675L98.8887 16.3219L94.0009 16.2915L94.0338 31.4356Z" fill="#1A75BB"/>
<path d="M109.517 16.3567C109.455 16.4179 109.408 23.243 109.408 31.5218V46.5645L113.97 46.5338L118.516 46.4879L118.547 35.6229C118.547 29.6395 118.562 24.4672 118.578 24.0999L118.594 23.4572H122.564H126.534V26.9003V30.3435H123.373C121.63 30.3435 120.166 30.3741 120.119 30.42C120.088 30.4659 121.256 32.8837 122.735 35.8066C124.23 38.7447 125.615 41.5145 125.833 41.9736C126.051 42.4327 126.378 43.0907 126.58 43.4427C126.767 43.7793 127.188 44.621 127.53 45.3096L128.122 46.5645H132.777C135.346 46.5645 137.432 46.5185 137.432 46.442C137.432 46.3808 137.339 46.1972 137.214 46.0289C137.012 45.7381 136.218 44.2537 134.349 40.7494C133.882 39.8618 133.446 39.0661 133.384 38.9896C133.322 38.8977 132.699 37.7653 132.014 36.4493C131.049 34.6283 130.784 34.0161 130.94 33.8937C131.033 33.8172 131.531 33.7101 132.014 33.6795C133.618 33.5571 135.128 32.2563 135.564 30.6189C135.673 30.221 135.719 28.2623 135.688 25.0181C135.642 20.2589 135.61 19.9835 135.299 19.3254C134.77 18.2542 133.913 17.3667 132.855 16.8311L131.905 16.3414L120.758 16.2955C114.639 16.2802 109.579 16.3108 109.517 16.3567Z" fill="#1A75BB"/>
<path d="M42.3107 0.0647583C40.7242 0.305911 39.1803 1.4833 38.4862 2.98696C38.1463 3.69623 38.1038 3.97994 38.1038 5.21407C38.1038 6.56169 38.1321 6.67517 38.5854 7.5263C39.5627 9.34203 41.1633 10.2925 43.2031 10.3066C44.1804 10.3066 44.4779 10.2499 45.257 9.86689C46.4185 9.32785 47.3108 8.44835 47.8633 7.27096C48.2457 6.46239 48.3024 6.19287 48.3024 5.14314C48.3024 4.06505 48.2599 3.83808 47.8349 2.98696C46.7867 0.830771 44.6479 -0.289877 42.3107 0.0647583Z" fill="#26A9E1"/>
<path d="M55.4698 1.31323C54.889 3.65383 53.2743 7.12926 51.9145 8.95918C49.9031 11.6828 47.835 13.0588 45.2287 13.4134C44.138 13.5694 44.1238 13.5694 43.9114 14.1085C43.7272 14.605 43.6564 14.6475 43.1748 14.6475C42.679 14.6475 42.6224 14.605 42.3816 14.0376C42.1691 13.4985 42.07 13.4276 41.4325 13.2716C39.8603 12.8885 37.2114 11.4133 35.2709 9.82449C33.2878 8.19316 30.5115 4.98726 29.3075 2.93037C29.1092 2.58992 28.9251 2.30621 28.8967 2.30621C28.8826 2.30621 29.1375 2.98711 29.4917 3.82405C31.673 9.12941 33.1745 14.6475 33.8827 19.9671C34.2227 22.5772 34.2227 28.1379 33.8827 30.4643C32.7637 37.9542 29.5058 43.8553 23.8682 48.6075L23.2308 49.1323L24.0807 49.0472C27.8202 48.6358 32.3671 47.2031 36.0499 45.2739C47.3392 39.3302 53.9258 28.3649 55.5265 12.7751C55.7956 10.2075 55.9514 3.62546 55.7814 1.80972L55.6681 0.533031L55.4698 1.31323ZM43.6989 16.7328C43.6989 16.8037 44.053 19.1869 44.4921 22.0523L45.2995 27.2584L44.393 28.7479C42.9198 31.1736 43.189 31.131 42.0275 29.1025L41.0359 27.3435L41.8008 22.0949C42.2258 19.2011 42.5657 16.8037 42.5657 16.7328C42.5657 16.6761 42.8207 16.6335 43.1323 16.6335C43.4439 16.6335 43.6989 16.6761 43.6989 16.7328Z" fill="#26A9E1"/>
<path d="M21.9372 6.67913C20.4858 6.83182 17.5368 7.59525 16.1626 8.206C13.5224 9.35115 10.6506 11.4888 8.79776 13.6875C8.05665 14.5578 6.80601 16.3442 6.80601 16.5121C6.80601 16.5732 6.68249 16.8023 6.52809 17.016C6.03401 17.7184 5.15393 19.9476 4.72161 21.5508C4.22754 23.4289 4.04226 26.8338 4.32018 29.1851C4.65985 32.2236 5.87961 35.2773 7.87137 38.102C8.62792 39.1861 11.1601 41.7513 12.1637 42.4689C12.5188 42.7132 12.8122 42.9727 12.8276 43.0491C12.8276 43.1102 12.2872 43.8889 11.6387 44.7592C10.9285 45.7211 10.4035 46.5762 10.3572 46.8663C10.28 47.3396 10.2646 47.3549 9.32272 47.4312C8.68968 47.477 8.22649 47.6144 7.93313 47.8282C7.53169 48.1336 3.68714 53.2638 1.69538 56.1801C0.907944 57.3558 0.784424 57.6154 0.784424 58.2414C0.799864 59.753 1.83434 60.7607 3.39378 60.7607C4.75249 60.7607 5.04585 60.547 6.58985 58.3483C6.75969 58.104 7.99489 56.3939 9.32272 54.5617C10.6506 52.7294 11.824 50.9583 11.9166 50.6376C12.0865 50.0727 12.0093 49.4314 11.6696 48.6069C11.577 48.4084 11.6542 48.3015 12.0093 48.1946C12.3335 48.0725 12.8585 47.4923 13.8158 46.2097C14.5569 45.202 15.1899 44.3775 15.2208 44.3775C15.2362 44.3775 15.6377 44.5454 16.1009 44.7439C16.8729 45.0798 18.1081 45.4768 20.0072 45.9959C20.4395 46.1181 21.6747 46.2555 22.7555 46.3166L24.7318 46.4082L25.7354 45.431C26.7081 44.4996 28.422 42.5147 28.422 42.362C28.422 42.3162 27.9588 42.3773 27.3875 42.5147C25.967 42.8201 22.5239 42.8201 21.0725 42.4994C17.7684 41.7665 15.2517 40.4534 12.8585 38.2089C10.913 36.3767 9.33816 33.8574 8.45809 31.1701C7.68609 28.8187 7.70153 24.1159 8.48897 21.673C10.0175 16.9549 13.7849 13.0004 18.386 11.2597C20.3932 10.4963 21.7365 10.2673 24.2532 10.2673C26.8934 10.2673 28.283 10.5268 30.4137 11.3819C31.2166 11.7025 31.5099 11.7636 31.5099 11.6109C31.5099 11.2292 30.2439 7.59525 30.074 7.45783C29.2557 6.83182 24.7627 6.4043 21.9372 6.67913Z" fill="#1776BF"/>
<path d="M19.3865 13.6716C17.9376 14.2222 15.8604 15.4304 15.5811 15.9045C15.232 16.4703 15.3716 17.0821 15.9477 17.495C16.6808 18.0303 17.0474 17.9997 18.2344 17.2656C18.793 16.9291 19.9102 16.3786 20.7306 16.0421C22.2493 15.4151 22.5635 15.1398 22.5635 14.4669C22.5635 13.8857 22.3889 13.6257 21.8478 13.381C21.1495 13.0599 20.9051 13.0905 19.3865 13.6716Z" fill="#1776BF"/>
<path d="M12.0375 19.7433C11.0774 20.2327 9.99512 23.7349 9.99512 26.3654C9.99512 30.2347 11.5312 33.5687 14.4813 36.1992C16.1745 37.6979 17.955 38.7226 20.137 39.4567C21.324 39.839 21.3764 39.839 22.0223 39.3649C22.4412 39.0591 22.5634 38.845 22.5634 38.4014C22.5634 37.7132 22.1444 37.3309 20.94 36.9333C19.0897 36.3368 16.4364 34.471 15.2144 32.8805C14.2893 31.6723 13.4514 29.9288 13.1896 28.6748C12.7182 26.3807 13.1546 22.9856 14.1147 21.808C14.4813 21.3339 14.4289 20.3092 14.01 19.9116C13.6085 19.5445 12.5961 19.4528 12.0375 19.7433Z" fill="#1776BF"/>
<path d="M27.2603 51.8176C26.3666 52.0742 25.9198 52.3735 25.4869 53.0293C24.9842 53.7705 24.8725 54.3835 24.7887 56.5931C24.5932 61.896 25.5986 63.1362 29.9831 62.9794C32.5943 62.8939 33.5019 62.3522 34.0186 60.5988C34.1443 60.1711 34.242 59.5154 34.242 59.1305V58.4463H32.6502H31.0723L30.9885 59.1163C30.9466 59.5297 30.821 59.8575 30.6674 59.9716C30.2764 60.2709 28.894 60.2139 28.503 59.886C28.1819 59.6152 28.1679 59.5582 28.1679 57.3058C28.1679 55.0535 28.1819 54.9965 28.503 54.7256C28.7404 54.5261 29.0476 54.4548 29.648 54.4548C30.6115 54.4548 31.0304 54.7542 31.0304 55.4527V55.8803H32.6502H34.2839L34.1862 55.0535C33.9767 53.2288 33.3623 52.2595 32.1894 51.8746C31.3236 51.6038 28.1539 51.5752 27.2603 51.8176Z" fill="#25A9E1"/>
<path d="M38.5288 51.7452C37.3559 52.0445 36.4901 52.8428 36.169 53.912C35.9176 54.753 35.9176 59.8564 36.169 60.6975C36.4203 61.5243 37.1883 62.3653 37.9842 62.679C38.5288 62.8928 39.0594 62.9355 41.0283 62.9355C43.4021 62.9355 43.416 62.9355 44.2399 62.5079C44.952 62.123 45.1056 61.9662 45.4826 61.2249L45.9015 60.3839V57.3047V54.2256L45.4826 53.3845C45.1056 52.6433 44.952 52.4865 44.2399 52.1016C43.43 51.6882 43.3462 51.6739 41.2377 51.6454C40.0369 51.6311 38.822 51.6739 38.5288 51.7452ZM42.4246 54.753C42.662 55.0239 42.6899 55.2947 42.6899 57.3332C42.6899 59.5571 42.676 59.6141 42.3548 59.8849C41.88 60.2698 40.0089 60.2698 39.5342 59.8849C39.213 59.6141 39.199 59.5571 39.199 57.3047C39.199 55.0524 39.213 54.9954 39.5342 54.7245C39.7995 54.5107 40.0787 54.4537 41.0143 54.4537C42.0057 54.4537 42.2012 54.4965 42.4246 54.753Z" fill="#25A9E1"/>
<path d="M63.0765 51.7309C61.8198 52.0445 61.1356 52.9141 60.982 54.3967C60.8284 55.7081 61.1077 56.8201 61.736 57.4615C62.3364 58.0888 62.7972 58.2171 64.9616 58.4594C65.8413 58.5449 66.6791 58.6875 66.8187 58.7588C67.098 58.9013 67.1538 59.999 66.8885 60.2698C66.7908 60.3696 66.3021 60.4409 65.6598 60.4409C64.4589 60.4409 63.9841 60.2128 63.9841 59.6426C63.9841 59.3005 63.9841 59.3005 62.4482 59.3005H60.9122V60.0845C60.9122 61.0253 61.1495 61.6668 61.6941 62.1658C62.4482 62.85 62.8671 62.9355 65.6737 62.9355H68.2709L68.9412 62.5079C69.9605 61.8664 70.2677 61.1679 70.2677 59.4858C70.2677 56.8913 69.6673 56.3639 66.2602 55.9505C65.2967 55.8364 64.431 55.6654 64.3193 55.5798C64.0958 55.3803 64.0679 54.8386 64.2634 54.4394C64.3891 54.2113 64.5706 54.1686 65.4922 54.1686C66.6512 54.1686 66.9165 54.2969 66.9165 54.8386C66.9165 55.1664 66.9444 55.1664 68.4524 55.1664H69.9884V54.5535C69.9884 53.0567 69.2344 52.0588 67.9079 51.7594C67.112 51.5884 63.7468 51.5741 63.0765 51.7309Z" fill="#25A9E1"/>
<path d="M48.0658 57.3052V62.8647H49.6018H51.1378L51.1517 59.1156C51.1517 56.5782 51.1936 55.452 51.2914 55.5946C51.3751 55.7086 52.0873 57.3765 52.8832 59.3009L54.3354 62.7935L56.6533 62.8362L58.9573 62.8647V57.3052V51.7457H57.4213H55.8853L55.8574 55.4805L55.8155 59.2012L54.2516 55.509L52.6877 51.8169L50.3837 51.7742L48.0658 51.7457V57.3052Z" fill="#25A9E1"/>
<path d="M72.1109 55.9796C72.1668 60.0424 72.1807 60.2562 72.4879 60.969C73.1302 62.4515 74.0239 62.8792 76.6071 62.9789C79.6931 63.093 81.0196 62.6511 81.7457 61.2683C82.0529 60.6696 82.0669 60.527 82.1088 56.1935L82.1506 51.7458H80.6147H79.0647V55.1243C79.0508 58.7594 78.953 59.6717 78.562 59.9711C78.4084 60.0851 77.8918 60.1564 77.1657 60.1564C76.2441 60.1564 75.9648 60.0994 75.6995 59.8856L75.3644 59.6147L75.3225 55.6803L75.2806 51.7458H73.6748H72.0551L72.1109 55.9796Z" fill="#25A9E1"/>
<path d="M84.5107 57.3052V62.8647H88.5601H92.6095V61.5105V60.1563H90.1659H87.7223V55.951V51.7457H86.1165H84.5107V57.3052Z" fill="#25A9E1"/>
<path d="M93.4471 53.0999V54.4542H94.9133H96.3795V58.6595V62.8647H97.9853H99.5911V58.6595V54.4542H100.987H102.384V53.0999V51.7457H97.9155H93.4471V53.0999Z" fill="#25A9E1"/>
<path d="M104.925 57.1912C104.059 60.199 103.347 62.6937 103.361 62.7507C103.361 62.822 104.101 62.8647 105.023 62.8647H106.67L106.922 61.9382L107.159 61.0116H108.821H110.469L110.608 61.539C110.678 61.8384 110.79 62.2518 110.846 62.4656L110.929 62.8647H112.647H114.35L112.8 57.3337L111.237 51.8169L108.863 51.7742L106.489 51.7457L104.925 57.1912ZM108.905 58.5597C108.374 58.5882 107.899 58.5739 107.871 58.5312C107.788 58.4599 108.639 54.6252 108.779 54.3829C108.835 54.2974 109.1 55.1954 109.379 56.3786L109.882 58.5169L108.905 58.5597Z" fill="#25A9E1"/>
<path d="M115.928 57.3052V62.8647H117.464H119L119.028 59.1299L119.07 55.3807L120.606 59.0871L122.142 62.7935L124.488 62.8362L126.82 62.8647V57.3052V51.7457H125.284H123.748V55.3807C123.748 57.3765 123.706 59.0158 123.636 59.0158C123.58 59.0158 122.854 57.3765 122.016 55.3807L120.494 51.7457H118.204H115.928V57.3052Z" fill="#25A9E1"/>
<path d="M128.495 53.0999V54.4542H129.892H131.288V58.6595V62.8647H132.894H134.5V58.6595V54.4542H135.966H137.432V53.0999V51.7457H132.964H128.495V53.0999Z" fill="#25A9E1"/>
<path d="M134.201 67.2382C133.489 67.4119 133.125 68.3203 133.419 69.1886C133.628 69.7898 134.047 69.9501 135.333 69.9501H136.38L136.338 70.4444L136.296 70.952L134.872 70.9387L133.433 70.9253V71.286C133.433 71.6066 133.503 71.66 133.964 71.7402C134.774 71.8604 136.632 71.8337 136.925 71.6868C137.526 71.3795 137.624 69.8299 137.051 69.3489C136.869 69.1886 136.436 69.0817 135.64 69.0283L134.48 68.9482V68.5474V68.1466L135.78 68.1065L137.065 68.0665V67.6122V67.1447L135.78 67.158C135.067 67.1714 134.355 67.2115 134.201 67.2382Z" fill="#1A75BB"/>
<path d="M15.3904 67.3714C15.3904 67.4382 15.7815 68.4803 16.2565 69.7226L17.1366 71.9536L17.7512 71.9269L18.3799 71.8868L19.2599 69.6826C19.7489 68.4669 20.14 67.4382 20.14 67.3714C20.14 67.318 19.8886 67.2779 19.5952 67.2779H19.0504L18.4497 68.9478C18.1144 69.8696 17.8071 70.6177 17.7652 70.6177C17.7093 70.6177 17.416 69.8696 17.0807 68.9478L16.48 67.2779H15.9352C15.6279 67.2779 15.3904 67.318 15.3904 67.3714Z" fill="#1A75BB"/>
<path d="M21.7046 69.5089C21.2296 70.7513 20.8385 71.7933 20.8385 71.8467C20.8385 71.9135 21.09 71.9536 21.3833 71.9536C21.8862 71.9536 21.9421 71.9135 22.0958 71.486L22.2634 71.0185H23.2133H24.1632L24.3309 71.486C24.4845 71.9135 24.5404 71.9536 25.0433 71.9536C25.3367 71.9536 25.5881 71.9135 25.5881 71.8467C25.5881 71.7933 25.197 70.7647 24.7081 69.549L23.828 67.3447L23.1993 67.3047L22.5847 67.2779L21.7046 69.5089ZM23.5346 69.3219C23.8699 70.3104 23.8559 70.3505 23.2133 70.3505C22.878 70.3505 22.6545 70.2837 22.6545 70.1902C22.6545 69.9364 23.1155 68.6138 23.2133 68.6138C23.2552 68.6138 23.4089 68.9345 23.5346 69.3219Z" fill="#1A75BB"/>
<path d="M27.2645 69.6158V71.9536H29.0805H30.8965V71.486V71.0185H29.6393H28.382V69.1482V67.2779H27.8232H27.2645V69.6158Z" fill="#1A75BB"/>
<path d="M32.5728 69.2818C32.5728 71.2456 32.5868 71.3124 32.9221 71.6196C33.2294 71.9269 33.3551 71.9536 34.6682 71.9536C35.9814 71.9536 36.1071 71.9269 36.4144 71.6196C36.7497 71.3124 36.7637 71.2456 36.7637 69.2818V67.2779H36.2049H35.6601L35.6182 69.1749L35.5763 71.0853H34.6682H33.7602L33.7183 69.1749L33.6764 67.2779H33.1316H32.5728V69.2818Z" fill="#1A75BB"/>
<path d="M38.8591 69.6158V71.9536H40.6752H42.4912V71.486V71.0185H41.2339H39.9767V70.4841V69.9498H40.9546H41.9324V69.549V69.1482H40.9546H39.9767V68.6806V68.2131H41.2339H42.4912V67.7455V67.2779H40.6752H38.8591V69.6158Z" fill="#1A75BB"/>
<path d="M48.3583 67.7455C48.3583 68.1596 48.4002 68.2131 48.7076 68.2131H49.0568V69.6158V71.0185H48.7076C48.4002 71.0185 48.3583 71.0719 48.3583 71.486V71.9536H49.5457H50.7332V71.486C50.7332 71.112 50.6773 71.0185 50.4538 71.0185C50.1883 71.0185 50.1744 70.925 50.1744 69.6158C50.1744 68.3066 50.1883 68.2131 50.4538 68.2131C50.6773 68.2131 50.7332 68.1196 50.7332 67.7455V67.2779H49.5457H48.3583V67.7455Z" fill="#1A75BB"/>
<path d="M52.689 69.6022V71.9534H53.2477H53.8065V70.524C53.8065 69.6557 53.8624 69.148 53.9323 69.2282C54.0021 69.295 54.4072 69.9229 54.8263 70.6175C55.5807 71.8733 55.5946 71.8866 56.1674 71.9267L56.7401 71.9668V69.629V67.2778H56.1813H55.6226V68.7072C55.6226 69.5755 55.5667 70.0832 55.4968 70.003C55.427 69.9362 55.0219 69.3083 54.6028 68.6137C53.8484 67.3579 53.8345 67.3446 53.2617 67.3045L52.689 67.2644V69.6022Z" fill="#1A75BB"/>
<path d="M58.4164 67.7455V68.2131H59.1848H59.9531V70.0833V71.9536H60.5119H61.0706V70.0833V68.2131H61.7691H62.4676V67.7455V67.2779H60.442H58.4164V67.7455Z" fill="#1A75BB"/>
<path d="M64.144 69.6158V71.9536H65.96H67.7761V71.486V71.0185H66.5188H65.2615V70.4841V69.9498H66.2394H67.2173V69.549V69.1482H66.2394H65.2615V68.6806V68.2131H66.5188H67.7761V67.7455V67.2779H65.96H64.144V69.6158Z" fill="#1A75BB"/>
<path d="M70.2487 67.4115C69.5502 67.6119 69.4664 67.8657 69.4524 69.6559C69.4524 71.2189 69.4664 71.3124 69.8016 71.6196C70.095 71.9135 70.2626 71.9536 71.1567 71.9536C71.7155 71.9536 72.5117 71.9135 72.9168 71.8735L73.6432 71.7799V70.5376V69.2818H72.5955H71.5478V69.6826C71.5478 70.0566 71.5897 70.0833 72.0368 70.0833C72.5117 70.0833 72.5257 70.0967 72.5257 70.6177V71.1654L71.5897 71.1254L70.6398 71.0853L70.5979 69.6425L70.556 68.2131H71.8971H73.2242V67.7455V67.2779L71.939 67.2913C71.2265 67.2913 70.4582 67.3581 70.2487 67.4115Z" fill="#1A75BB"/>
<path d="M75.599 69.6024V71.9536H76.1578H76.7166V71.2189V70.4841H77.2753C77.8202 70.4841 77.8481 70.5108 78.2113 71.2189C78.5885 71.9403 78.6024 71.9536 79.1892 71.9536H79.7899L79.3708 71.2456C78.8818 70.404 78.8818 70.404 79.2171 70.3104C79.8318 70.1635 79.9435 68.173 79.3708 67.6119C79.1193 67.3848 78.8679 67.3447 77.3452 67.2913L75.599 67.2512V69.6024ZM78.6444 68.6673C78.6723 68.8677 78.6583 69.1883 78.6164 69.362C78.5326 69.6559 78.4627 69.6826 77.6246 69.6826H76.7166V68.9478V68.1997L77.6665 68.2398C78.5885 68.2799 78.6024 68.2932 78.6444 68.6673Z" fill="#1A75BB"/>
<path d="M81.3265 67.7455C81.3265 68.1596 81.3684 68.2131 81.6757 68.2131H82.025V69.6158V71.0185H81.6757C81.3684 71.0185 81.3265 71.0719 81.3265 71.486V71.9536H82.5139H83.7013V71.486C83.7013 71.112 83.6454 71.0185 83.4219 71.0185C83.1565 71.0185 83.1425 70.925 83.1425 69.6158C83.1425 68.3066 83.1565 68.2131 83.4219 68.2131C83.6454 68.2131 83.7013 68.1196 83.7013 67.7455V67.2779H82.5139H81.3265V67.7455Z" fill="#1A75BB"/>
<path d="M85.238 67.7455V68.2131H86.0063H86.7746V70.0833V71.9536H87.3334H87.8922V70.0833V68.2131H88.5907H89.2891V67.7455V67.2779H87.2636H85.238V67.7455Z" fill="#1A75BB"/>
<path d="M91.3007 68.9612C92.069 70.3639 92.2227 70.7513 92.2227 71.299V71.9536H92.7815H93.3403V71.2723C93.3403 70.6845 93.48 70.3505 94.2622 68.9345L95.1842 67.2779H94.6115H94.0387L93.452 68.4135C93.1307 69.0413 92.8234 69.549 92.7675 69.549C92.7116 69.549 92.4183 69.0413 92.1109 68.4135L91.5382 67.2779H90.9654H90.3787L91.3007 68.9612Z" fill="#1A75BB"/>
<path d="M100.744 69.6024V71.9536H101.303H101.862V71.2189V70.4841H102.42C102.965 70.4841 102.993 70.5108 103.356 71.2189C103.734 71.9403 103.748 71.9536 104.334 71.9536H104.935L104.516 71.2456C104.027 70.404 104.027 70.404 104.362 70.3104C104.977 70.1635 105.089 68.173 104.516 67.6119C104.264 67.3848 104.013 67.3447 102.49 67.2913L100.744 67.2512V69.6024ZM103.789 68.6673C103.817 68.8677 103.803 69.1883 103.761 69.362C103.678 69.6559 103.608 69.6826 102.77 69.6826H101.862V68.9478V68.1997L102.812 68.2398C103.734 68.2799 103.748 68.2932 103.789 68.6673Z" fill="#1A75BB"/>
<path d="M106.751 69.6158V71.9536H108.567H110.383V71.486V71.0185H109.126H107.869V70.4841V69.9498H108.846H109.824V69.549V69.1482H108.846H107.869V68.6806V68.2131H109.126H110.383V67.7455V67.2779H108.567H106.751V69.6158Z" fill="#1A75BB"/>
<path d="M112.828 67.371C112.115 67.5447 111.752 68.4531 112.045 69.3214C112.255 69.9226 112.674 70.0829 113.959 70.0829H115.007L114.965 70.5772L114.923 71.0848L113.498 71.0715L112.059 71.0581V71.4188C112.059 71.7394 112.129 71.7929 112.59 71.873C113.4 71.9932 115.258 71.9665 115.552 71.8196C116.152 71.5123 116.25 69.9627 115.677 69.4817C115.496 69.3214 115.063 69.2146 114.267 69.1611L113.107 69.081V68.6802V68.2794L114.406 68.2393L115.691 68.1993V67.7451V67.2775L114.406 67.2908C113.694 67.3042 112.981 67.3443 112.828 67.371Z" fill="#1A75BB"/>
<path d="M117.927 69.2818C117.927 71.2456 117.94 71.3124 118.276 71.6196C118.583 71.9269 118.709 71.9536 120.022 71.9536C121.335 71.9536 121.461 71.9269 121.768 71.6196C122.103 71.3124 122.117 71.2456 122.117 69.2818V67.2779H121.559H121.014L120.972 69.1749L120.93 71.0853H120.022H119.114L119.072 69.1749L119.03 67.2779H118.485H117.927V69.2818Z" fill="#1A75BB"/>
<path d="M124.213 69.6158V71.9536H126.029H127.845V71.486V71.0185H126.588H125.33V69.1482V67.2779H124.772H124.213V69.6158Z" fill="#1A75BB"/>
<path d="M128.264 67.7455V68.2131H129.032H129.801V70.0833V71.9536H130.359H130.918V70.0833V68.2131H131.617H132.315V67.7455V67.2779H130.29H128.264V67.7455Z" fill="#1A75BB"/>
<path d="M44.0279 69.6154V70.083H45.4248H46.8218V69.6154V69.1479H45.4248H44.0279V69.6154Z" fill="#1A75BB"/>
<path d="M96.1342 69.6154V70.083H97.5311H98.9281V69.6154V69.1479H97.5311H96.1342V69.6154Z" fill="#1A75BB"/>
</svg>
