<svg width="55" height="48" viewBox="0 0 55 48" fill="none" xmlns="http://www.w3.org/2000/svg">
<rect width="55" height="48" rx="4" fill="#1B75BB"/>
<path d="M16.2297 7.58649C15.78 7.85105 15.1186 8.48599 14.7746 8.98865L14.1397 9.86169L14.0603 23.6187L13.981 37.4022L14.6159 38.5662C15.0127 39.307 15.6212 39.9684 16.2826 40.3652C17.3144 40.9473 17.3408 40.9473 27.8173 40.8943C37.9499 40.815 38.3467 40.7885 39.0346 40.2594C39.4314 39.9684 40.0135 39.3864 40.3045 38.9895C40.8336 38.2752 40.86 37.9048 40.9394 27.1638L41.0188 16.0523L36.7329 11.5549L32.4471 7.08383H24.7485C17.6583 7.08383 16.9969 7.13674 16.2297 7.58649ZM30.992 12.1104L31.0714 15.5497L31.8915 16.3698C32.8704 17.3487 34.0874 17.6397 36.971 17.6662H39.1404V27.4813V37.2964L38.2409 38.1958L37.3414 39.0953H27.7909C19.616 39.0953 18.1081 39.0424 17.4202 38.6721C15.8858 37.8784 15.8593 37.6932 15.8593 23.8568C15.8593 10.2585 15.8858 9.9146 17.2615 9.25321C18.3462 8.72409 18.6107 8.72409 24.7749 8.69764L30.8862 8.67118L30.992 12.1104ZM36.8123 14.5444L37.606 15.5497H35.7276C33.1614 15.5497 32.791 15.1529 32.791 12.4014V10.4173L34.4048 11.9782C35.2779 12.8512 36.3626 14.0153 36.8123 14.5444Z" fill="#E9E9E9"/>
<path d="M26.8913 18.3804C26.7855 18.4597 26.7062 20.6027 26.7062 23.116V27.6664L24.9336 25.8409C23.0288 23.8567 22.1558 23.5392 21.997 24.8091C21.9441 25.3647 22.4203 26.0525 24.3516 28.1161C27.0765 31.0527 27.2882 31.2379 27.8438 30.9998C28.4258 30.7881 33.3201 25.3912 33.3201 24.9943C33.3201 24.5446 32.7645 24.0155 32.2883 24.0155C32.0767 24.0155 31.1507 24.8091 30.2248 25.788L28.5581 27.587V23.1953C28.5581 20.1529 28.4522 18.7243 28.2406 18.5126C27.8967 18.1687 27.1559 18.0894 26.8913 18.3804Z" fill="#E9E9E9"/>
<path d="M20.0661 33.963C19.8279 34.254 19.8015 34.4921 20.0131 34.8096C20.2512 35.2064 21.0714 35.2593 27.1297 35.3387C30.8865 35.3652 34.2464 35.3387 34.5903 35.2593C35.0665 35.1535 35.1988 34.9683 35.1194 34.3863L35.04 33.672L27.7382 33.5926C21.3095 33.5397 20.3835 33.5926 20.0661 33.963Z" fill="#E9E9E9"/>
</svg>
