<svg width="978" height="661" viewBox="0 0 978 661" fill="none" xmlns="http://www.w3.org/2000/svg">
<g filter="url(#filter0_d_1056_1234)">
<rect width="164" height="462.431" rx="4" transform="matrix(-1 0 0 1 168 94.9004)" fill="#1A75BB"/>
</g>
<path d="M71 488.816C71 486.176 71.4 483.802 72.2 481.696C73 479.589 74.1867 477.922 75.76 476.696C77.3067 475.442 79.2 474.816 81.44 474.816V483.256C80.2933 483.256 79.3733 483.762 78.68 484.776C77.96 485.789 77.6 487.016 77.6 488.456C77.6 490.536 78.16 492.109 79.28 493.176C80.3733 494.242 81.9333 494.776 83.96 494.776H86.52C88.5467 494.776 90.12 494.242 91.24 493.176C92.3333 492.109 92.88 490.536 92.88 488.456C92.88 487.016 92.5467 485.789 91.88 484.776C91.1867 483.762 90.3067 483.256 89.24 483.256V489.496H83.64V474.816H99V479.376L96.28 480.256C98.4133 482.762 99.48 486.042 99.48 490.096C99.48 494.656 98.2933 498.082 95.92 500.376C93.52 502.669 89.96 503.816 85.24 503.816C80.5733 503.816 77.04 502.522 74.64 499.936C72.2133 497.322 71 493.616 71 488.816ZM99 469.615H70V461.655H99V469.615ZM77.4 445.655C77.4 441.948 78.3467 439.042 80.24 436.935C82.1067 434.802 84.84 433.735 88.44 433.735C92.04 433.735 94.7867 434.802 96.68 436.935C98.5467 439.042 99.48 441.948 99.48 445.655C99.48 449.362 98.5467 452.268 96.68 454.375C94.8133 456.482 92.0667 457.535 88.44 457.535C84.8133 457.535 82.0667 456.482 80.2 454.375C78.3333 452.268 77.4 449.362 77.4 445.655ZM82.8 445.655C82.8 448.268 84.3067 449.575 87.32 449.575H89.6C92.5867 449.575 94.08 448.268 94.08 445.655C94.08 443.015 92.5867 441.695 89.6 441.695H87.32C84.3067 441.695 82.8 443.015 82.8 445.655ZM79.84 421.895C78.2133 420.375 77.4 418.402 77.4 415.975C77.4 413.122 78.3333 410.922 80.2 409.375C82.04 407.829 84.7733 407.055 88.4 407.055C92.0533 407.055 94.8133 407.829 96.68 409.375C98.5467 410.922 99.48 413.122 99.48 415.975C99.48 418.909 98.32 421.149 96 422.695L99 423.375V429.855H70V421.895H79.84ZM83.28 418.455C83.28 419.629 83.7067 420.509 84.56 421.095C85.3867 421.682 86.4667 421.975 87.8 421.975H89.12C90.4533 421.975 91.5333 421.682 92.36 421.095C93.1867 420.509 93.6 419.629 93.6 418.455C93.6 416.162 92.24 415.015 89.52 415.015H87.4C84.6533 415.015 83.28 416.162 83.28 418.455ZM77.4 392.776C77.4 389.549 77.9467 386.922 79.04 384.896C80.1067 382.869 81.8533 381.856 84.28 381.856H92.52C92.9733 381.856 93.3467 381.749 93.64 381.536C93.9333 381.322 94.08 381.002 94.08 380.576V379.136H98.68C98.7333 379.216 98.8267 379.429 98.96 379.776C99.0667 380.096 99.1733 380.562 99.28 381.176C99.4133 381.789 99.48 382.496 99.48 383.296C99.48 384.842 99.2533 386.122 98.8 387.136C98.32 388.122 97.6667 388.802 96.84 389.176C97.64 390.189 98.28 391.322 98.76 392.576C99.24 393.829 99.48 395.296 99.48 396.976C99.48 401.936 97.5067 404.416 93.56 404.416C91.5067 404.416 89.9467 403.869 88.88 402.776C87.7867 401.656 87.04 400.056 86.64 397.976C86.24 395.896 86.04 393.176 86.04 389.816H85C84.1733 389.816 83.5467 390.109 83.12 390.696C82.6933 391.256 82.48 391.989 82.48 392.896C82.48 393.722 82.6267 394.442 82.92 395.056C83.2133 395.642 83.68 395.936 84.32 395.936H84.48V403.776C84.3467 403.802 84.16 403.816 83.92 403.816C81.92 403.816 80.3333 402.869 79.16 400.976C77.9867 399.056 77.4 396.322 77.4 392.776ZM89.8 389.816C89.8 392.082 90.0533 393.762 90.56 394.856C91.04 395.922 91.6933 396.456 92.52 396.456C93.8533 396.456 94.52 395.549 94.52 393.736C94.52 392.696 94.24 391.789 93.68 391.016C93.12 390.216 92.4267 389.816 91.6 389.816H89.8ZM99 376.256H70V368.296H99V376.256ZM71.48 333.895C71.48 332.189 71.88 330.669 72.68 329.335C73.4533 328.002 74.5333 326.962 75.92 326.215C77.28 325.469 78.8133 325.095 80.52 325.095H81.04C82.7467 325.095 84.2933 325.469 85.68 326.215C87.0667 326.962 88.16 328.002 88.96 329.335C89.7333 330.669 90.12 332.189 90.12 333.895V340.495H99V349.335H71.48V333.895ZM83.68 340.495V336.855C83.68 335.922 83.44 335.229 82.96 334.775C82.48 334.295 81.8267 334.055 81 334.055H80.68C79.8267 334.055 79.1733 334.295 78.72 334.775C78.24 335.229 78 335.922 78 336.855V340.495H83.68ZM77.36 308.188C77.36 307.575 77.44 307.028 77.6 306.548C77.7333 306.068 77.8133 305.828 77.84 305.828H84.52V308.388C84.52 310.042 84.9467 311.242 85.8 311.988C86.6533 312.708 87.92 313.068 89.6 313.068H99V321.028H77.88V314.508L81.08 313.988C79.8533 313.508 78.9333 312.748 78.32 311.708C77.68 310.668 77.36 309.495 77.36 308.188ZM77.4 291.71C77.4 287.843 78.3067 284.896 80.12 282.87C81.9333 280.816 84.7067 279.79 88.44 279.79H89.8V295.63C91.32 295.63 92.4667 295.296 93.24 294.63C94.0133 293.936 94.4 292.856 94.4 291.39C94.4 290.056 94.12 289.083 93.56 288.47C93 287.83 92.2533 287.51 91.32 287.51V279.79C93.88 279.79 95.88 280.763 97.32 282.71C98.76 284.656 99.48 287.496 99.48 291.23C99.48 295.15 98.5733 298.19 96.76 300.35C94.92 302.51 92.1467 303.59 88.44 303.59C84.8133 303.59 82.0667 302.536 80.2 300.43C78.3333 298.323 77.4 295.416 77.4 291.71ZM82.48 291.39C82.48 293.896 83.6667 295.296 86.04 295.59V287.83C84.9467 287.83 84.08 288.15 83.44 288.79C82.8 289.403 82.48 290.27 82.48 291.39ZM77.4 265.91C77.4 263.083 77.96 260.697 79.08 258.75C80.1733 256.777 81.88 255.79 84.2 255.79V263.19C83.4267 263.19 82.88 263.537 82.56 264.23C82.2933 264.71 82.16 265.31 82.16 266.03C82.16 267.95 82.6133 268.91 83.52 268.91C84.0267 268.91 84.3867 268.577 84.6 267.91C84.8133 267.243 85.04 266.15 85.28 264.63C85.5467 262.763 85.8667 261.203 86.24 259.95C86.5867 258.697 87.2267 257.603 88.16 256.67C89.0667 255.737 90.3467 255.27 92 255.27C94.6933 255.27 96.6133 256.283 97.76 258.31C98.9067 260.31 99.48 262.937 99.48 266.19C99.48 268.057 99.2267 269.817 98.72 271.47C98.1867 273.123 97.3733 274.47 96.28 275.51C95.1867 276.55 93.8 277.07 92.12 277.07V269.67H92.28C93.1867 269.643 93.8267 269.27 94.2 268.55C94.5467 267.803 94.72 267.017 94.72 266.19C94.72 263.977 94.2 262.87 93.16 262.87C92.6267 262.87 92.24 263.217 92 263.91C91.76 264.603 91.5067 265.737 91.24 267.31C90.92 269.203 90.5733 270.763 90.2 271.99C89.8267 273.19 89.2 274.243 88.32 275.15C87.4133 276.057 86.16 276.51 84.56 276.51C81.9733 276.51 80.1333 275.537 79.04 273.59C77.9467 271.617 77.4 269.057 77.4 265.91ZM77.4 240.577C77.4 236.71 78.3067 233.764 80.12 231.737C81.9333 229.684 84.7067 228.657 88.44 228.657H89.8V244.497C91.32 244.497 92.4667 244.164 93.24 243.497C94.0133 242.804 94.4 241.724 94.4 240.257C94.4 238.924 94.12 237.95 93.56 237.337C93 236.697 92.2533 236.377 91.32 236.377V228.657C93.88 228.657 95.88 229.63 97.32 231.577C98.76 233.524 99.48 236.364 99.48 240.097C99.48 244.017 98.5733 247.057 96.76 249.217C94.92 251.377 92.1467 252.457 88.44 252.457C84.8133 252.457 82.0667 251.404 80.2 249.297C78.3333 247.19 77.4 244.284 77.4 240.577ZM82.48 240.257C82.48 242.764 83.6667 244.164 86.04 244.457V236.697C84.9467 236.697 84.08 237.017 83.44 237.657C82.8 238.27 82.48 239.137 82.48 240.257ZM77.4 210.257C77.4 207.804 78.08 205.964 79.44 204.737C80.8 203.511 82.76 202.897 85.32 202.897H99V210.857H86.28C85.3733 210.857 84.6533 211.097 84.12 211.577C83.56 212.031 83.28 212.684 83.28 213.537C83.28 214.524 83.6 215.324 84.24 215.937C84.88 216.551 85.6667 216.857 86.6 216.857H99V224.817H77.88V218.297L81.08 217.777C79.96 216.951 79.0667 215.871 78.4 214.537C77.7333 213.177 77.4 211.751 77.4 210.257ZM77.4 187.218C77.4 183.751 78.1467 180.951 79.64 178.818C81.1067 176.658 83.36 175.578 86.4 175.578V183.298C84 183.298 82.8 184.604 82.8 187.218C82.8 189.831 84.3067 191.138 87.32 191.138H89.6C92.5867 191.138 94.08 189.778 94.08 187.058C94.08 184.338 92.8533 182.978 90.4 182.978V175.578C93.4667 175.578 95.7467 176.658 97.24 178.818C98.7333 180.951 99.48 183.751 99.48 187.218C99.48 190.924 98.5467 193.831 96.68 195.938C94.8133 198.044 92.0667 199.098 88.44 199.098C84.8133 199.098 82.0667 198.044 80.2 195.938C78.3333 193.831 77.4 190.924 77.4 187.218ZM77.4 160.538C77.4 156.671 78.3067 153.725 80.12 151.698C81.9333 149.645 84.7067 148.618 88.44 148.618H89.8V164.458C91.32 164.458 92.4667 164.125 93.24 163.458C94.0133 162.765 94.4 161.685 94.4 160.218C94.4 158.885 94.12 157.911 93.56 157.298C93 156.658 92.2533 156.338 91.32 156.338V148.618C93.88 148.618 95.88 149.591 97.32 151.538C98.76 153.485 99.48 156.325 99.48 160.058C99.48 163.978 98.5733 167.018 96.76 169.178C94.92 171.338 92.1467 172.418 88.44 172.418C84.8133 172.418 82.0667 171.365 80.2 169.258C78.3333 167.151 77.4 164.245 77.4 160.538ZM82.48 160.218C82.48 162.725 83.6667 164.125 86.04 164.418V156.658C84.9467 156.658 84.08 156.978 83.44 157.618C82.8 158.231 82.48 159.098 82.48 160.218Z" fill="white"/>
<g filter="url(#filter1_d_1056_1234)">
<rect width="132.808" height="680.384" rx="4" transform="matrix(0 -1 -1 0 973.668 132.808)" fill="#1A75BB"/>
</g>
<path d="M336.307 57.8218L328.987 37.1818H336.067L340.207 50.9818H340.327L344.497 37.1818H351.277L343.987 57.8218H336.307ZM354.346 57.8218V37.1818H360.976V57.8218H354.346ZM385.296 43.5118C385.296 44.7718 384.956 45.9118 384.276 46.9318C383.596 47.9518 382.606 48.7018 381.306 49.1818L385.896 57.8218H378.456L374.796 50.2918H372.336V57.8218H365.706V37.1818H378.336C379.816 37.1818 381.076 37.4718 382.116 38.0518C383.176 38.6118 383.966 39.3818 384.486 40.3618C385.026 41.3218 385.296 42.3718 385.296 43.5118ZM378.546 43.7818C378.546 43.2418 378.366 42.7918 378.006 42.4318C377.646 42.0718 377.206 41.8918 376.686 41.8918H372.336V45.7018H376.686C377.206 45.7018 377.646 45.5218 378.006 45.1618C378.366 44.7818 378.546 44.3218 378.546 43.7818ZM408.886 36.8218C411.946 36.8218 414.366 37.5918 416.146 39.1318C417.926 40.6518 418.816 42.8318 418.816 45.6718H412.486C412.486 44.4718 412.166 43.5218 411.526 42.8218C410.906 42.1218 410.016 41.7718 408.856 41.7718C407.516 41.7718 406.526 42.1918 405.886 43.0318C405.266 43.8718 404.956 45.0418 404.956 46.5418V48.4618C404.956 49.9418 405.266 51.1118 405.886 51.9718C406.526 52.8118 407.496 53.2318 408.796 53.2318C410.076 53.2318 411.046 52.9018 411.706 52.2418C412.366 51.5818 412.696 50.6518 412.696 49.4518H418.816C418.816 52.2718 417.946 54.4318 416.206 55.9318C414.486 57.4318 412.046 58.1818 408.886 58.1818C405.366 58.1818 402.696 57.2818 400.876 55.4818C399.076 53.6818 398.176 51.0218 398.176 47.5018C398.176 43.9818 399.076 41.3218 400.876 39.5218C402.696 37.7218 405.366 36.8218 408.886 36.8218ZM430.166 41.6218C432.946 41.6218 435.126 42.3318 436.706 43.7518C438.306 45.1518 439.106 47.2018 439.106 49.9018C439.106 52.6018 438.306 54.6618 436.706 56.0818C435.126 57.4818 432.946 58.1818 430.166 58.1818C427.386 58.1818 425.206 57.4818 423.626 56.0818C422.046 54.6818 421.256 52.6218 421.256 49.9018C421.256 47.1818 422.046 45.1218 423.626 43.7218C425.206 42.3218 427.386 41.6218 430.166 41.6218ZM430.166 45.6718C428.206 45.6718 427.226 46.8018 427.226 49.0618V50.7718C427.226 53.0118 428.206 54.1318 430.166 54.1318C432.146 54.1318 433.136 53.0118 433.136 50.7718V49.0618C433.136 46.8018 432.146 45.6718 430.166 45.6718ZM452.906 41.6218C454.746 41.6218 456.126 42.1318 457.046 43.1518C457.966 44.1718 458.426 45.6418 458.426 47.5618V57.8218H452.456V48.2818C452.456 47.6018 452.276 47.0618 451.916 46.6618C451.576 46.2418 451.086 46.0318 450.446 46.0318C449.706 46.0318 449.106 46.2718 448.646 46.7518C448.186 47.2318 447.956 47.8218 447.956 48.5218V57.8218H441.986V41.9818H446.876L447.266 44.3818C447.886 43.5418 448.696 42.8718 449.696 42.3718C450.716 41.8718 451.786 41.6218 452.906 41.6218ZM469.525 41.6218C471.645 41.6218 473.435 42.0418 474.895 42.8818C476.375 43.7018 477.115 44.9818 477.115 46.7218H471.565C471.565 46.1418 471.305 45.7318 470.785 45.4918C470.425 45.2918 469.975 45.1918 469.435 45.1918C467.995 45.1918 467.275 45.5318 467.275 46.2118C467.275 46.5918 467.525 46.8618 468.025 47.0218C468.525 47.1818 469.345 47.3518 470.485 47.5318C471.885 47.7318 473.055 47.9718 473.995 48.2518C474.935 48.5118 475.755 48.9918 476.455 49.6918C477.155 50.3718 477.505 51.3318 477.505 52.5718C477.505 54.5918 476.745 56.0318 475.225 56.8918C473.725 57.7518 471.755 58.1818 469.315 58.1818C467.915 58.1818 466.595 57.9918 465.355 57.6118C464.115 57.2118 463.105 56.6018 462.325 55.7818C461.545 54.9618 461.155 53.9218 461.155 52.6618H466.705V52.7818C466.725 53.4618 467.005 53.9418 467.545 54.2218C468.105 54.4818 468.695 54.6118 469.315 54.6118C470.975 54.6118 471.805 54.2218 471.805 53.4418C471.805 53.0418 471.545 52.7518 471.025 52.5718C470.505 52.3918 469.655 52.2018 468.475 52.0018C467.055 51.7618 465.885 51.5018 464.965 51.2218C464.065 50.9418 463.275 50.4718 462.595 49.8118C461.915 49.1318 461.575 48.1918 461.575 46.9918C461.575 45.0518 462.305 43.6718 463.765 42.8518C465.245 42.0318 467.165 41.6218 469.525 41.6218ZM491.825 57.8218L491.435 55.4218C490.815 56.2818 489.995 56.9618 488.975 57.4618C487.975 57.9418 486.915 58.1818 485.795 58.1818C483.955 58.1818 482.575 57.6718 481.655 56.6518C480.735 55.6318 480.275 54.1618 480.275 52.2418V41.9818H486.245V51.5218C486.245 52.2018 486.415 52.7518 486.755 53.1718C487.115 53.5718 487.615 53.7718 488.255 53.7718C488.995 53.7718 489.595 53.5318 490.055 53.0518C490.515 52.5718 490.745 51.9818 490.745 51.2818V41.9818H496.715V57.8218H491.825ZM500.555 57.8218V36.0718H506.525V57.8218H500.555ZM520.895 41.9818V46.0318H517.535V52.0618C517.535 52.7818 517.655 53.3118 517.895 53.6518C518.135 53.9718 518.575 54.1318 519.215 54.1318H520.895V57.6418C520.415 57.8018 519.795 57.9318 519.035 58.0318C518.275 58.1318 517.615 58.1818 517.055 58.1818C515.295 58.1818 513.935 57.8618 512.975 57.2218C512.035 56.5818 511.565 55.4918 511.565 53.9518V46.0318H509.345V41.9818H511.805L513.095 37.1818H517.535V41.9818H520.895ZM531.495 41.6218C533.915 41.6218 535.885 42.0318 537.405 42.8518C538.925 43.6518 539.685 44.9618 539.685 46.7818V52.9618C539.685 53.3018 539.765 53.5818 539.925 53.8018C540.085 54.0218 540.325 54.1318 540.645 54.1318H541.725V57.5818C541.665 57.6218 541.505 57.6918 541.245 57.7918C541.005 57.8718 540.655 57.9518 540.195 58.0318C539.735 58.1318 539.205 58.1818 538.605 58.1818C537.445 58.1818 536.485 58.0118 535.725 57.6718C534.985 57.3118 534.475 56.8218 534.195 56.2018C533.435 56.8018 532.585 57.2818 531.645 57.6418C530.705 58.0018 529.605 58.1818 528.345 58.1818C524.625 58.1818 522.765 56.7018 522.765 53.7418C522.765 52.2018 523.175 51.0318 523.995 50.2318C524.835 49.4118 526.035 48.8518 527.595 48.5518C529.155 48.2518 531.195 48.1018 533.715 48.1018V47.3218C533.715 46.7018 533.495 46.2318 533.055 45.9118C532.635 45.5918 532.085 45.4318 531.405 45.4318C530.785 45.4318 530.245 45.5418 529.785 45.7618C529.345 45.9818 529.125 46.3318 529.125 46.8118V46.9318H523.245C523.225 46.8318 523.215 46.6918 523.215 46.5118C523.215 45.0118 523.925 43.8218 525.345 42.9418C526.785 42.0618 528.835 41.6218 531.495 41.6218ZM533.715 50.9218C532.015 50.9218 530.755 51.1118 529.935 51.4918C529.135 51.8518 528.735 52.3418 528.735 52.9618C528.735 53.9618 529.415 54.4618 530.775 54.4618C531.555 54.4618 532.235 54.2518 532.815 53.8318C533.415 53.4118 533.715 52.8918 533.715 52.2718V50.9218ZM554.595 41.6218C556.435 41.6218 557.815 42.1318 558.735 43.1518C559.655 44.1718 560.115 45.6418 560.115 47.5618V57.8218H554.145V48.2818C554.145 47.6018 553.965 47.0618 553.605 46.6618C553.265 46.2418 552.775 46.0318 552.135 46.0318C551.395 46.0318 550.795 46.2718 550.335 46.7518C549.875 47.2318 549.645 47.8218 549.645 48.5218V57.8218H543.675V41.9818H548.565L548.955 44.3818C549.575 43.5418 550.385 42.8718 551.385 42.3718C552.405 41.8718 553.475 41.6218 554.595 41.6218ZM574.245 41.9818V46.0318H570.885V52.0618C570.885 52.7818 571.005 53.3118 571.245 53.6518C571.485 53.9718 571.925 54.1318 572.565 54.1318H574.245V57.6418C573.765 57.8018 573.145 57.9318 572.385 58.0318C571.625 58.1318 570.965 58.1818 570.405 58.1818C568.645 58.1818 567.285 57.8618 566.325 57.2218C565.385 56.5818 564.915 55.4918 564.915 53.9518V46.0318H562.695V41.9818H565.155L566.445 37.1818H570.885V41.9818H574.245ZM587.425 37.1818H594.055V52.5418H604.645V57.8218H587.425V37.1818ZM607.435 37.1818H614.065V52.5418H624.655V57.8218H607.435V37.1818ZM636.787 36.8218C639.847 36.8218 642.267 37.5918 644.047 39.1318C645.827 40.6518 646.717 42.8318 646.717 45.6718H640.387C640.387 44.4718 640.067 43.5218 639.427 42.8218C638.807 42.1218 637.917 41.7718 636.757 41.7718C635.417 41.7718 634.427 42.1918 633.787 43.0318C633.167 43.8718 632.857 45.0418 632.857 46.5418V48.4618C632.857 49.9418 633.167 51.1118 633.787 51.9718C634.427 52.8118 635.397 53.2318 636.697 53.2318C637.977 53.2318 638.947 52.9018 639.607 52.2418C640.267 51.5818 640.597 50.6518 640.597 49.4518H646.717C646.717 52.2718 645.847 54.4318 644.107 55.9318C642.387 57.4318 639.947 58.1818 636.787 58.1818C633.267 58.1818 630.597 57.2818 628.777 55.4818C626.977 53.6818 626.077 51.0218 626.077 47.5018C626.077 43.9818 626.977 41.3218 628.777 39.5218C630.597 37.7218 633.267 36.8218 636.787 36.8218ZM670.576 36.8218C672.616 36.8218 674.386 37.0718 675.886 37.5718C677.386 38.0718 678.536 38.7518 679.336 39.6118C680.136 40.4718 680.536 41.4218 680.536 42.4618V43.2118H675.226C675.226 42.5918 674.856 42.0818 674.116 41.6818C673.396 41.2618 672.346 41.0518 670.966 41.0518C669.686 41.0518 668.706 41.3018 668.026 41.8018C667.366 42.2818 667.036 42.8718 667.036 43.5718C667.036 44.1918 667.236 44.6618 667.636 44.9818C668.056 45.3018 668.566 45.4618 669.166 45.4618H672.286V49.1518H668.506C667.886 49.1518 667.376 49.3418 666.976 49.7218C666.596 50.0818 666.406 50.6118 666.406 51.3118C666.406 52.1318 666.746 52.7818 667.426 53.2618C668.126 53.7218 669.226 53.9518 670.726 53.9518C673.726 53.9518 675.226 53.0618 675.226 51.2818V45.4618H684.706V49.1518H680.596V51.1618C680.596 53.4018 679.796 55.1318 678.196 56.3518C676.616 57.5718 674.136 58.1818 670.756 58.1818C667.276 58.1818 664.666 57.6218 662.926 56.5018C661.186 55.3818 660.316 53.9018 660.316 52.0618C660.316 50.8618 660.626 49.8318 661.246 48.9718C661.886 48.0918 662.776 47.4718 663.916 47.1118V46.9918C663.056 46.6718 662.336 46.1218 661.756 45.3418C661.196 44.5618 660.916 43.6918 660.916 42.7318C660.916 41.6518 661.276 40.6618 661.996 39.7618C662.736 38.8618 663.836 38.1518 665.296 37.6318C666.756 37.0918 668.516 36.8218 670.576 36.8218ZM702.547 57.8218L695.227 37.1818H702.307L706.447 50.9818H706.567L710.737 37.1818H717.517L710.227 57.8218H702.547ZM720.586 57.8218V37.1818H727.216V57.8218H720.586ZM751.537 43.5118C751.537 44.7718 751.197 45.9118 750.517 46.9318C749.837 47.9518 748.847 48.7018 747.547 49.1818L752.137 57.8218H744.697L741.037 50.2918H738.577V57.8218H731.947V37.1818H744.577C746.057 37.1818 747.317 37.4718 748.357 38.0518C749.417 38.6118 750.207 39.3818 750.727 40.3618C751.267 41.3218 751.537 42.3718 751.537 43.5118ZM744.787 43.7818C744.787 43.2418 744.607 42.7918 744.247 42.4318C743.887 42.0718 743.447 41.8918 742.927 41.8918H738.577V45.7018H742.927C743.447 45.7018 743.887 45.5218 744.247 45.1618C744.607 44.7818 744.787 44.3218 744.787 43.7818ZM779.206 57.8218V49.9918H771.916V57.8218H765.286V37.1818H771.916V44.7118H779.206V37.1818H785.836V57.8218H779.206ZM798.047 41.6218C800.947 41.6218 803.157 42.3018 804.677 43.6618C806.217 45.0218 806.987 47.1018 806.987 49.9018V50.9218H795.107C795.107 52.0618 795.357 52.9218 795.857 53.5018C796.377 54.0818 797.187 54.3718 798.287 54.3718C799.287 54.3718 800.017 54.1618 800.477 53.7418C800.957 53.3218 801.197 52.7618 801.197 52.0618H806.987C806.987 53.9818 806.257 55.4818 804.797 56.5618C803.337 57.6418 801.207 58.1818 798.407 58.1818C795.467 58.1818 793.187 57.5018 791.567 56.1418C789.947 54.7618 789.137 52.6818 789.137 49.9018C789.137 47.1818 789.927 45.1218 791.507 43.7218C793.087 42.3218 795.267 41.6218 798.047 41.6218ZM798.287 45.4318C796.407 45.4318 795.357 46.3218 795.137 48.1018H800.957C800.957 47.2818 800.717 46.6318 800.237 46.1518C799.777 45.6718 799.127 45.4318 798.287 45.4318ZM817.696 41.6218C820.116 41.6218 822.086 42.0318 823.606 42.8518C825.126 43.6518 825.886 44.9618 825.886 46.7818V52.9618C825.886 53.3018 825.966 53.5818 826.126 53.8018C826.286 54.0218 826.526 54.1318 826.846 54.1318H827.926V57.5818C827.866 57.6218 827.706 57.6918 827.446 57.7918C827.206 57.8718 826.856 57.9518 826.396 58.0318C825.936 58.1318 825.406 58.1818 824.806 58.1818C823.646 58.1818 822.686 58.0118 821.926 57.6718C821.186 57.3118 820.676 56.8218 820.396 56.2018C819.636 56.8018 818.786 57.2818 817.846 57.6418C816.906 58.0018 815.806 58.1818 814.546 58.1818C810.826 58.1818 808.966 56.7018 808.966 53.7418C808.966 52.2018 809.376 51.0318 810.196 50.2318C811.036 49.4118 812.236 48.8518 813.796 48.5518C815.356 48.2518 817.396 48.1018 819.916 48.1018V47.3218C819.916 46.7018 819.696 46.2318 819.256 45.9118C818.836 45.5918 818.286 45.4318 817.606 45.4318C816.986 45.4318 816.446 45.5418 815.986 45.7618C815.546 45.9818 815.326 46.3318 815.326 46.8118V46.9318H809.446C809.426 46.8318 809.416 46.6918 809.416 46.5118C809.416 45.0118 810.126 43.8218 811.546 42.9418C812.986 42.0618 815.036 41.6218 817.696 41.6218ZM819.916 50.9218C818.216 50.9218 816.956 51.1118 816.136 51.4918C815.336 51.8518 814.936 52.3418 814.936 52.9618C814.936 53.9618 815.616 54.4618 816.976 54.4618C817.756 54.4618 818.436 54.2518 819.016 53.8318C819.616 53.4118 819.916 52.8918 819.916 52.2718V50.9218ZM830.086 57.8218V36.0718H836.056V57.8218H830.086ZM850.426 41.9818V46.0318H847.066V52.0618C847.066 52.7818 847.186 53.3118 847.426 53.6518C847.666 53.9718 848.106 54.1318 848.746 54.1318H850.426V57.6418C849.946 57.8018 849.326 57.9318 848.566 58.0318C847.806 58.1318 847.146 58.1818 846.586 58.1818C844.826 58.1818 843.466 57.8618 842.506 57.2218C841.566 56.5818 841.096 55.4918 841.096 53.9518V46.0318H838.876V41.9818H841.336L842.626 37.1818H847.066V41.9818H850.426ZM859.166 43.6318C859.806 42.9918 860.556 42.5018 861.416 42.1618C862.276 41.8018 863.176 41.6218 864.116 41.6218C865.956 41.6218 867.336 42.1318 868.256 43.1518C869.176 44.1718 869.636 45.6418 869.636 47.5618V57.8218H863.666V48.2818C863.666 47.6018 863.486 47.0618 863.126 46.6618C862.786 46.2418 862.296 46.0318 861.656 46.0318C860.916 46.0318 860.316 46.2718 859.856 46.7518C859.396 47.2318 859.166 47.8218 859.166 48.5218V57.8218H853.196V36.0718H859.166V43.6318ZM888.086 57.8218L885.626 49.0018H885.506L883.016 57.8218H877.196L871.406 41.9818H877.826L880.226 51.3418H880.436L882.926 41.9818H888.866L891.266 51.3418H891.476L893.906 41.9818H899.726L893.906 57.8218H888.086ZM909.044 41.6218C911.464 41.6218 913.434 42.0318 914.954 42.8518C916.474 43.6518 917.234 44.9618 917.234 46.7818V52.9618C917.234 53.3018 917.314 53.5818 917.474 53.8018C917.634 54.0218 917.874 54.1318 918.194 54.1318H919.274V57.5818C919.214 57.6218 919.054 57.6918 918.794 57.7918C918.554 57.8718 918.204 57.9518 917.744 58.0318C917.284 58.1318 916.754 58.1818 916.154 58.1818C914.994 58.1818 914.034 58.0118 913.274 57.6718C912.534 57.3118 912.024 56.8218 911.744 56.2018C910.984 56.8018 910.134 57.2818 909.194 57.6418C908.254 58.0018 907.154 58.1818 905.894 58.1818C902.174 58.1818 900.314 56.7018 900.314 53.7418C900.314 52.2018 900.724 51.0318 901.544 50.2318C902.384 49.4118 903.584 48.8518 905.144 48.5518C906.704 48.2518 908.744 48.1018 911.264 48.1018V47.3218C911.264 46.7018 911.044 46.2318 910.604 45.9118C910.184 45.5918 909.634 45.4318 908.954 45.4318C908.334 45.4318 907.794 45.5418 907.334 45.7618C906.894 45.9818 906.674 46.3318 906.674 46.8118V46.9318H900.794C900.774 46.8318 900.764 46.6918 900.764 46.5118C900.764 45.0118 901.474 43.8218 902.894 42.9418C904.334 42.0618 906.384 41.6218 909.044 41.6218ZM911.264 50.9218C909.564 50.9218 908.304 51.1118 907.484 51.4918C906.684 51.8518 906.284 52.3418 906.284 52.9618C906.284 53.9618 906.964 54.4618 908.324 54.4618C909.104 54.4618 909.784 54.2518 910.364 53.8318C910.964 53.4118 911.264 52.8918 911.264 52.2718V50.9218ZM932.114 57.3418C931.294 59.5618 930.284 61.2418 929.084 62.3818C927.904 63.5418 926.244 64.1218 924.104 64.1218C922.804 64.1218 921.654 63.9418 920.654 63.5818V60.0118H923.054C924.554 60.0118 925.444 59.2818 925.724 57.8218L919.424 41.9818H925.844L928.874 52.5118H929.084L931.874 41.9818H937.754L932.114 57.3418Z" fill="white"/>
<path d="M390.497 83.2978C389.553 84.7698 388.785 86.5138 388.193 88.5298C387.601 90.5298 387.305 92.3778 387.305 94.0738C387.305 95.7858 387.601 97.6418 388.193 99.6418C388.785 101.626 389.553 103.354 390.497 104.826H387.617C386.241 103.354 385.177 101.682 384.425 99.8098C383.673 97.9378 383.297 96.0258 383.297 94.0738C383.297 92.1058 383.673 90.1858 384.425 88.3138C385.177 86.4418 386.241 84.7698 387.617 83.2978H390.497ZM409.521 94.3378C409.521 96.5938 408.809 98.3138 407.385 99.4978C405.961 100.682 403.937 101.274 401.313 101.274C398.689 101.274 396.657 100.682 395.217 99.4978C393.793 98.3138 393.081 96.5938 393.081 94.3378V84.4738H398.385V94.2658C398.385 95.1938 398.633 95.9378 399.129 96.4978C399.625 97.0418 400.345 97.3138 401.289 97.3138C402.233 97.3138 402.953 97.0338 403.449 96.4738C403.961 95.9138 404.217 95.1778 404.217 94.2658V84.4738H409.521V94.3378ZM420.009 84.1858C422.121 84.1858 423.857 84.6178 425.217 85.4818C426.577 86.3298 427.273 87.5938 427.305 89.2738V89.5618H422.337V89.4658C422.337 88.9858 422.161 88.5858 421.809 88.2658C421.457 87.9458 420.921 87.7858 420.201 87.7858C419.497 87.7858 418.953 87.8898 418.569 88.0978C418.201 88.3058 418.017 88.5618 418.017 88.8658C418.017 89.2978 418.273 89.6178 418.785 89.8258C419.297 90.0338 420.121 90.2498 421.257 90.4738C422.585 90.7458 423.673 91.0338 424.521 91.3378C425.385 91.6258 426.137 92.1058 426.777 92.7778C427.417 93.4498 427.745 94.3618 427.761 95.5138C427.761 97.4658 427.097 98.9138 425.769 99.8578C424.457 100.802 422.697 101.274 420.489 101.274C417.913 101.274 415.905 100.842 414.465 99.9778C413.041 99.1138 412.329 97.5858 412.329 95.3938H417.345C417.345 96.2258 417.561 96.7858 417.993 97.0738C418.425 97.3458 419.097 97.4818 420.009 97.4818C420.681 97.4818 421.233 97.4098 421.665 97.2658C422.113 97.1218 422.337 96.8258 422.337 96.3778C422.337 95.9778 422.089 95.6818 421.593 95.4898C421.113 95.2818 420.321 95.0658 419.217 94.8418C417.873 94.5538 416.761 94.2578 415.881 93.9538C415.001 93.6338 414.233 93.1138 413.577 92.3938C412.921 91.6738 412.593 90.6978 412.593 89.4658C412.593 87.6578 413.289 86.3298 414.681 85.4818C416.089 84.6178 417.865 84.1858 420.009 84.1858ZM441.457 100.986L440.761 98.6578H434.977L434.281 100.986H428.857L434.881 84.4738H441.049L447.073 100.986H441.457ZM436.081 94.9618H439.657L437.929 89.0818H437.833L436.081 94.9618ZM456.753 93.1138V88.3138H461.841V93.1138H456.753ZM456.753 100.986V96.2098H461.841V100.986H456.753ZM480.921 84.1858C483.369 84.1858 485.305 84.8018 486.729 86.0338C488.153 87.2498 488.865 88.9938 488.865 91.2658H483.801C483.801 90.3058 483.545 89.5458 483.033 88.9858C482.537 88.4258 481.825 88.1458 480.897 88.1458C479.825 88.1458 479.033 88.4818 478.521 89.1538C478.025 89.8258 477.777 90.7618 477.777 91.9618V93.4978C477.777 94.6818 478.025 95.6178 478.521 96.3058C479.033 96.9778 479.809 97.3138 480.849 97.3138C481.873 97.3138 482.649 97.0498 483.177 96.5218C483.705 95.9938 483.969 95.2498 483.969 94.2898H488.865C488.865 96.5458 488.169 98.2738 486.777 99.4738C485.401 100.674 483.449 101.274 480.921 101.274C478.105 101.274 475.969 100.554 474.513 99.1138C473.073 97.6738 472.353 95.5458 472.353 92.7298C472.353 89.9138 473.073 87.7858 474.513 86.3458C475.969 84.9058 478.105 84.1858 480.921 84.1858ZM497.657 88.0258C499.593 88.0258 501.169 88.3538 502.385 89.0098C503.601 89.6498 504.209 90.6978 504.209 92.1538V97.0978C504.209 97.3698 504.273 97.5938 504.401 97.7698C504.529 97.9458 504.721 98.0338 504.977 98.0338H505.841V100.794C505.793 100.826 505.665 100.882 505.457 100.962C505.265 101.026 504.985 101.09 504.617 101.154C504.249 101.234 503.825 101.274 503.345 101.274C502.417 101.274 501.649 101.138 501.041 100.866C500.449 100.578 500.041 100.186 499.817 99.6898C499.209 100.17 498.529 100.554 497.777 100.842C497.025 101.13 496.145 101.274 495.137 101.274C492.161 101.274 490.673 100.09 490.673 97.7218C490.673 96.4898 491.001 95.5538 491.657 94.9138C492.329 94.2578 493.289 93.8098 494.537 93.5698C495.785 93.3298 497.417 93.2098 499.433 93.2098V92.5858C499.433 92.0898 499.257 91.7138 498.905 91.4578C498.569 91.2018 498.129 91.0738 497.585 91.0738C497.089 91.0738 496.657 91.1618 496.289 91.3378C495.937 91.5138 495.761 91.7938 495.761 92.1778V92.2738H491.057C491.041 92.1938 491.033 92.0818 491.033 91.9378C491.033 90.7378 491.601 89.7858 492.737 89.0818C493.889 88.3778 495.529 88.0258 497.657 88.0258ZM499.433 95.4658C498.073 95.4658 497.065 95.6178 496.409 95.9218C495.769 96.2098 495.449 96.6018 495.449 97.0978C495.449 97.8978 495.993 98.2978 497.081 98.2978C497.705 98.2978 498.249 98.1298 498.713 97.7938C499.193 97.4578 499.433 97.0418 499.433 96.5458V95.4658ZM507.569 100.986V83.5858H512.345V100.986H507.569ZM515.561 86.8258V83.5858H520.337V86.8258H515.561ZM515.561 100.986V88.3138H520.337V100.986H515.561ZM528.545 83.2978C528.897 83.2978 529.337 83.3458 529.865 83.4418C530.393 83.5218 530.817 83.6178 531.137 83.7298V86.5378H530.033C529.521 86.5378 529.169 86.6338 528.977 86.8258C528.785 87.0178 528.689 87.3458 528.689 87.8098V88.3138H531.137V91.5538H528.689V100.986H523.913V91.5538H522.137V88.3138H523.913V87.7858C523.913 86.1538 524.313 85.0018 525.113 84.3298C525.913 83.6418 527.057 83.2978 528.545 83.2978ZM538.867 88.0258C541.091 88.0258 542.835 88.5938 544.099 89.7298C545.379 90.8498 546.019 92.4898 546.019 94.6498C546.019 96.8098 545.379 98.4578 544.099 99.5938C542.835 100.714 541.091 101.274 538.867 101.274C536.643 101.274 534.899 100.714 533.635 99.5938C532.371 98.4738 531.739 96.8258 531.739 94.6498C531.739 92.4738 532.371 90.8258 533.635 89.7058C534.899 88.5858 536.643 88.0258 538.867 88.0258ZM538.867 91.2658C537.299 91.2658 536.515 92.1698 536.515 93.9778V95.3458C536.515 97.1378 537.299 98.0338 538.867 98.0338C540.451 98.0338 541.243 97.1378 541.243 95.3458V93.9778C541.243 92.1698 540.451 91.2658 538.867 91.2658ZM556.027 88.0018C556.395 88.0018 556.723 88.0498 557.011 88.1458C557.299 88.2258 557.443 88.2738 557.443 88.2898V92.2978H555.907C554.915 92.2978 554.195 92.5538 553.747 93.0658C553.315 93.5778 553.099 94.3378 553.099 95.3458V100.986H548.323V88.3138H552.235L552.547 90.2338C552.835 89.4978 553.291 88.9458 553.915 88.5778C554.539 88.1938 555.243 88.0018 556.027 88.0018ZM568.918 88.0258C570.39 88.0258 571.494 88.4338 572.23 89.2498C572.966 90.0658 573.334 91.2418 573.334 92.7778V100.986H568.558V93.3538C568.558 92.8098 568.414 92.3778 568.126 92.0578C567.854 91.7218 567.462 91.5538 566.95 91.5538C566.358 91.5538 565.878 91.7458 565.51 92.1298C565.142 92.5138 564.958 92.9858 564.958 93.5458V100.986H560.182V88.3138H564.094L564.406 90.2338C564.902 89.5618 565.55 89.0258 566.35 88.6258C567.166 88.2258 568.022 88.0258 568.918 88.0258ZM576.358 86.8258V83.5858H581.134V86.8258H576.358ZM576.358 100.986V88.3138H581.134V100.986H576.358ZM590.446 88.0258C592.382 88.0258 593.958 88.3538 595.174 89.0098C596.39 89.6498 596.998 90.6978 596.998 92.1538V97.0978C596.998 97.3698 597.062 97.5938 597.19 97.7698C597.318 97.9458 597.51 98.0338 597.766 98.0338H598.63V100.794C598.582 100.826 598.454 100.882 598.246 100.962C598.054 101.026 597.774 101.09 597.406 101.154C597.038 101.234 596.614 101.274 596.134 101.274C595.206 101.274 594.438 101.138 593.83 100.866C593.238 100.578 592.83 100.186 592.606 99.6898C591.998 100.17 591.318 100.554 590.566 100.842C589.814 101.13 588.934 101.274 587.926 101.274C584.95 101.274 583.462 100.09 583.462 97.7218C583.462 96.4898 583.79 95.5538 584.446 94.9138C585.118 94.2578 586.078 93.8098 587.326 93.5698C588.574 93.3298 590.206 93.2098 592.222 93.2098V92.5858C592.222 92.0898 592.046 91.7138 591.694 91.4578C591.358 91.2018 590.918 91.0738 590.374 91.0738C589.878 91.0738 589.446 91.1618 589.078 91.3378C588.726 91.5138 588.55 91.7938 588.55 92.1778V92.2738H583.846C583.83 92.1938 583.822 92.0818 583.822 91.9378C583.822 90.7378 584.39 89.7858 585.526 89.0818C586.678 88.3778 588.318 88.0258 590.446 88.0258ZM592.222 95.4658C590.862 95.4658 589.854 95.6178 589.198 95.9218C588.558 96.2098 588.238 96.6018 588.238 97.0978C588.238 97.8978 588.782 98.2978 589.87 98.2978C590.494 98.2978 591.038 98.1298 591.502 97.7938C591.982 97.4578 592.222 97.0418 592.222 96.5458V95.4658ZM602.782 105.378H600.19L602.158 100.986H600.214V96.2098H605.302V100.722L602.782 105.378ZM627.574 100.986L626.878 98.6578H621.094L620.398 100.986H614.974L620.998 84.4738H627.166L633.19 100.986H627.574ZM622.198 94.9618H625.774L624.046 89.0818H623.95L622.198 94.9618ZM642.558 88.0018C642.926 88.0018 643.254 88.0498 643.542 88.1458C643.83 88.2258 643.974 88.2738 643.974 88.2898V92.2978H642.438C641.446 92.2978 640.726 92.5538 640.278 93.0658C639.846 93.5778 639.63 94.3378 639.63 95.3458V100.986H634.854V88.3138H638.766L639.078 90.2338C639.366 89.4978 639.822 88.9458 640.446 88.5778C641.07 88.1938 641.774 88.0018 642.558 88.0018ZM645.686 86.8258V83.5858H650.462V86.8258H645.686ZM645.686 100.986V88.3138H650.462V100.986H645.686ZM659.318 97.7458H664.91V100.986H652.55V99.4258L657.878 91.5538H652.838V88.3138H664.694V89.8018L659.318 97.7458ZM673.164 88.0258C675.388 88.0258 677.132 88.5938 678.396 89.7298C679.676 90.8498 680.316 92.4898 680.316 94.6498C680.316 96.8098 679.676 98.4578 678.396 99.5938C677.132 100.714 675.388 101.274 673.164 101.274C670.94 101.274 669.196 100.714 667.932 99.5938C666.668 98.4738 666.036 96.8258 666.036 94.6498C666.036 92.4738 666.668 90.8258 667.932 89.7058C669.196 88.5858 670.94 88.0258 673.164 88.0258ZM673.164 91.2658C671.596 91.2658 670.812 92.1698 670.812 93.9778V95.3458C670.812 97.1378 671.596 98.0338 673.164 98.0338C674.748 98.0338 675.54 97.1378 675.54 95.3458V93.9778C675.54 92.1698 674.748 91.2658 673.164 91.2658ZM691.356 88.0258C692.828 88.0258 693.932 88.4338 694.668 89.2498C695.404 90.0658 695.772 91.2418 695.772 92.7778V100.986H690.996V93.3538C690.996 92.8098 690.852 92.3778 690.564 92.0578C690.292 91.7218 689.9 91.5538 689.388 91.5538C688.796 91.5538 688.316 91.7458 687.948 92.1298C687.58 92.5138 687.396 92.9858 687.396 93.5458V100.986H682.62V88.3138H686.532L686.844 90.2338C687.34 89.5618 687.988 89.0258 688.788 88.6258C689.604 88.2258 690.46 88.0258 691.356 88.0258ZM704.892 88.0258C706.828 88.0258 708.404 88.3538 709.62 89.0098C710.836 89.6498 711.444 90.6978 711.444 92.1538V97.0978C711.444 97.3698 711.508 97.5938 711.636 97.7698C711.764 97.9458 711.956 98.0338 712.212 98.0338H713.076V100.794C713.028 100.826 712.9 100.882 712.692 100.962C712.5 101.026 712.22 101.09 711.852 101.154C711.484 101.234 711.06 101.274 710.58 101.274C709.652 101.274 708.884 101.138 708.276 100.866C707.684 100.578 707.276 100.186 707.052 99.6898C706.444 100.17 705.764 100.554 705.012 100.842C704.26 101.13 703.38 101.274 702.372 101.274C699.396 101.274 697.908 100.09 697.908 97.7218C697.908 96.4898 698.236 95.5538 698.892 94.9138C699.564 94.2578 700.524 93.8098 701.772 93.5698C703.02 93.3298 704.652 93.2098 706.668 93.2098V92.5858C706.668 92.0898 706.492 91.7138 706.14 91.4578C705.804 91.2018 705.364 91.0738 704.82 91.0738C704.324 91.0738 703.891 91.1618 703.523 91.3378C703.172 91.5138 702.996 91.7938 702.996 92.1778V92.2738H698.292C698.276 92.1938 698.268 92.0818 698.268 91.9378C698.268 90.7378 698.836 89.7858 699.972 89.0818C701.124 88.3778 702.764 88.0258 704.892 88.0258ZM706.668 95.4658C705.308 95.4658 704.3 95.6178 703.644 95.9218C703.004 96.2098 702.684 96.6018 702.684 97.0978C702.684 97.8978 703.228 98.2978 704.316 98.2978C704.94 98.2978 705.484 98.1298 705.948 97.7938C706.428 97.4578 706.668 97.0418 706.668 96.5458V95.4658ZM731.196 84.1858C732.828 84.1858 734.244 84.3858 735.444 84.7858C736.644 85.1858 737.564 85.7298 738.204 86.4178C738.844 87.1058 739.164 87.8658 739.164 88.6978V89.2978H734.916C734.916 88.8018 734.62 88.3938 734.028 88.0738C733.452 87.7378 732.612 87.5698 731.508 87.5698C730.484 87.5698 729.7 87.7698 729.156 88.1698C728.628 88.5538 728.364 89.0258 728.364 89.5858C728.364 90.0818 728.524 90.4578 728.844 90.7138C729.18 90.9698 729.588 91.0978 730.068 91.0978H732.564V94.0498H729.54C729.044 94.0498 728.636 94.2018 728.316 94.5058C728.012 94.7938 727.86 95.2178 727.86 95.7778C727.86 96.4338 728.132 96.9538 728.676 97.3378C729.236 97.7058 730.116 97.8898 731.316 97.8898C733.716 97.8898 734.916 97.1778 734.916 95.7538V91.0978H742.5V94.0498H739.212V95.6578C739.212 97.4498 738.572 98.8338 737.292 99.8098C736.028 100.786 734.044 101.274 731.34 101.274C728.556 101.274 726.468 100.826 725.076 99.9298C723.684 99.0338 722.988 97.8498 722.988 96.3778C722.988 95.4178 723.236 94.5938 723.732 93.9058C724.244 93.2018 724.956 92.7058 725.868 92.4178V92.3218C725.18 92.0658 724.604 91.6258 724.14 91.0018C723.692 90.3778 723.468 89.6818 723.468 88.9138C723.468 88.0498 723.756 87.2578 724.332 86.5378C724.924 85.8178 725.804 85.2498 726.972 84.8338C728.14 84.4018 729.548 84.1858 731.196 84.1858ZM759.436 84.4738C765.212 84.4738 768.1 87.2258 768.1 92.7298C768.1 98.2338 765.212 100.986 759.436 100.986H752.284V84.4738H759.436ZM757.588 97.0258H759.34C761.564 97.0258 762.676 95.8338 762.676 93.4498V92.0098C762.676 89.6258 761.564 88.4338 759.34 88.4338H757.588V97.0258ZM777.18 88.0258C779.5 88.0258 781.268 88.5698 782.484 89.6578C783.716 90.7458 784.332 92.4098 784.332 94.6498V95.4658H774.828C774.828 96.3778 775.028 97.0658 775.428 97.5298C775.844 97.9938 776.492 98.2258 777.372 98.2258C778.172 98.2258 778.756 98.0578 779.124 97.7218C779.508 97.3858 779.7 96.9378 779.7 96.3778H784.332C784.332 97.9138 783.748 99.1138 782.58 99.9778C781.412 100.842 779.708 101.274 777.468 101.274C775.116 101.274 773.292 100.73 771.996 99.6418C770.7 98.5378 770.052 96.8738 770.052 94.6498C770.052 92.4738 770.684 90.8258 771.948 89.7058C773.212 88.5858 774.956 88.0258 777.18 88.0258ZM777.372 91.0738C775.868 91.0738 775.028 91.7858 774.852 93.2098H779.508C779.508 92.5538 779.316 92.0338 778.932 91.6498C778.564 91.2658 778.044 91.0738 777.372 91.0738ZM786.803 100.986V83.5858H791.579V100.986H786.803ZM800.892 88.0258C802.828 88.0258 804.404 88.3538 805.62 89.0098C806.836 89.6498 807.444 90.6978 807.444 92.1538V97.0978C807.444 97.3698 807.508 97.5938 807.636 97.7698C807.764 97.9458 807.956 98.0338 808.212 98.0338H809.076V100.794C809.028 100.826 808.9 100.882 808.692 100.962C808.5 101.026 808.22 101.09 807.852 101.154C807.484 101.234 807.06 101.274 806.58 101.274C805.652 101.274 804.884 101.138 804.276 100.866C803.684 100.578 803.276 100.186 803.052 99.6898C802.444 100.17 801.764 100.554 801.012 100.842C800.26 101.13 799.38 101.274 798.372 101.274C795.396 101.274 793.908 100.09 793.908 97.7218C793.908 96.4898 794.236 95.5538 794.892 94.9138C795.564 94.2578 796.524 93.8098 797.772 93.5698C799.02 93.3298 800.652 93.2098 802.668 93.2098V92.5858C802.668 92.0898 802.492 91.7138 802.14 91.4578C801.804 91.2018 801.364 91.0738 800.82 91.0738C800.324 91.0738 799.891 91.1618 799.523 91.3378C799.172 91.5138 798.996 91.7938 798.996 92.1778V92.2738H794.292C794.276 92.1938 794.268 92.0818 794.268 91.9378C794.268 90.7378 794.836 89.7858 795.972 89.0818C797.124 88.3778 798.764 88.0258 800.892 88.0258ZM802.668 95.4658C801.308 95.4658 800.3 95.6178 799.644 95.9218C799.004 96.2098 798.684 96.6018 798.684 97.0978C798.684 97.8978 799.228 98.2978 800.316 98.2978C800.94 98.2978 801.484 98.1298 801.948 97.7938C802.428 97.4578 802.668 97.0418 802.668 96.5458V95.4658ZM822.539 100.986L820.571 93.9298H820.475L818.483 100.986H813.827L809.195 88.3138H814.331L816.251 95.8018H816.419L818.411 88.3138H823.163L825.083 95.8018H825.251L827.195 88.3138H831.851L827.195 100.986H822.539ZM839.306 88.0258C841.242 88.0258 842.818 88.3538 844.034 89.0098C845.25 89.6498 845.858 90.6978 845.858 92.1538V97.0978C845.858 97.3698 845.922 97.5938 846.05 97.7698C846.178 97.9458 846.37 98.0338 846.626 98.0338H847.49V100.794C847.442 100.826 847.314 100.882 847.106 100.962C846.914 101.026 846.634 101.09 846.266 101.154C845.898 101.234 845.474 101.274 844.994 101.274C844.066 101.274 843.298 101.138 842.69 100.866C842.098 100.578 841.69 100.186 841.466 99.6898C840.858 100.17 840.178 100.554 839.426 100.842C838.674 101.13 837.794 101.274 836.786 101.274C833.81 101.274 832.322 100.09 832.322 97.7218C832.322 96.4898 832.65 95.5538 833.306 94.9138C833.978 94.2578 834.938 93.8098 836.186 93.5698C837.434 93.3298 839.066 93.2098 841.082 93.2098V92.5858C841.082 92.0898 840.906 91.7138 840.554 91.4578C840.218 91.2018 839.778 91.0738 839.234 91.0738C838.738 91.0738 838.306 91.1618 837.938 91.3378C837.586 91.5138 837.41 91.7938 837.41 92.1778V92.2738H832.706C832.69 92.1938 832.682 92.0818 832.682 91.9378C832.682 90.7378 833.25 89.7858 834.386 89.0818C835.538 88.3778 837.178 88.0258 839.306 88.0258ZM841.082 95.4658C839.722 95.4658 838.714 95.6178 838.058 95.9218C837.418 96.2098 837.098 96.6018 837.098 97.0978C837.098 97.8978 837.642 98.2978 838.73 98.2978C839.354 98.2978 839.898 98.1298 840.362 97.7938C840.842 97.4578 841.082 97.0418 841.082 96.5458V95.4658ZM856.753 88.0018C857.121 88.0018 857.449 88.0498 857.737 88.1458C858.025 88.2258 858.169 88.2738 858.169 88.2898V92.2978H856.633C855.641 92.2978 854.921 92.5538 854.473 93.0658C854.041 93.5778 853.825 94.3378 853.825 95.3458V100.986H849.049V88.3138H852.961L853.273 90.2338C853.561 89.4978 854.017 88.9458 854.641 88.5778C855.265 88.1938 855.969 88.0018 856.753 88.0018ZM866.64 88.0258C868.96 88.0258 870.728 88.5698 871.944 89.6578C873.176 90.7458 873.792 92.4098 873.792 94.6498V95.4658H864.288C864.288 96.3778 864.488 97.0658 864.888 97.5298C865.304 97.9938 865.952 98.2258 866.832 98.2258C867.632 98.2258 868.216 98.0578 868.584 97.7218C868.968 97.3858 869.16 96.9378 869.16 96.3778H873.792C873.792 97.9138 873.208 99.1138 872.04 99.9778C870.872 100.842 869.168 101.274 866.928 101.274C864.576 101.274 862.752 100.73 861.456 99.6418C860.16 98.5378 859.512 96.8738 859.512 94.6498C859.512 92.4738 860.144 90.8258 861.408 89.7058C862.672 88.5858 864.416 88.0258 866.64 88.0258ZM866.832 91.0738C865.328 91.0738 864.488 91.7858 864.312 93.2098H868.968C868.968 92.5538 868.776 92.0338 868.392 91.6498C868.024 91.2658 867.504 91.0738 866.832 91.0738ZM878.352 83.2978C879.728 84.7698 880.792 86.4418 881.544 88.3138C882.296 90.1858 882.672 92.1058 882.672 94.0738C882.672 96.0258 882.296 97.9378 881.544 99.8098C880.792 101.682 879.728 103.354 878.352 104.826H875.472C876.416 103.354 877.184 101.626 877.776 99.6418C878.368 97.6418 878.664 95.7858 878.664 94.0738C878.664 92.3778 878.368 90.5298 877.776 88.5298C877.184 86.5138 876.416 84.7698 875.472 83.2978H878.352Z" fill="white"/>
<g filter="url(#filter2_d_1056_1234)">
<rect width="132.808" height="404.73" rx="4" transform="matrix(0 -1 -1 0 698.014 305.95)" fill="#1A75BB"/>
</g>
<path d="M342.979 230.963L335.659 210.323H342.739L346.879 224.123H346.999L351.169 210.323H357.949L350.659 230.963H342.979ZM361.019 230.963V210.323H367.649V230.963H361.019ZM391.969 216.653C391.969 217.913 391.629 219.053 390.949 220.073C390.269 221.093 389.279 221.843 387.979 222.323L392.569 230.963H385.129L381.469 223.433H379.009V230.963H372.379V210.323H385.009C386.489 210.323 387.749 210.613 388.789 211.193C389.849 211.753 390.639 212.523 391.159 213.503C391.699 214.463 391.969 215.513 391.969 216.653ZM385.219 216.923C385.219 216.383 385.039 215.933 384.679 215.573C384.319 215.213 383.879 215.033 383.359 215.033H379.009V218.843H383.359C383.879 218.843 384.319 218.663 384.679 218.303C385.039 217.923 385.219 217.463 385.219 216.923ZM415.559 209.963C418.619 209.963 421.039 210.733 422.819 212.273C424.599 213.793 425.489 215.973 425.489 218.813H419.159C419.159 217.613 418.839 216.663 418.199 215.963C417.579 215.263 416.689 214.913 415.529 214.913C414.189 214.913 413.199 215.333 412.559 216.173C411.939 217.013 411.629 218.183 411.629 219.683V221.603C411.629 223.083 411.939 224.253 412.559 225.113C413.199 225.953 414.169 226.373 415.469 226.373C416.749 226.373 417.719 226.043 418.379 225.383C419.039 224.723 419.369 223.793 419.369 222.593H425.489C425.489 225.413 424.619 227.573 422.879 229.073C421.159 230.573 418.719 231.323 415.559 231.323C412.039 231.323 409.369 230.423 407.549 228.623C405.749 226.823 404.849 224.163 404.849 220.643C404.849 217.123 405.749 214.463 407.549 212.663C409.369 210.863 412.039 209.963 415.559 209.963ZM436.838 214.763C439.618 214.763 441.798 215.473 443.378 216.893C444.978 218.293 445.778 220.343 445.778 223.043C445.778 225.743 444.978 227.803 443.378 229.223C441.798 230.623 439.618 231.323 436.838 231.323C434.058 231.323 431.878 230.623 430.298 229.223C428.718 227.823 427.928 225.763 427.928 223.043C427.928 220.323 428.718 218.263 430.298 216.863C431.878 215.463 434.058 214.763 436.838 214.763ZM436.838 218.813C434.878 218.813 433.898 219.943 433.898 222.203V223.913C433.898 226.153 434.878 227.273 436.838 227.273C438.818 227.273 439.808 226.153 439.808 223.913V222.203C439.808 219.943 438.818 218.813 436.838 218.813ZM459.578 214.763C461.418 214.763 462.798 215.273 463.718 216.293C464.638 217.313 465.098 218.783 465.098 220.703V230.963H459.128V221.423C459.128 220.743 458.948 220.203 458.588 219.803C458.248 219.383 457.758 219.173 457.118 219.173C456.378 219.173 455.778 219.413 455.318 219.893C454.858 220.373 454.628 220.963 454.628 221.663V230.963H448.658V215.123H453.548L453.938 217.523C454.558 216.683 455.368 216.013 456.368 215.513C457.388 215.013 458.458 214.763 459.578 214.763ZM476.198 214.763C478.318 214.763 480.108 215.183 481.568 216.023C483.048 216.843 483.788 218.123 483.788 219.863H478.238C478.238 219.283 477.978 218.873 477.458 218.633C477.098 218.433 476.648 218.333 476.108 218.333C474.668 218.333 473.948 218.673 473.948 219.353C473.948 219.733 474.198 220.003 474.698 220.163C475.198 220.323 476.018 220.493 477.158 220.673C478.558 220.873 479.728 221.113 480.668 221.393C481.608 221.653 482.428 222.133 483.128 222.833C483.828 223.513 484.178 224.473 484.178 225.713C484.178 227.733 483.418 229.173 481.898 230.033C480.398 230.893 478.428 231.323 475.988 231.323C474.588 231.323 473.268 231.133 472.028 230.753C470.788 230.353 469.778 229.743 468.998 228.923C468.218 228.103 467.828 227.063 467.828 225.803H473.378V225.923C473.398 226.603 473.678 227.083 474.218 227.363C474.778 227.623 475.368 227.753 475.988 227.753C477.648 227.753 478.478 227.363 478.478 226.583C478.478 226.183 478.218 225.893 477.698 225.713C477.178 225.533 476.328 225.343 475.148 225.143C473.728 224.903 472.558 224.643 471.638 224.363C470.738 224.083 469.948 223.613 469.268 222.953C468.588 222.273 468.248 221.333 468.248 220.133C468.248 218.193 468.978 216.813 470.438 215.993C471.918 215.173 473.838 214.763 476.198 214.763ZM498.498 230.963L498.108 228.563C497.488 229.423 496.668 230.103 495.648 230.603C494.648 231.083 493.588 231.323 492.468 231.323C490.628 231.323 489.248 230.813 488.328 229.793C487.408 228.773 486.948 227.303 486.948 225.383V215.123H492.918V224.663C492.918 225.343 493.088 225.893 493.428 226.313C493.788 226.713 494.288 226.913 494.928 226.913C495.668 226.913 496.268 226.673 496.728 226.193C497.188 225.713 497.418 225.123 497.418 224.423V215.123H503.388V230.963H498.498ZM507.227 230.963V209.213H513.197V230.963H507.227ZM527.568 215.123V219.173H524.208V225.203C524.208 225.923 524.328 226.453 524.568 226.793C524.808 227.113 525.248 227.273 525.888 227.273H527.568V230.783C527.088 230.943 526.468 231.073 525.708 231.173C524.948 231.273 524.288 231.323 523.728 231.323C521.968 231.323 520.608 231.003 519.648 230.363C518.708 229.723 518.238 228.633 518.238 227.093V219.173H516.018V215.123H518.478L519.768 210.323H524.208V215.123H527.568ZM538.168 214.763C540.588 214.763 542.558 215.173 544.078 215.993C545.598 216.793 546.358 218.103 546.358 219.923V226.103C546.358 226.443 546.438 226.723 546.598 226.943C546.758 227.163 546.998 227.273 547.318 227.273H548.398V230.723C548.338 230.763 548.178 230.833 547.918 230.933C547.678 231.013 547.328 231.093 546.868 231.173C546.408 231.273 545.878 231.323 545.278 231.323C544.118 231.323 543.158 231.153 542.398 230.813C541.658 230.453 541.148 229.963 540.868 229.343C540.108 229.943 539.258 230.423 538.318 230.783C537.378 231.143 536.278 231.323 535.018 231.323C531.298 231.323 529.438 229.843 529.438 226.883C529.438 225.343 529.848 224.173 530.668 223.373C531.508 222.553 532.708 221.993 534.268 221.693C535.828 221.393 537.868 221.243 540.388 221.243V220.463C540.388 219.843 540.168 219.373 539.728 219.053C539.308 218.733 538.758 218.573 538.078 218.573C537.458 218.573 536.918 218.683 536.458 218.903C536.018 219.123 535.798 219.473 535.798 219.953V220.073H529.918C529.898 219.973 529.888 219.833 529.888 219.653C529.888 218.153 530.598 216.963 532.018 216.083C533.458 215.203 535.508 214.763 538.168 214.763ZM540.388 224.063C538.688 224.063 537.428 224.253 536.608 224.633C535.808 224.993 535.408 225.483 535.408 226.103C535.408 227.103 536.088 227.603 537.448 227.603C538.228 227.603 538.908 227.393 539.488 226.973C540.088 226.553 540.388 226.033 540.388 225.413V224.063ZM561.267 214.763C563.107 214.763 564.487 215.273 565.407 216.293C566.327 217.313 566.787 218.783 566.787 220.703V230.963H560.817V221.423C560.817 220.743 560.637 220.203 560.277 219.803C559.937 219.383 559.447 219.173 558.807 219.173C558.067 219.173 557.467 219.413 557.007 219.893C556.547 220.373 556.317 220.963 556.317 221.663V230.963H550.347V215.123H555.237L555.627 217.523C556.247 216.683 557.057 216.013 558.057 215.513C559.077 215.013 560.147 214.763 561.267 214.763ZM580.917 215.123V219.173H577.557V225.203C577.557 225.923 577.677 226.453 577.917 226.793C578.157 227.113 578.597 227.273 579.237 227.273H580.917V230.783C580.437 230.943 579.817 231.073 579.057 231.173C578.297 231.273 577.637 231.323 577.077 231.323C575.317 231.323 573.957 231.003 572.997 230.363C572.057 229.723 571.587 228.633 571.587 227.093V219.173H569.367V215.123H571.827L573.117 210.323H577.557V215.123H580.917ZM594.097 210.323H600.727V225.683H611.317V230.963H594.097V210.323ZM624.247 215.123V219.173H620.887V225.203C620.887 225.923 621.007 226.453 621.247 226.793C621.487 227.113 621.927 227.273 622.567 227.273H624.247V230.783C623.767 230.943 623.147 231.073 622.387 231.173C621.627 231.273 620.967 231.323 620.407 231.323C618.647 231.323 617.287 231.003 616.327 230.363C615.387 229.723 614.917 228.633 614.917 227.093V219.173H612.697V215.123H615.157L616.447 210.323H620.887V215.123H624.247ZM638.537 230.963L638.027 228.713C636.867 230.453 635.187 231.323 632.987 231.323C630.847 231.323 629.197 230.623 628.037 229.223C626.877 227.823 626.297 225.753 626.297 223.013C626.297 220.293 626.877 218.243 628.037 216.863C629.197 215.463 630.847 214.763 632.987 214.763C634.807 214.763 636.287 215.373 637.427 216.593V209.213H643.397V230.963H638.537ZM634.847 219.173C633.127 219.173 632.267 220.203 632.267 222.263V223.853C632.267 225.893 633.127 226.913 634.847 226.913C635.727 226.913 636.387 226.603 636.827 225.983C637.267 225.363 637.487 224.553 637.487 223.553V222.563C637.487 221.563 637.267 220.753 636.827 220.133C636.387 219.493 635.727 219.173 634.847 219.173ZM647.057 230.963V224.993H653.417V230.963H647.057Z" fill="white"/>
<path d="M414.669 256.44C413.725 257.912 412.957 259.656 412.365 261.672C411.773 263.672 411.477 265.52 411.477 267.216C411.477 268.928 411.773 270.784 412.365 272.784C412.957 274.768 413.725 276.496 414.669 277.968H411.789C410.413 276.496 409.349 274.824 408.597 272.952C407.845 271.08 407.469 269.168 407.469 267.216C407.469 265.248 407.845 263.328 408.597 261.456C409.349 259.584 410.413 257.912 411.789 256.44H414.669ZM433.693 267.48C433.693 269.736 432.981 271.456 431.557 272.64C430.133 273.824 428.109 274.416 425.485 274.416C422.861 274.416 420.829 273.824 419.389 272.64C417.965 271.456 417.253 269.736 417.253 267.48V257.616H422.557V267.408C422.557 268.336 422.805 269.08 423.301 269.64C423.797 270.184 424.517 270.456 425.461 270.456C426.405 270.456 427.125 270.176 427.621 269.616C428.133 269.056 428.389 268.32 428.389 267.408V257.616H433.693V267.48ZM448.429 257.616H455.005L449.077 264.408L455.125 274.128H448.861L445.429 268.08L442.549 270.432V274.128H437.245V257.616H442.549V264.672L448.429 257.616ZM464.918 266.256V261.456H470.006V266.256H464.918ZM464.918 274.128V269.352H470.006V274.128H464.918ZM481.214 257.616H486.518V269.904H494.99V274.128H481.214V257.616ZM503.438 261.168C505.662 261.168 507.406 261.736 508.67 262.872C509.95 263.992 510.59 265.632 510.59 267.792C510.59 269.952 509.95 271.6 508.67 272.736C507.406 273.856 505.662 274.416 503.438 274.416C501.214 274.416 499.47 273.856 498.206 272.736C496.942 271.616 496.31 269.968 496.31 267.792C496.31 265.616 496.942 263.968 498.206 262.848C499.47 261.728 501.214 261.168 503.438 261.168ZM503.438 264.408C501.87 264.408 501.086 265.312 501.086 267.12V268.488C501.086 270.28 501.87 271.176 503.438 271.176C505.022 271.176 505.814 270.28 505.814 268.488V267.12C505.814 265.312 505.022 264.408 503.438 264.408ZM521.63 261.168C523.102 261.168 524.206 261.576 524.942 262.392C525.678 263.208 526.046 264.384 526.046 265.92V274.128H521.27V266.496C521.27 265.952 521.126 265.52 520.838 265.2C520.566 264.864 520.174 264.696 519.662 264.696C519.07 264.696 518.59 264.888 518.222 265.272C517.854 265.656 517.67 266.128 517.67 266.688V274.128H512.894V261.456H516.806L517.118 263.376C517.614 262.704 518.262 262.168 519.062 261.768C519.878 261.368 520.734 261.168 521.63 261.168ZM538.117 274.128L537.709 272.328C536.781 273.72 535.437 274.416 533.677 274.416C531.965 274.416 530.645 273.856 529.717 272.736C528.789 271.616 528.325 269.96 528.325 267.768C528.325 265.592 528.789 263.952 529.717 262.848C530.645 261.728 531.965 261.168 533.677 261.168C535.133 261.168 536.317 261.656 537.229 262.632V256.728H542.005V274.128H538.117ZM535.165 264.696C533.789 264.696 533.101 265.52 533.101 267.168V268.44C533.101 270.072 533.789 270.888 535.165 270.888C535.869 270.888 536.397 270.64 536.749 270.144C537.101 269.648 537.277 269 537.277 268.2V267.408C537.277 266.608 537.101 265.96 536.749 265.464C536.397 264.952 535.869 264.696 535.165 264.696ZM551.461 261.168C553.685 261.168 555.429 261.736 556.693 262.872C557.973 263.992 558.613 265.632 558.613 267.792C558.613 269.952 557.973 271.6 556.693 272.736C555.429 273.856 553.685 274.416 551.461 274.416C549.237 274.416 547.493 273.856 546.229 272.736C544.965 271.616 544.333 269.968 544.333 267.792C544.333 265.616 544.965 263.968 546.229 262.848C547.493 261.728 549.237 261.168 551.461 261.168ZM551.461 264.408C549.893 264.408 549.109 265.312 549.109 267.12V268.488C549.109 270.28 549.893 271.176 551.461 271.176C553.045 271.176 553.837 270.28 553.837 268.488V267.12C553.837 265.312 553.045 264.408 551.461 264.408ZM569.653 261.168C571.125 261.168 572.229 261.576 572.965 262.392C573.701 263.208 574.069 264.384 574.069 265.92V274.128H569.293V266.496C569.293 265.952 569.149 265.52 568.861 265.2C568.589 264.864 568.197 264.696 567.685 264.696C567.093 264.696 566.613 264.888 566.245 265.272C565.877 265.656 565.693 266.128 565.693 266.688V274.128H560.917V261.456H564.829L565.141 263.376C565.637 262.704 566.285 262.168 567.085 261.768C567.901 261.368 568.757 261.168 569.653 261.168ZM579.181 256.44C580.557 257.912 581.621 259.584 582.373 261.456C583.125 263.328 583.501 265.248 583.501 267.216C583.501 269.168 583.125 271.08 582.373 272.952C581.621 274.824 580.557 276.496 579.181 277.968H576.301C577.245 276.496 578.013 274.768 578.605 272.784C579.197 270.784 579.493 268.928 579.493 267.216C579.493 265.52 579.197 263.672 578.605 261.672C578.013 259.656 577.245 257.912 576.301 256.44H579.181Z" fill="white"/>
<g filter="url(#filter3_d_1056_1234)">
<rect width="132.808" height="454.442" rx="4" transform="matrix(0 -1 -1 0 746.077 479.09)" fill="#1A75BB"/>
</g>
<path d="M403.185 402.104L395.865 381.464H402.945L407.085 395.264H407.205L411.375 381.464H418.155L410.865 402.104H403.185ZM421.225 402.104V381.464H427.855V402.104H421.225ZM452.175 387.794C452.175 389.054 451.835 390.194 451.155 391.214C450.475 392.234 449.485 392.984 448.185 393.464L452.775 402.104H445.335L441.675 394.574H439.215V402.104H432.585V381.464H445.215C446.695 381.464 447.955 381.754 448.995 382.334C450.055 382.894 450.845 383.664 451.365 384.644C451.905 385.604 452.175 386.654 452.175 387.794ZM445.425 388.064C445.425 387.524 445.245 387.074 444.885 386.714C444.525 386.354 444.085 386.174 443.565 386.174H439.215V389.984H443.565C444.085 389.984 444.525 389.804 444.885 389.444C445.245 389.064 445.425 388.604 445.425 388.064ZM475.765 381.104C478.825 381.104 481.245 381.874 483.025 383.414C484.805 384.934 485.695 387.114 485.695 389.954H479.365C479.365 388.754 479.045 387.804 478.405 387.104C477.785 386.404 476.895 386.054 475.735 386.054C474.395 386.054 473.405 386.474 472.765 387.314C472.145 388.154 471.835 389.324 471.835 390.824V392.744C471.835 394.224 472.145 395.394 472.765 396.254C473.405 397.094 474.375 397.514 475.675 397.514C476.955 397.514 477.925 397.184 478.585 396.524C479.245 395.864 479.575 394.934 479.575 393.734H485.695C485.695 396.554 484.825 398.714 483.085 400.214C481.365 401.714 478.925 402.464 475.765 402.464C472.245 402.464 469.575 401.564 467.755 399.764C465.955 397.964 465.055 395.304 465.055 391.784C465.055 388.264 465.955 385.604 467.755 383.804C469.575 382.004 472.245 381.104 475.765 381.104ZM497.045 385.904C499.825 385.904 502.005 386.614 503.585 388.034C505.185 389.434 505.985 391.484 505.985 394.184C505.985 396.884 505.185 398.944 503.585 400.364C502.005 401.764 499.825 402.464 497.045 402.464C494.265 402.464 492.085 401.764 490.505 400.364C488.925 398.964 488.135 396.904 488.135 394.184C488.135 391.464 488.925 389.404 490.505 388.004C492.085 386.604 494.265 385.904 497.045 385.904ZM497.045 389.954C495.085 389.954 494.105 391.084 494.105 393.344V395.054C494.105 397.294 495.085 398.414 497.045 398.414C499.025 398.414 500.015 397.294 500.015 395.054V393.344C500.015 391.084 499.025 389.954 497.045 389.954ZM519.784 385.904C521.624 385.904 523.004 386.414 523.924 387.434C524.844 388.454 525.304 389.924 525.304 391.844V402.104H519.334V392.564C519.334 391.884 519.154 391.344 518.794 390.944C518.454 390.524 517.964 390.314 517.324 390.314C516.584 390.314 515.984 390.554 515.524 391.034C515.064 391.514 514.834 392.104 514.834 392.804V402.104H508.864V386.264H513.754L514.144 388.664C514.764 387.824 515.574 387.154 516.574 386.654C517.594 386.154 518.664 385.904 519.784 385.904ZM536.404 385.904C538.524 385.904 540.314 386.324 541.774 387.164C543.254 387.984 543.994 389.264 543.994 391.004H538.444C538.444 390.424 538.184 390.014 537.664 389.774C537.304 389.574 536.854 389.474 536.314 389.474C534.874 389.474 534.154 389.814 534.154 390.494C534.154 390.874 534.404 391.144 534.904 391.304C535.404 391.464 536.224 391.634 537.364 391.814C538.764 392.014 539.934 392.254 540.874 392.534C541.814 392.794 542.634 393.274 543.334 393.974C544.034 394.654 544.384 395.614 544.384 396.854C544.384 398.874 543.624 400.314 542.104 401.174C540.604 402.034 538.634 402.464 536.194 402.464C534.794 402.464 533.474 402.274 532.234 401.894C530.994 401.494 529.984 400.884 529.204 400.064C528.424 399.244 528.034 398.204 528.034 396.944H533.584V397.064C533.604 397.744 533.884 398.224 534.424 398.504C534.984 398.764 535.574 398.894 536.194 398.894C537.854 398.894 538.684 398.504 538.684 397.724C538.684 397.324 538.424 397.034 537.904 396.854C537.384 396.674 536.534 396.484 535.354 396.284C533.934 396.044 532.764 395.784 531.844 395.504C530.944 395.224 530.154 394.754 529.474 394.094C528.794 393.414 528.454 392.474 528.454 391.274C528.454 389.334 529.184 387.954 530.644 387.134C532.124 386.314 534.044 385.904 536.404 385.904ZM558.704 402.104L558.314 399.704C557.694 400.564 556.874 401.244 555.854 401.744C554.854 402.224 553.794 402.464 552.674 402.464C550.834 402.464 549.454 401.954 548.534 400.934C547.614 399.914 547.154 398.444 547.154 396.524V386.264H553.124V395.804C553.124 396.484 553.294 397.034 553.634 397.454C553.994 397.854 554.494 398.054 555.134 398.054C555.874 398.054 556.474 397.814 556.934 397.334C557.394 396.854 557.624 396.264 557.624 395.564V386.264H563.594V402.104H558.704ZM567.434 402.104V380.354H573.404V402.104H567.434ZM587.774 386.264V390.314H584.414V396.344C584.414 397.064 584.534 397.594 584.774 397.934C585.014 398.254 585.454 398.414 586.094 398.414H587.774V401.924C587.294 402.084 586.674 402.214 585.914 402.314C585.154 402.414 584.494 402.464 583.934 402.464C582.174 402.464 580.814 402.144 579.854 401.504C578.914 400.864 578.444 399.774 578.444 398.234V390.314H576.224V386.264H578.684L579.974 381.464H584.414V386.264H587.774ZM598.374 385.904C600.794 385.904 602.764 386.314 604.284 387.134C605.804 387.934 606.564 389.244 606.564 391.064V397.244C606.564 397.584 606.644 397.864 606.804 398.084C606.964 398.304 607.204 398.414 607.524 398.414H608.604V401.864C608.544 401.904 608.384 401.974 608.124 402.074C607.884 402.154 607.534 402.234 607.074 402.314C606.614 402.414 606.084 402.464 605.484 402.464C604.324 402.464 603.364 402.294 602.604 401.954C601.864 401.594 601.354 401.104 601.074 400.484C600.314 401.084 599.464 401.564 598.524 401.924C597.584 402.284 596.484 402.464 595.224 402.464C591.504 402.464 589.644 400.984 589.644 398.024C589.644 396.484 590.054 395.314 590.874 394.514C591.714 393.694 592.914 393.134 594.474 392.834C596.034 392.534 598.074 392.384 600.594 392.384V391.604C600.594 390.984 600.374 390.514 599.934 390.194C599.514 389.874 598.964 389.714 598.284 389.714C597.664 389.714 597.124 389.824 596.664 390.044C596.224 390.264 596.004 390.614 596.004 391.094V391.214H590.124C590.104 391.114 590.094 390.974 590.094 390.794C590.094 389.294 590.804 388.104 592.224 387.224C593.664 386.344 595.714 385.904 598.374 385.904ZM600.594 395.204C598.894 395.204 597.634 395.394 596.814 395.774C596.014 396.134 595.614 396.624 595.614 397.244C595.614 398.244 596.294 398.744 597.654 398.744C598.434 398.744 599.114 398.534 599.694 398.114C600.294 397.694 600.594 397.174 600.594 396.554V395.204ZM621.474 385.904C623.314 385.904 624.694 386.414 625.614 387.434C626.534 388.454 626.994 389.924 626.994 391.844V402.104H621.024V392.564C621.024 391.884 620.844 391.344 620.484 390.944C620.144 390.524 619.654 390.314 619.014 390.314C618.274 390.314 617.674 390.554 617.214 391.034C616.754 391.514 616.524 392.104 616.524 392.804V402.104H610.554V386.264H615.444L615.834 388.664C616.454 387.824 617.264 387.154 618.264 386.654C619.284 386.154 620.354 385.904 621.474 385.904ZM641.124 386.264V390.314H637.764V396.344C637.764 397.064 637.884 397.594 638.124 397.934C638.364 398.254 638.804 398.414 639.444 398.414H641.124V401.924C640.644 402.084 640.024 402.214 639.264 402.314C638.504 402.414 637.844 402.464 637.284 402.464C635.524 402.464 634.164 402.144 633.204 401.504C632.264 400.864 631.794 399.774 631.794 398.234V390.314H629.574V386.264H632.034L633.324 381.464H637.764V386.264H641.124Z" fill="white"/>
<path d="M335.875 427.58C334.931 429.052 334.163 430.796 333.571 432.812C332.979 434.812 332.683 436.66 332.683 438.356C332.683 440.068 332.979 441.924 333.571 443.924C334.163 445.908 334.931 447.636 335.875 449.108H332.995C331.619 447.636 330.555 445.964 329.803 444.092C329.051 442.22 328.675 440.308 328.675 438.356C328.675 436.388 329.051 434.468 329.803 432.596C330.555 430.724 331.619 429.052 332.995 427.58H335.875ZM338.46 428.756H343.764V441.044H352.236V445.268H338.46V428.756ZM365.531 445.268L364.835 442.94H359.051L358.355 445.268H352.931L358.955 428.756H365.123L371.147 445.268H365.531ZM360.155 439.244H363.731L362.003 433.364H361.907L360.155 439.244ZM380.987 432.98V445.268H375.683V432.98H370.259V428.756H386.387V432.98H380.987ZM398.227 445.268L397.531 442.94H391.747L391.051 445.268H385.627L391.651 428.756H397.819L403.843 445.268H398.227ZM392.851 439.244H396.427L394.699 433.364H394.603L392.851 439.244ZM420.026 445.268V439.316C420.026 438.58 420.05 437.828 420.098 437.06C420.162 436.276 420.226 435.62 420.29 435.092C420.354 434.564 420.394 434.228 420.41 434.084H420.314L417.266 445.268H413.114L410.042 434.108H409.946C409.962 434.252 410.002 434.588 410.066 435.116C410.146 435.628 410.218 436.276 410.282 437.06C410.346 437.828 410.378 438.58 410.378 439.316V445.268H405.506V428.756H412.994L415.49 438.284H415.586L418.058 428.756H425.282V445.268H420.026ZM436.187 437.396V432.596H441.275V437.396H436.187ZM436.187 445.268V440.492H441.275V445.268H436.187ZM466.667 445.268V439.316C466.667 438.58 466.691 437.828 466.739 437.06C466.803 436.276 466.867 435.62 466.931 435.092C466.995 434.564 467.035 434.228 467.051 434.084H466.955L463.907 445.268H459.755L456.683 434.108H456.587C456.603 434.252 456.643 434.588 456.707 435.116C456.787 435.628 456.859 436.276 456.923 437.06C456.987 437.828 457.019 438.58 457.019 439.316V445.268H452.147V428.756H459.635L462.131 438.284H462.227L464.699 428.756H471.923V445.268H466.667ZM481.363 432.308C483.683 432.308 485.451 432.852 486.667 433.94C487.899 435.028 488.515 436.692 488.515 438.932V439.748H479.011C479.011 440.66 479.211 441.348 479.611 441.812C480.027 442.276 480.675 442.508 481.555 442.508C482.355 442.508 482.939 442.34 483.307 442.004C483.691 441.668 483.883 441.22 483.883 440.66H488.515C488.515 442.196 487.931 443.396 486.763 444.26C485.595 445.124 483.891 445.556 481.651 445.556C479.299 445.556 477.475 445.012 476.179 443.924C474.883 442.82 474.235 441.156 474.235 438.932C474.235 436.756 474.867 435.108 476.131 433.988C477.395 432.868 479.139 432.308 481.363 432.308ZM481.555 435.356C480.051 435.356 479.211 436.068 479.035 437.492H483.691C483.691 436.836 483.499 436.316 483.115 435.932C482.747 435.548 482.227 435.356 481.555 435.356ZM500.035 445.268L499.627 443.468C498.699 444.86 497.355 445.556 495.595 445.556C493.883 445.556 492.563 444.996 491.635 443.876C490.707 442.756 490.243 441.1 490.243 438.908C490.243 436.732 490.707 435.092 491.635 433.988C492.563 432.868 493.883 432.308 495.595 432.308C497.051 432.308 498.235 432.796 499.147 433.772V427.868H503.923V445.268H500.035ZM497.083 435.836C495.707 435.836 495.019 436.66 495.019 438.308V439.58C495.019 441.212 495.707 442.028 497.083 442.028C497.787 442.028 498.315 441.78 498.667 441.284C499.019 440.788 499.195 440.14 499.195 439.34V438.548C499.195 437.748 499.019 437.1 498.667 436.604C498.315 436.092 497.787 435.836 497.083 435.836ZM513.379 432.308C515.699 432.308 517.467 432.852 518.683 433.94C519.915 435.028 520.531 436.692 520.531 438.932V439.748H511.027C511.027 440.66 511.227 441.348 511.627 441.812C512.043 442.276 512.691 442.508 513.571 442.508C514.371 442.508 514.955 442.34 515.323 442.004C515.707 441.668 515.899 441.22 515.899 440.66H520.531C520.531 442.196 519.947 443.396 518.779 444.26C517.611 445.124 515.907 445.556 513.667 445.556C511.315 445.556 509.491 445.012 508.195 443.924C506.899 442.82 506.251 441.156 506.251 438.932C506.251 436.756 506.883 435.108 508.147 433.988C509.411 432.868 511.155 432.308 513.379 432.308ZM513.571 435.356C512.067 435.356 511.227 436.068 511.051 437.492H515.707C515.707 436.836 515.515 436.316 515.131 435.932C514.763 435.548 514.243 435.356 513.571 435.356ZM523.003 445.268V427.868H527.779V445.268H523.003ZM530.995 445.268V427.868H535.771V445.268H530.995ZM538.987 431.108V427.868H543.763V431.108H538.987ZM538.987 445.268V432.596H543.763V445.268H538.987ZM555.547 432.308C557.019 432.308 558.123 432.716 558.859 433.532C559.595 434.348 559.963 435.524 559.963 437.06V445.268H555.187V437.636C555.187 437.092 555.043 436.66 554.755 436.34C554.483 436.004 554.091 435.836 553.579 435.836C552.987 435.836 552.507 436.028 552.139 436.412C551.771 436.796 551.587 437.268 551.587 437.828V445.268H546.811V432.596H550.723L551.035 434.516C551.531 433.844 552.179 433.308 552.979 432.908C553.795 432.508 554.651 432.308 555.547 432.308ZM565.411 449.66H562.819L564.787 445.268H562.843V440.492H567.931V445.004L565.411 449.66ZM587.011 428.468C589.459 428.468 591.395 429.084 592.819 430.316C594.243 431.532 594.955 433.276 594.955 435.548H589.891C589.891 434.588 589.635 433.828 589.123 433.268C588.627 432.708 587.915 432.428 586.987 432.428C585.915 432.428 585.123 432.764 584.611 433.436C584.115 434.108 583.867 435.044 583.867 436.244V437.78C583.867 438.964 584.115 439.9 584.611 440.588C585.123 441.26 585.899 441.596 586.939 441.596C587.963 441.596 588.739 441.332 589.267 440.804C589.795 440.276 590.059 439.532 590.059 438.572H594.955C594.955 440.828 594.259 442.556 592.867 443.756C591.491 444.956 589.539 445.556 587.011 445.556C584.195 445.556 582.059 444.836 580.603 443.396C579.163 441.956 578.443 439.828 578.443 437.012C578.443 434.196 579.163 432.068 580.603 430.628C582.059 429.188 584.195 428.468 587.011 428.468ZM604.035 432.308C606.259 432.308 608.003 432.876 609.267 434.012C610.547 435.132 611.187 436.772 611.187 438.932C611.187 441.092 610.547 442.74 609.267 443.876C608.003 444.996 606.259 445.556 604.035 445.556C601.811 445.556 600.067 444.996 598.803 443.876C597.539 442.756 596.907 441.108 596.907 438.932C596.907 436.756 597.539 435.108 598.803 433.988C600.067 432.868 601.811 432.308 604.035 432.308ZM604.035 435.548C602.467 435.548 601.683 436.452 601.683 438.26V439.628C601.683 441.42 602.467 442.316 604.035 442.316C605.619 442.316 606.411 441.42 606.411 439.628V438.26C606.411 436.452 605.619 435.548 604.035 435.548ZM613.659 445.268V427.868H618.435V445.268H613.659ZM628.035 432.308C630.259 432.308 632.003 432.876 633.267 434.012C634.547 435.132 635.187 436.772 635.187 438.932C635.187 441.092 634.547 442.74 633.267 443.876C632.003 444.996 630.259 445.556 628.035 445.556C625.811 445.556 624.067 444.996 622.803 443.876C621.539 442.756 620.907 441.108 620.907 438.932C620.907 436.756 621.539 435.108 622.803 433.988C624.067 432.868 625.811 432.308 628.035 432.308ZM628.035 435.548C626.467 435.548 625.683 436.452 625.683 438.26V439.628C625.683 441.42 626.467 442.316 628.035 442.316C629.619 442.316 630.411 441.42 630.411 439.628V438.26C630.411 436.452 629.619 435.548 628.035 435.548ZM654.315 432.308C655.755 432.308 656.835 432.724 657.555 433.556C658.275 434.372 658.635 435.54 658.635 437.06V445.268H653.859V437.636C653.859 437.092 653.723 436.66 653.451 436.34C653.195 436.004 652.827 435.836 652.347 435.836C651.787 435.836 651.331 436.028 650.979 436.412C650.627 436.796 650.451 437.268 650.451 437.828V445.268H645.675V437.636C645.675 437.092 645.539 436.66 645.267 436.34C645.011 436.004 644.643 435.836 644.163 435.836C643.603 435.836 643.147 436.028 642.795 436.412C642.443 436.796 642.267 437.268 642.267 437.828V445.268H637.491V432.596H641.403L641.715 434.492C642.195 433.82 642.827 433.292 643.611 432.908C644.411 432.508 645.251 432.308 646.131 432.308C648.035 432.308 649.315 433.036 649.971 434.492C650.467 433.82 651.099 433.292 651.867 432.908C652.651 432.508 653.467 432.308 654.315 432.308ZM666.291 433.772C667.203 432.796 668.387 432.308 669.843 432.308C671.555 432.308 672.875 432.868 673.803 433.988C674.731 435.092 675.195 436.732 675.195 438.908C675.195 441.1 674.731 442.756 673.803 443.876C672.875 444.996 671.555 445.556 669.843 445.556C668.083 445.556 666.739 444.86 665.811 443.468L665.403 445.268H661.515V427.868H666.291V433.772ZM668.355 435.836C667.651 435.836 667.123 436.092 666.771 436.604C666.419 437.1 666.243 437.748 666.243 438.548V439.34C666.243 440.14 666.419 440.788 666.771 441.284C667.123 441.78 667.651 442.028 668.355 442.028C669.731 442.028 670.419 441.212 670.419 439.58V438.308C670.419 436.66 669.731 435.836 668.355 435.836ZM677.667 431.108V427.868H682.443V431.108H677.667ZM677.667 445.268V432.596H682.443V445.268H677.667ZM691.755 432.308C693.691 432.308 695.267 432.636 696.483 433.292C697.699 433.932 698.307 434.98 698.307 436.436V441.38C698.307 441.652 698.371 441.876 698.499 442.052C698.627 442.228 698.819 442.316 699.075 442.316H699.939V445.076C699.891 445.108 699.763 445.164 699.555 445.244C699.363 445.308 699.083 445.372 698.715 445.436C698.347 445.516 697.923 445.556 697.443 445.556C696.515 445.556 695.747 445.42 695.139 445.148C694.547 444.86 694.139 444.468 693.915 443.972C693.307 444.452 692.627 444.836 691.875 445.124C691.123 445.412 690.243 445.556 689.235 445.556C686.259 445.556 684.771 444.372 684.771 442.004C684.771 440.772 685.099 439.836 685.755 439.196C686.427 438.54 687.387 438.092 688.635 437.852C689.883 437.612 691.515 437.492 693.531 437.492V436.868C693.531 436.372 693.355 435.996 693.003 435.74C692.667 435.484 692.227 435.356 691.683 435.356C691.187 435.356 690.755 435.444 690.387 435.62C690.035 435.796 689.859 436.076 689.859 436.46V436.556H685.155C685.139 436.476 685.131 436.364 685.131 436.22C685.131 435.02 685.699 434.068 686.835 433.364C687.987 432.66 689.627 432.308 691.755 432.308ZM693.531 439.748C692.171 439.748 691.163 439.9 690.507 440.204C689.867 440.492 689.547 440.884 689.547 441.38C689.547 442.18 690.091 442.58 691.179 442.58C691.803 442.58 692.347 442.412 692.811 442.076C693.291 441.74 693.531 441.324 693.531 440.828V439.748ZM703.755 427.58C705.131 429.052 706.195 430.724 706.947 432.596C707.699 434.468 708.075 436.388 708.075 438.356C708.075 440.308 707.699 442.22 706.947 444.092C706.195 445.964 705.131 447.636 703.755 449.108H700.875C701.819 447.636 702.587 445.908 703.179 443.924C703.771 441.924 704.067 440.068 704.067 438.356C704.067 436.66 703.771 434.812 703.179 432.812C702.587 430.796 701.819 429.052 700.875 427.58H703.755Z" fill="white"/>
<g filter="url(#filter4_d_1056_1234)">
<rect width="132.808" height="546.692" rx="4" transform="matrix(0 -1 -1 0 838.327 652.231)" fill="#1A75BB"/>
</g>
<path d="M356.33 577.254L349.01 556.614H356.09L360.23 570.414H360.35L364.52 556.614H371.3L364.01 577.254H356.33ZM374.369 577.254V556.614H380.999V577.254H374.369ZM405.319 562.944C405.319 564.204 404.979 565.344 404.299 566.364C403.619 567.384 402.629 568.134 401.329 568.614L405.919 577.254H398.479L394.819 569.724H392.359V577.254H385.729V556.614H398.359C399.839 556.614 401.099 556.904 402.139 557.484C403.199 558.044 403.989 558.814 404.509 559.794C405.049 560.754 405.319 561.804 405.319 562.944ZM398.569 563.214C398.569 562.674 398.389 562.224 398.029 561.864C397.669 561.504 397.229 561.324 396.709 561.324H392.359V565.134H396.709C397.229 565.134 397.669 564.954 398.029 564.594C398.389 564.214 398.569 563.754 398.569 563.214ZM419.369 577.254V556.614H425.999V577.254H419.369ZM441.229 561.054C443.069 561.054 444.449 561.564 445.369 562.584C446.289 563.604 446.749 565.074 446.749 566.994V577.254H440.779V567.714C440.779 567.034 440.599 566.494 440.239 566.094C439.899 565.674 439.409 565.464 438.769 565.464C438.029 565.464 437.429 565.704 436.969 566.184C436.509 566.664 436.279 567.254 436.279 567.954V577.254H430.309V561.414H435.199L435.589 563.814C436.209 562.974 437.019 562.304 438.019 561.804C439.039 561.304 440.109 561.054 441.229 561.054ZM456.769 555.144C457.209 555.144 457.759 555.204 458.419 555.324C459.079 555.424 459.609 555.544 460.009 555.684V559.194H458.629C457.989 559.194 457.549 559.314 457.309 559.554C457.069 559.794 456.949 560.204 456.949 560.784V561.414H460.009V565.464H456.949V577.254H450.979V565.464H448.759V561.414H450.979V560.754C450.979 558.714 451.479 557.274 452.479 556.434C453.479 555.574 454.909 555.144 456.769 555.144ZM469.671 561.054C472.451 561.054 474.631 561.764 476.211 563.184C477.811 564.584 478.611 566.634 478.611 569.334C478.611 572.034 477.811 574.094 476.211 575.514C474.631 576.914 472.451 577.614 469.671 577.614C466.891 577.614 464.711 576.914 463.131 575.514C461.551 574.114 460.761 572.054 460.761 569.334C460.761 566.614 461.551 564.554 463.131 563.154C464.711 561.754 466.891 561.054 469.671 561.054ZM469.671 565.104C467.711 565.104 466.731 566.234 466.731 568.494V570.204C466.731 572.444 467.711 573.564 469.671 573.564C471.651 573.564 472.641 572.444 472.641 570.204V568.494C472.641 566.234 471.651 565.104 469.671 565.104ZM500.571 556.254C503.211 556.254 505.381 556.794 507.081 557.874C508.781 558.934 509.651 560.514 509.691 562.614V562.974H503.481V562.854C503.481 562.254 503.261 561.754 502.821 561.354C502.381 560.954 501.711 560.754 500.811 560.754C499.931 560.754 499.251 560.884 498.771 561.144C498.311 561.404 498.081 561.724 498.081 562.104C498.081 562.644 498.401 563.044 499.041 563.304C499.681 563.564 500.711 563.834 502.131 564.114C503.791 564.454 505.151 564.814 506.211 565.194C507.291 565.554 508.231 566.154 509.031 566.994C509.831 567.834 510.241 568.974 510.261 570.414C510.261 572.854 509.431 574.664 507.771 575.844C506.131 577.024 503.931 577.614 501.171 577.614C497.951 577.614 495.441 577.074 493.641 575.994C491.861 574.914 490.971 573.004 490.971 570.264H497.241C497.241 571.304 497.511 572.004 498.051 572.364C498.591 572.704 499.431 572.874 500.571 572.874C501.411 572.874 502.101 572.784 502.641 572.604C503.201 572.424 503.481 572.054 503.481 571.494C503.481 570.994 503.171 570.624 502.551 570.384C501.951 570.124 500.961 569.854 499.581 569.574C497.901 569.214 496.511 568.844 495.411 568.464C494.311 568.064 493.351 567.414 492.531 566.514C491.711 565.614 491.301 564.394 491.301 562.854C491.301 560.594 492.171 558.934 493.911 557.874C495.671 556.794 497.891 556.254 500.571 556.254ZM521.322 561.054C524.222 561.054 526.432 561.734 527.952 563.094C529.492 564.454 530.262 566.534 530.262 569.334V570.354H518.382C518.382 571.494 518.632 572.354 519.132 572.934C519.652 573.514 520.462 573.804 521.562 573.804C522.562 573.804 523.292 573.594 523.752 573.174C524.232 572.754 524.472 572.194 524.472 571.494H530.262C530.262 573.414 529.532 574.914 528.072 575.994C526.612 577.074 524.482 577.614 521.682 577.614C518.742 577.614 516.462 576.934 514.842 575.574C513.222 574.194 512.412 572.114 512.412 569.334C512.412 566.614 513.202 564.554 514.782 563.154C516.362 561.754 518.542 561.054 521.322 561.054ZM521.562 564.864C519.682 564.864 518.632 565.754 518.412 567.534H524.232C524.232 566.714 523.992 566.064 523.512 565.584C523.052 565.104 522.402 564.864 521.562 564.864ZM542.771 561.024C543.231 561.024 543.641 561.084 544.001 561.204C544.361 561.304 544.541 561.364 544.541 561.384V566.394H542.621C541.381 566.394 540.481 566.714 539.921 567.354C539.381 567.994 539.111 568.944 539.111 570.204V577.254H533.141V561.414H538.031L538.421 563.814C538.781 562.894 539.351 562.204 540.131 561.744C540.911 561.264 541.791 561.024 542.771 561.024ZM552.4 577.254L546.4 561.414H552.82L555.73 571.284H555.94L558.85 561.414H564.73L558.67 577.254H552.4ZM566.75 559.554V555.504H572.72V559.554H566.75ZM566.75 577.254V561.414H572.72V577.254H566.75ZM584.72 561.054C587.32 561.054 589.42 561.614 591.02 562.734C592.64 563.834 593.45 565.524 593.45 567.804H587.66C587.66 566.004 586.68 565.104 584.72 565.104C582.76 565.104 581.78 566.234 581.78 568.494V570.204C581.78 572.444 582.8 573.564 584.84 573.564C586.88 573.564 587.9 572.644 587.9 570.804H593.45C593.45 573.104 592.64 574.814 591.02 575.934C589.42 577.054 587.32 577.614 584.72 577.614C581.94 577.614 579.76 576.914 578.18 575.514C576.6 574.114 575.81 572.054 575.81 569.334C575.81 566.614 576.6 564.554 578.18 563.154C579.76 561.754 581.94 561.054 584.72 561.054ZM604.73 561.054C607.63 561.054 609.84 561.734 611.36 563.094C612.9 564.454 613.67 566.534 613.67 569.334V570.354H601.79C601.79 571.494 602.04 572.354 602.54 572.934C603.06 573.514 603.87 573.804 604.97 573.804C605.97 573.804 606.7 573.594 607.16 573.174C607.64 572.754 607.88 572.194 607.88 571.494H613.67C613.67 573.414 612.94 574.914 611.48 575.994C610.02 577.074 607.89 577.614 605.09 577.614C602.15 577.614 599.87 576.934 598.25 575.574C596.63 574.194 595.82 572.114 595.82 569.334C595.82 566.614 596.61 564.554 598.19 563.154C599.77 561.754 601.95 561.054 604.73 561.054ZM604.97 564.864C603.09 564.864 602.04 565.754 601.82 567.534H607.64C607.64 566.714 607.4 566.064 606.92 565.584C606.46 565.104 605.81 564.864 604.97 564.864ZM624.08 561.054C626.2 561.054 627.99 561.474 629.45 562.314C630.93 563.134 631.67 564.414 631.67 566.154H626.12C626.12 565.574 625.86 565.164 625.34 564.924C624.98 564.724 624.53 564.624 623.99 564.624C622.55 564.624 621.83 564.964 621.83 565.644C621.83 566.024 622.08 566.294 622.58 566.454C623.08 566.614 623.9 566.784 625.04 566.964C626.44 567.164 627.61 567.404 628.55 567.684C629.49 567.944 630.31 568.424 631.01 569.124C631.71 569.804 632.06 570.764 632.06 572.004C632.06 574.024 631.3 575.464 629.78 576.324C628.28 577.184 626.31 577.614 623.87 577.614C622.47 577.614 621.15 577.424 619.91 577.044C618.67 576.644 617.66 576.034 616.88 575.214C616.1 574.394 615.71 573.354 615.71 572.094H621.26V572.214C621.28 572.894 621.56 573.374 622.1 573.654C622.66 573.914 623.25 574.044 623.87 574.044C625.53 574.044 626.36 573.654 626.36 572.874C626.36 572.474 626.1 572.184 625.58 572.004C625.06 571.824 624.21 571.634 623.03 571.434C621.61 571.194 620.44 570.934 619.52 570.654C618.62 570.374 617.83 569.904 617.15 569.244C616.47 568.564 616.13 567.624 616.13 566.424C616.13 564.484 616.86 563.104 618.32 562.284C619.8 561.464 621.72 561.054 624.08 561.054ZM656.88 556.614C658.16 556.614 659.3 556.914 660.3 557.514C661.3 558.094 662.08 558.904 662.64 559.944C663.2 560.964 663.48 562.114 663.48 563.394V563.784C663.48 565.064 663.2 566.224 662.64 567.264C662.08 568.304 661.3 569.124 660.3 569.724C659.3 570.304 658.16 570.594 656.88 570.594H651.93V577.254H645.3V556.614H656.88ZM651.93 565.764H654.66C655.36 565.764 655.88 565.584 656.22 565.224C656.58 564.864 656.76 564.374 656.76 563.754V563.514C656.76 562.874 656.58 562.384 656.22 562.044C655.88 561.684 655.36 561.504 654.66 561.504H651.93V565.764ZM670.73 577.254L664.73 561.414H671.15L674.06 571.284H674.27L677.18 561.414H683.06L677 577.254H670.73ZM695.43 561.414V565.464H692.07V571.494C692.07 572.214 692.19 572.744 692.43 573.084C692.67 573.404 693.11 573.564 693.75 573.564H695.43V577.074C694.95 577.234 694.33 577.364 693.57 577.464C692.81 577.564 692.15 577.614 691.59 577.614C689.83 577.614 688.47 577.294 687.51 576.654C686.57 576.014 686.1 574.924 686.1 573.384V565.464H683.88V561.414H686.34L687.63 556.614H692.07V561.414H695.43ZM698.23 577.254V571.284H704.59V577.254H698.23ZM718.6 556.614H725.23V571.974H735.82V577.254H718.6V556.614ZM748.75 561.414V565.464H745.39V571.494C745.39 572.214 745.51 572.744 745.75 573.084C745.99 573.404 746.43 573.564 747.07 573.564H748.75V577.074C748.27 577.234 747.65 577.364 746.89 577.464C746.13 577.564 745.47 577.614 744.91 577.614C743.15 577.614 741.79 577.294 740.83 576.654C739.89 576.014 739.42 574.924 739.42 573.384V565.464H737.2V561.414H739.66L740.95 556.614H745.39V561.414H748.75ZM763.04 577.254L762.53 575.004C761.37 576.744 759.69 577.614 757.49 577.614C755.35 577.614 753.7 576.914 752.54 575.514C751.38 574.114 750.8 572.044 750.8 569.304C750.8 566.584 751.38 564.534 752.54 563.154C753.7 561.754 755.35 561.054 757.49 561.054C759.31 561.054 760.79 561.664 761.93 562.884V555.504H767.9V577.254H763.04ZM759.35 565.464C757.63 565.464 756.77 566.494 756.77 568.554V570.144C756.77 572.184 757.63 573.204 759.35 573.204C760.23 573.204 760.89 572.894 761.33 572.274C761.77 571.654 761.99 570.844 761.99 569.844V568.854C761.99 567.854 761.77 567.044 761.33 566.424C760.89 565.784 760.23 565.464 759.35 565.464ZM771.56 577.254V571.284H777.92V577.254H771.56Z" fill="white"/>
<path d="M489.52 602.73C488.576 604.202 487.808 605.946 487.216 607.962C486.624 609.962 486.328 611.81 486.328 613.506C486.328 615.218 486.624 617.074 487.216 619.074C487.808 621.058 488.576 622.786 489.52 624.258H486.64C485.264 622.786 484.2 621.114 483.448 619.242C482.696 617.37 482.32 615.458 482.32 613.506C482.32 611.538 482.696 609.618 483.448 607.746C484.2 605.874 485.264 604.202 486.64 602.73H489.52ZM492.344 620.418V603.906H497.648V620.418H492.344ZM513.24 620.418L506.304 612.402V620.418H501.432V603.906H506.064L513 612.042V603.906H517.872V620.418H513.24ZM528.576 603.906C534.352 603.906 537.24 606.658 537.24 612.162C537.24 617.666 534.352 620.418 528.576 620.418H521.424V603.906H528.576ZM526.728 616.458H528.48C530.704 616.458 531.816 615.266 531.816 612.882V611.442C531.816 609.058 530.704 607.866 528.48 607.866H526.728V616.458ZM547.784 612.546V607.746H552.872V612.546H547.784ZM547.784 620.418V615.642H552.872V620.418H547.784ZM575.888 620.418L568.952 612.402V620.418H564.08V603.906H568.712L575.648 612.042V603.906H580.52V620.418H575.888ZM590.288 607.458C592.512 607.458 594.256 608.026 595.52 609.162C596.8 610.282 597.44 611.922 597.44 614.082C597.44 616.242 596.8 617.89 595.52 619.026C594.256 620.146 592.512 620.706 590.288 620.706C588.064 620.706 586.32 620.146 585.056 619.026C583.792 617.906 583.16 616.258 583.16 614.082C583.16 611.906 583.792 610.258 585.056 609.138C586.32 608.018 588.064 607.458 590.288 607.458ZM590.288 610.698C588.72 610.698 587.936 611.602 587.936 613.41V614.778C587.936 616.57 588.72 617.466 590.288 617.466C591.872 617.466 592.664 616.57 592.664 614.778V613.41C592.664 611.602 591.872 610.698 590.288 610.698ZM599.912 606.258V603.018H604.688V606.258H599.912ZM599.912 620.418V607.746H604.688V620.418H599.912ZM616.952 620.418L616.544 618.618C615.616 620.01 614.272 620.706 612.512 620.706C610.8 620.706 609.48 620.146 608.552 619.026C607.624 617.906 607.16 616.25 607.16 614.058C607.16 611.882 607.624 610.242 608.552 609.138C609.48 608.018 610.8 607.458 612.512 607.458C613.968 607.458 615.152 607.946 616.064 608.922V603.018H620.84V620.418H616.952ZM614 610.986C612.624 610.986 611.936 611.81 611.936 613.458V614.73C611.936 616.362 612.624 617.178 614 617.178C614.704 617.178 615.232 616.93 615.584 616.434C615.936 615.938 616.112 615.29 616.112 614.49V613.698C616.112 612.898 615.936 612.25 615.584 611.754C615.232 611.242 614.704 610.986 614 610.986ZM630.008 607.458C631.944 607.458 633.52 607.786 634.736 608.442C635.952 609.082 636.56 610.13 636.56 611.586V616.53C636.56 616.802 636.624 617.026 636.752 617.202C636.88 617.378 637.072 617.466 637.328 617.466H638.192V620.226C638.144 620.258 638.016 620.314 637.808 620.394C637.616 620.458 637.336 620.522 636.968 620.586C636.6 620.666 636.176 620.706 635.696 620.706C634.768 620.706 634 620.57 633.392 620.298C632.8 620.01 632.392 619.618 632.168 619.122C631.56 619.602 630.88 619.986 630.128 620.274C629.376 620.562 628.496 620.706 627.488 620.706C624.512 620.706 623.024 619.522 623.024 617.154C623.024 615.922 623.352 614.986 624.008 614.346C624.68 613.69 625.64 613.242 626.888 613.002C628.136 612.762 629.768 612.642 631.784 612.642V612.018C631.784 611.522 631.608 611.146 631.256 610.89C630.92 610.634 630.48 610.506 629.936 610.506C629.44 610.506 629.008 610.594 628.64 610.77C628.288 610.946 628.112 611.226 628.112 611.61V611.706H623.408C623.392 611.626 623.384 611.514 623.384 611.37C623.384 610.17 623.952 609.218 625.088 608.514C626.24 607.81 627.88 607.458 630.008 607.458ZM631.784 614.898C630.424 614.898 629.416 615.05 628.76 615.354C628.12 615.642 627.8 616.034 627.8 616.53C627.8 617.33 628.344 617.73 629.432 617.73C630.056 617.73 630.6 617.562 631.064 617.226C631.544 616.89 631.784 616.474 631.784 615.978V614.898ZM642.008 602.73C643.384 604.202 644.448 605.874 645.2 607.746C645.952 609.618 646.328 611.538 646.328 613.506C646.328 615.458 645.952 617.37 645.2 619.242C644.448 621.114 643.384 622.786 642.008 624.258H639.128C640.072 622.786 640.84 621.058 641.432 619.074C642.024 617.074 642.32 615.218 642.32 613.506C642.32 611.81 642.024 609.962 641.432 607.962C640.84 605.946 640.072 604.202 639.128 602.73H642.008Z" fill="white"/>
<line x1="225.007" y1="59.9565" x2="225.007" y2="610.419" stroke="#1A75BB" stroke-width="6"/>
<line x1="222.007" y1="62.7954" x2="292.258" y2="62.7954" stroke="#1A75BB" stroke-width="6"/>
<line x1="222.007" y1="244.77" x2="292.258" y2="244.77" stroke="#1A75BB" stroke-width="6"/>
<line x1="222.007" y1="423.269" x2="292.258" y2="423.269" stroke="#1A75BB" stroke-width="6"/>
<line x1="168" y1="323.116" x2="222.007" y2="323.116" stroke="#1A75BB" stroke-width="6"/>
<line x1="222.007" y1="607.419" x2="292.258" y2="607.419" stroke="#1A75BB" stroke-width="6"/>
<defs>
<filter id="filter0_d_1056_1234" x="0" y="94.9004" width="172" height="470.431" filterUnits="userSpaceOnUse" color-interpolation-filters="sRGB">
<feFlood flood-opacity="0" result="BackgroundImageFix"/>
<feColorMatrix in="SourceAlpha" type="matrix" values="0 0 0 0 0 0 0 0 0 0 0 0 0 0 0 0 0 0 127 0" result="hardAlpha"/>
<feOffset dy="4"/>
<feGaussianBlur stdDeviation="2"/>
<feComposite in2="hardAlpha" operator="out"/>
<feColorMatrix type="matrix" values="0 0 0 0 0 0 0 0 0 0 0 0 0 0 0 0 0 0 0.25 0"/>
<feBlend mode="normal" in2="BackgroundImageFix" result="effect1_dropShadow_1056_1234"/>
<feBlend mode="normal" in="SourceGraphic" in2="effect1_dropShadow_1056_1234" result="shape"/>
</filter>
<filter id="filter1_d_1056_1234" x="289.284" y="0" width="688.384" height="140.808" filterUnits="userSpaceOnUse" color-interpolation-filters="sRGB">
<feFlood flood-opacity="0" result="BackgroundImageFix"/>
<feColorMatrix in="SourceAlpha" type="matrix" values="0 0 0 0 0 0 0 0 0 0 0 0 0 0 0 0 0 0 127 0" result="hardAlpha"/>
<feOffset dy="4"/>
<feGaussianBlur stdDeviation="2"/>
<feComposite in2="hardAlpha" operator="out"/>
<feColorMatrix type="matrix" values="0 0 0 0 0 0 0 0 0 0 0 0 0 0 0 0 0 0 0.25 0"/>
<feBlend mode="normal" in2="BackgroundImageFix" result="effect1_dropShadow_1056_1234"/>
<feBlend mode="normal" in="SourceGraphic" in2="effect1_dropShadow_1056_1234" result="shape"/>
</filter>
<filter id="filter2_d_1056_1234" x="289.284" y="173.142" width="412.729" height="140.808" filterUnits="userSpaceOnUse" color-interpolation-filters="sRGB">
<feFlood flood-opacity="0" result="BackgroundImageFix"/>
<feColorMatrix in="SourceAlpha" type="matrix" values="0 0 0 0 0 0 0 0 0 0 0 0 0 0 0 0 0 0 127 0" result="hardAlpha"/>
<feOffset dy="4"/>
<feGaussianBlur stdDeviation="2"/>
<feComposite in2="hardAlpha" operator="out"/>
<feColorMatrix type="matrix" values="0 0 0 0 0 0 0 0 0 0 0 0 0 0 0 0 0 0 0.25 0"/>
<feBlend mode="normal" in2="BackgroundImageFix" result="effect1_dropShadow_1056_1234"/>
<feBlend mode="normal" in="SourceGraphic" in2="effect1_dropShadow_1056_1234" result="shape"/>
</filter>
<filter id="filter3_d_1056_1234" x="287.635" y="346.282" width="462.442" height="140.808" filterUnits="userSpaceOnUse" color-interpolation-filters="sRGB">
<feFlood flood-opacity="0" result="BackgroundImageFix"/>
<feColorMatrix in="SourceAlpha" type="matrix" values="0 0 0 0 0 0 0 0 0 0 0 0 0 0 0 0 0 0 127 0" result="hardAlpha"/>
<feOffset dy="4"/>
<feGaussianBlur stdDeviation="2"/>
<feComposite in2="hardAlpha" operator="out"/>
<feColorMatrix type="matrix" values="0 0 0 0 0 0 0 0 0 0 0 0 0 0 0 0 0 0 0.25 0"/>
<feBlend mode="normal" in2="BackgroundImageFix" result="effect1_dropShadow_1056_1234"/>
<feBlend mode="normal" in="SourceGraphic" in2="effect1_dropShadow_1056_1234" result="shape"/>
</filter>
<filter id="filter4_d_1056_1234" x="287.635" y="519.423" width="554.692" height="140.808" filterUnits="userSpaceOnUse" color-interpolation-filters="sRGB">
<feFlood flood-opacity="0" result="BackgroundImageFix"/>
<feColorMatrix in="SourceAlpha" type="matrix" values="0 0 0 0 0 0 0 0 0 0 0 0 0 0 0 0 0 0 127 0" result="hardAlpha"/>
<feOffset dy="4"/>
<feGaussianBlur stdDeviation="2"/>
<feComposite in2="hardAlpha" operator="out"/>
<feColorMatrix type="matrix" values="0 0 0 0 0 0 0 0 0 0 0 0 0 0 0 0 0 0 0.25 0"/>
<feBlend mode="normal" in2="BackgroundImageFix" result="effect1_dropShadow_1056_1234"/>
<feBlend mode="normal" in="SourceGraphic" in2="effect1_dropShadow_1056_1234" result="shape"/>
</filter>
</defs>
</svg>
