<svg width="47" height="49" viewBox="0 0 47 49" fill="none" xmlns="http://www.w3.org/2000/svg">
<path d="M23.2248 42.024C23.4721 42.024 23.7065 41.9109 23.86 41.7169C24.4613 40.954 38.5797 22.9516 38.5797 14.9509C38.5797 6.70606 31.691 0 23.2248 0C14.7586 0 7.86987 6.70606 7.86987 14.9509C7.86987 22.95 21.9883 40.954 22.5896 41.7169C22.7431 41.9109 22.9775 42.024 23.2248 42.024ZM15.9514 14.5468C15.9514 10.5367 19.2147 7.27339 23.2248 7.27339C27.2349 7.27339 30.4982 10.5367 30.4982 14.5468C30.4982 18.5568 27.2349 21.8202 23.2248 21.8202C19.2147 21.8202 15.9514 18.5568 15.9514 14.5468Z" fill="#1A75BB"/>
<path d="M46.3252 47.2495L38.1741 34.319C38.0254 34.0846 37.7684 33.9424 37.4904 33.9424H31.4858C28.5167 38.3711 25.7738 41.8995 25.1289 42.7173C24.6666 43.304 23.9716 43.6402 23.2249 43.6402C22.4782 43.6402 21.7831 43.304 21.3209 42.7173C20.676 41.8995 17.9331 38.3711 14.9639 33.9424H8.95936C8.68135 33.9424 8.42274 34.0846 8.27566 34.319L0.124615 47.2495C-0.0321671 47.4984 -0.0418649 47.8135 0.10037 48.0705C0.242605 48.3291 0.512529 48.4892 0.806697 48.4892H45.6415C45.9356 48.4892 46.2072 48.3291 46.3494 48.0705C46.4917 47.8135 46.4836 47.5 46.3252 47.2495Z" fill="#1A75BB"/>
</svg>
