<svg width="328" height="646" viewBox="0 0 328 646" fill="none" xmlns="http://www.w3.org/2000/svg">
<rect x="2" y="34.5898" width="324" height="73.1836" stroke="#1A75BB" stroke-width="4"/>
<g filter="url(#filter0_d_1104_1090)">
<rect width="65.1802" height="243.758" rx="4" transform="matrix(0 -1 -1 0 262.139 65.1797)" fill="#1A75BB"/>
</g>
<path d="M42.7486 25.8494C47.5619 25.8494 49.9686 28.1427 49.9686 32.7294C49.9686 37.316 47.5619 39.6094 42.7486 39.6094H36.7886V25.8494H42.7486ZM41.2086 36.3094H42.6686C44.5219 36.3094 45.4486 35.316 45.4486 33.3294V32.1294C45.4486 30.1427 44.5219 29.1494 42.6686 29.1494H41.2086V36.3094ZM52.215 27.8094V25.1094H56.195V27.8094H52.215ZM52.215 39.6094V29.0494H56.195V39.6094H52.215ZM65.1552 28.7894C65.4618 28.7894 65.7352 28.8294 65.9752 28.9094C66.2152 28.976 66.3352 29.016 66.3352 29.0294V32.3694H65.0552C64.2285 32.3694 63.6285 32.5827 63.2552 33.0094C62.8952 33.436 62.7152 34.0694 62.7152 34.9094V39.6094H58.7352V29.0494H61.9952L62.2552 30.6494C62.4952 30.036 62.8752 29.576 63.3952 29.2694C63.9152 28.9494 64.5018 28.7894 65.1552 28.7894ZM73.3944 28.8094C75.3277 28.8094 76.801 29.2627 77.8144 30.1694C78.841 31.076 79.3544 32.4627 79.3544 34.3294V35.0094H71.4344C71.4344 35.7694 71.601 36.3427 71.9344 36.7294C72.281 37.116 72.821 37.3094 73.5544 37.3094C74.221 37.3094 74.7077 37.1694 75.0144 36.8894C75.3344 36.6094 75.4944 36.236 75.4944 35.7694H79.3544C79.3544 37.0494 78.8677 38.0494 77.8944 38.7694C76.921 39.4894 75.501 39.8494 73.6344 39.8494C71.6744 39.8494 70.1544 39.396 69.0744 38.4894C67.9944 37.5694 67.4544 36.1827 67.4544 34.3294C67.4544 32.516 67.981 31.1427 69.0344 30.2094C70.0877 29.276 71.541 28.8094 73.3944 28.8094ZM73.5544 31.3494C72.301 31.3494 71.601 31.9427 71.4544 33.1294H75.3344C75.3344 32.5827 75.1744 32.1494 74.8544 31.8294C74.5477 31.5094 74.1144 31.3494 73.5544 31.3494ZM86.7342 28.8094C88.4676 28.8094 89.8676 29.1827 90.9342 29.9294C92.0142 30.6627 92.5542 31.7894 92.5542 33.3094H88.6942C88.6942 32.1094 88.0409 31.5094 86.7342 31.5094C85.4276 31.5094 84.7742 32.2627 84.7742 33.7694V34.9094C84.7742 36.4027 85.4542 37.1494 86.8142 37.1494C88.1742 37.1494 88.8542 36.536 88.8542 35.3094H92.5542C92.5542 36.8427 92.0142 37.9827 90.9342 38.7294C89.8676 39.476 88.4676 39.8494 86.7342 39.8494C84.8809 39.8494 83.4276 39.3827 82.3742 38.4494C81.3209 37.516 80.7942 36.1427 80.7942 34.3294C80.7942 32.516 81.3209 31.1427 82.3742 30.2094C83.4276 29.276 84.8809 28.8094 86.7342 28.8094ZM101.654 29.0494V31.7494H99.4141V35.7694C99.4141 36.2494 99.4941 36.6027 99.6541 36.8294C99.8141 37.0427 100.107 37.1494 100.534 37.1494H101.654V39.4894C101.334 39.596 100.921 39.6827 100.414 39.7494C99.9074 39.816 99.4674 39.8494 99.0941 39.8494C97.9207 39.8494 97.0141 39.636 96.3741 39.2094C95.7474 38.7827 95.4341 38.056 95.4341 37.0294V31.7494H93.9541V29.0494H95.5941L96.4541 25.8494H99.4141V29.0494H101.654ZM119.721 39.6094V34.3894H114.861V39.6094H110.441V25.8494H114.861V30.8694H119.721V25.8494H124.141V39.6094H119.721ZM126.961 27.8094V25.1094H130.941V27.8094H126.961ZM126.961 39.6094V29.0494H130.941V39.6094H126.961ZM139.901 28.7894C140.208 28.7894 140.481 28.8294 140.721 28.9094C140.961 28.976 141.081 29.016 141.081 29.0294V32.3694H139.801C138.975 32.3694 138.375 32.5827 138.001 33.0094C137.641 33.436 137.461 34.0694 137.461 34.9094V39.6094H133.481V29.0494H136.741L137.001 30.6494C137.241 30.036 137.621 29.576 138.141 29.2694C138.661 28.9494 139.248 28.7894 139.901 28.7894ZM148.14 28.8094C150.074 28.8094 151.547 29.2627 152.56 30.1694C153.587 31.076 154.1 32.4627 154.1 34.3294V35.0094H146.18C146.18 35.7694 146.347 36.3427 146.68 36.7294C147.027 37.116 147.567 37.3094 148.3 37.3094C148.967 37.3094 149.454 37.1694 149.76 36.8894C150.08 36.6094 150.24 36.236 150.24 35.7694H154.1C154.1 37.0494 153.614 38.0494 152.64 38.7694C151.667 39.4894 150.247 39.8494 148.38 39.8494C146.42 39.8494 144.9 39.396 143.82 38.4894C142.74 37.5694 142.2 36.1827 142.2 34.3294C142.2 32.516 142.727 31.1427 143.78 30.2094C144.834 29.276 146.287 28.8094 148.14 28.8094ZM148.3 31.3494C147.047 31.3494 146.347 31.9427 146.2 33.1294H150.08C150.08 32.5827 149.92 32.1494 149.6 31.8294C149.294 31.5094 148.86 31.3494 148.3 31.3494Z" fill="white"/>
<rect x="2" y="302.408" width="324" height="73.1836" stroke="#1A75BB" stroke-width="4"/>
<g filter="url(#filter1_d_1104_1090)">
<rect width="65.1802" height="243.758" rx="4" transform="matrix(0 -1 -1 0 262.139 332.998)" fill="#1A75BB"/>
</g>
<path d="M43.3486 293.428C45.3886 293.428 47.0019 293.941 48.1886 294.968C49.3753 295.981 49.9686 297.434 49.9686 299.328H45.7486C45.7486 298.528 45.5353 297.894 45.1086 297.428C44.6953 296.961 44.1019 296.728 43.3286 296.728C42.4353 296.728 41.7753 297.008 41.3486 297.568C40.9353 298.128 40.7286 298.908 40.7286 299.908V301.188C40.7286 302.174 40.9353 302.954 41.3486 303.528C41.7753 304.088 42.4219 304.368 43.2886 304.368C44.1419 304.368 44.7886 304.148 45.2286 303.708C45.6686 303.268 45.8886 302.648 45.8886 301.848H49.9686C49.9686 303.728 49.3886 305.168 48.2286 306.168C47.0819 307.168 45.4553 307.668 43.3486 307.668C41.0019 307.668 39.2219 307.068 38.0086 305.868C36.8086 304.668 36.2086 302.894 36.2086 300.548C36.2086 298.201 36.8086 296.428 38.0086 295.228C39.2219 294.028 41.0019 293.428 43.3486 293.428ZM57.535 296.628C59.3883 296.628 60.8417 297.101 61.895 298.048C62.9617 298.981 63.495 300.348 63.495 302.148C63.495 303.948 62.9617 305.321 61.895 306.268C60.8417 307.201 59.3883 307.668 57.535 307.668C55.6817 307.668 54.2283 307.201 53.175 306.268C52.1217 305.334 51.595 303.961 51.595 302.148C51.595 300.334 52.1217 298.961 53.175 298.028C54.2283 297.094 55.6817 296.628 57.535 296.628ZM57.535 299.328C56.2283 299.328 55.575 300.081 55.575 301.588V302.728C55.575 304.221 56.2283 304.968 57.535 304.968C58.855 304.968 59.515 304.221 59.515 302.728V301.588C59.515 300.081 58.855 299.328 57.535 299.328ZM72.6948 296.628C73.9215 296.628 74.8415 296.968 75.4548 297.648C76.0682 298.328 76.3748 299.308 76.3748 300.588V307.428H72.3948V301.068C72.3948 300.614 72.2748 300.254 72.0348 299.988C71.8082 299.708 71.4815 299.568 71.0548 299.568C70.5615 299.568 70.1615 299.728 69.8548 300.048C69.5482 300.368 69.3948 300.761 69.3948 301.228V307.428H65.4148V296.868H68.6748L68.9348 298.468C69.3482 297.908 69.8882 297.461 70.5548 297.128C71.2348 296.794 71.9482 296.628 72.6948 296.628ZM85.7947 296.868V299.568H83.5547V303.588C83.5547 304.068 83.6347 304.421 83.7947 304.648C83.9547 304.861 84.248 304.968 84.6747 304.968H85.7947V307.308C85.4747 307.414 85.0614 307.501 84.5547 307.568C84.048 307.634 83.608 307.668 83.2347 307.668C82.0614 307.668 81.1547 307.454 80.5147 307.028C79.888 306.601 79.5747 305.874 79.5747 304.848V299.568H78.0947V296.868H79.7347L80.5947 293.668H83.5547V296.868H85.7947ZM87.7814 295.628V292.928H91.7614V295.628H87.7814ZM87.7814 307.428V296.868H91.7614V307.428H87.7814ZM101.582 296.628C102.808 296.628 103.728 296.968 104.342 297.648C104.955 298.328 105.262 299.308 105.262 300.588V307.428H101.282V301.068C101.282 300.614 101.162 300.254 100.922 299.988C100.695 299.708 100.368 299.568 99.9416 299.568C99.4482 299.568 99.0482 299.728 98.7416 300.048C98.4349 300.368 98.2816 300.761 98.2816 301.228V307.428H94.3016V296.868H97.5616L97.8216 298.468C98.2349 297.908 98.7749 297.461 99.4416 297.128C100.122 296.794 100.835 296.628 101.582 296.628ZM119.521 294.888C119.521 295.701 119.315 296.328 118.901 296.768C118.501 297.208 117.895 297.534 117.081 297.748C117.468 298.041 117.768 298.388 117.981 298.788C118.208 299.174 118.321 299.588 118.321 300.028C118.321 301.148 117.895 301.994 117.041 302.568C116.201 303.141 115.148 303.428 113.881 303.428H112.361C111.521 303.428 111.101 303.621 111.101 304.008C111.101 304.194 111.195 304.348 111.381 304.468C111.568 304.574 111.895 304.628 112.361 304.628H115.961C117.135 304.628 118.021 304.934 118.621 305.548C119.221 306.161 119.521 306.981 119.521 308.008C119.521 308.768 119.321 309.421 118.921 309.968C118.521 310.514 117.981 310.928 117.301 311.208C116.621 311.488 115.881 311.628 115.081 311.628H109.201C108.721 311.628 108.275 311.514 107.861 311.288C107.461 311.061 107.141 310.748 106.901 310.348C106.661 309.961 106.541 309.528 106.541 309.048C106.541 308.528 106.701 308.054 107.021 307.628C107.341 307.214 107.741 306.901 108.221 306.688C107.901 306.461 107.648 306.188 107.461 305.868C107.275 305.548 107.181 305.201 107.181 304.828C107.181 304.308 107.375 303.841 107.761 303.428C108.148 303.001 108.628 302.714 109.201 302.568C108.681 302.234 108.268 301.854 107.961 301.428C107.655 300.988 107.501 300.528 107.501 300.048C107.501 298.821 107.995 297.948 108.981 297.428C109.981 296.894 111.301 296.628 112.941 296.628C113.661 296.628 114.241 296.668 114.681 296.748C115.335 296.334 115.755 295.961 115.941 295.628C116.141 295.281 116.241 295.034 116.241 294.888H119.521ZM112.901 298.708C112.461 298.708 112.101 298.821 111.821 299.048C111.541 299.274 111.401 299.601 111.401 300.028C111.401 300.468 111.528 300.801 111.781 301.028C112.048 301.241 112.421 301.348 112.901 301.348C113.381 301.348 113.755 301.241 114.021 301.028C114.301 300.801 114.441 300.468 114.441 300.028C114.441 299.588 114.301 299.261 114.021 299.048C113.755 298.821 113.381 298.708 112.901 298.708ZM111.361 307.428C111.055 307.428 110.801 307.508 110.601 307.668C110.415 307.841 110.321 308.081 110.321 308.388C110.321 308.694 110.421 308.941 110.621 309.128C110.821 309.314 111.068 309.408 111.361 309.408H114.481C114.775 309.408 115.021 309.314 115.221 309.128C115.435 308.954 115.541 308.714 115.541 308.408C115.541 308.101 115.441 307.861 115.241 307.688C115.041 307.514 114.788 307.428 114.481 307.428H111.361ZM126.441 296.628C128.375 296.628 129.848 297.081 130.861 297.988C131.888 298.894 132.401 300.281 132.401 302.148V302.828H124.481C124.481 303.588 124.648 304.161 124.981 304.548C125.328 304.934 125.868 305.128 126.601 305.128C127.268 305.128 127.755 304.988 128.061 304.708C128.381 304.428 128.541 304.054 128.541 303.588H132.401C132.401 304.868 131.915 305.868 130.941 306.588C129.968 307.308 128.548 307.668 126.681 307.668C124.721 307.668 123.201 307.214 122.121 306.308C121.041 305.388 120.501 304.001 120.501 302.148C120.501 300.334 121.028 298.961 122.081 298.028C123.135 297.094 124.588 296.628 126.441 296.628ZM126.601 299.168C125.348 299.168 124.648 299.761 124.501 300.948H128.381C128.381 300.401 128.221 299.968 127.901 299.648C127.595 299.328 127.161 299.168 126.601 299.168ZM141.601 296.628C142.828 296.628 143.748 296.968 144.361 297.648C144.974 298.328 145.281 299.308 145.281 300.588V307.428H141.301V301.068C141.301 300.614 141.181 300.254 140.941 299.988C140.714 299.708 140.388 299.568 139.961 299.568C139.468 299.568 139.068 299.728 138.761 300.048C138.454 300.368 138.301 300.761 138.301 301.228V307.428H134.321V296.868H137.581L137.841 298.468C138.254 297.908 138.794 297.461 139.461 297.128C140.141 296.794 140.854 296.628 141.601 296.628ZM154.701 296.868V299.568H152.461V303.588C152.461 304.068 152.541 304.421 152.701 304.648C152.861 304.861 153.154 304.968 153.581 304.968H154.701V307.308C154.381 307.414 153.968 307.501 153.461 307.568C152.954 307.634 152.514 307.668 152.141 307.668C150.968 307.668 150.061 307.454 149.421 307.028C148.794 306.601 148.481 305.874 148.481 304.848V299.568H147.001V296.868H148.641L149.501 293.668H152.461V296.868H154.701ZM169.268 293.428C171.028 293.428 172.474 293.788 173.608 294.508C174.741 295.214 175.321 296.268 175.348 297.668V297.908H171.208V297.828C171.208 297.428 171.061 297.094 170.768 296.828C170.474 296.561 170.028 296.428 169.428 296.428C168.841 296.428 168.388 296.514 168.068 296.688C167.761 296.861 167.608 297.074 167.608 297.328C167.608 297.688 167.821 297.954 168.248 298.128C168.674 298.301 169.361 298.481 170.308 298.668C171.414 298.894 172.321 299.134 173.028 299.388C173.748 299.628 174.374 300.028 174.908 300.588C175.441 301.148 175.714 301.908 175.728 302.868C175.728 304.494 175.174 305.701 174.068 306.488C172.974 307.274 171.508 307.668 169.668 307.668C167.521 307.668 165.848 307.308 164.648 306.588C163.461 305.868 162.868 304.594 162.868 302.768H167.048C167.048 303.461 167.228 303.928 167.588 304.168C167.948 304.394 168.508 304.508 169.268 304.508C169.828 304.508 170.288 304.448 170.648 304.328C171.021 304.208 171.208 303.961 171.208 303.588C171.208 303.254 171.001 303.008 170.588 302.848C170.188 302.674 169.528 302.494 168.608 302.308C167.488 302.068 166.561 301.821 165.828 301.568C165.094 301.301 164.454 300.868 163.908 300.268C163.361 299.668 163.088 298.854 163.088 297.828C163.088 296.321 163.668 295.214 164.828 294.508C166.001 293.788 167.481 293.428 169.268 293.428ZM184.681 296.868V299.568H182.441V303.588C182.441 304.068 182.521 304.421 182.681 304.648C182.841 304.861 183.135 304.968 183.561 304.968H184.681V307.308C184.361 307.414 183.948 307.501 183.441 307.568C182.935 307.634 182.495 307.668 182.121 307.668C180.948 307.668 180.041 307.454 179.401 307.028C178.775 306.601 178.461 305.874 178.461 304.848V299.568H176.981V296.868H178.621L179.481 293.668H182.441V296.868H184.681ZM191.748 296.628C193.361 296.628 194.675 296.901 195.688 297.448C196.701 297.981 197.208 298.854 197.208 300.068V304.188C197.208 304.414 197.261 304.601 197.368 304.748C197.475 304.894 197.635 304.968 197.848 304.968H198.568V307.268C198.528 307.294 198.421 307.341 198.248 307.408C198.088 307.461 197.855 307.514 197.548 307.568C197.241 307.634 196.888 307.668 196.488 307.668C195.715 307.668 195.075 307.554 194.568 307.328C194.075 307.088 193.735 306.761 193.548 306.348C193.041 306.748 192.475 307.068 191.848 307.308C191.221 307.548 190.488 307.668 189.648 307.668C187.168 307.668 185.928 306.681 185.928 304.708C185.928 303.681 186.201 302.901 186.748 302.368C187.308 301.821 188.108 301.448 189.148 301.248C190.188 301.048 191.548 300.948 193.228 300.948V300.428C193.228 300.014 193.081 299.701 192.788 299.488C192.508 299.274 192.141 299.168 191.688 299.168C191.275 299.168 190.915 299.241 190.608 299.388C190.315 299.534 190.168 299.768 190.168 300.088V300.168H186.248C186.235 300.101 186.228 300.008 186.228 299.888C186.228 298.888 186.701 298.094 187.648 297.508C188.608 296.921 189.975 296.628 191.748 296.628ZM193.228 302.828C192.095 302.828 191.255 302.954 190.708 303.208C190.175 303.448 189.908 303.774 189.908 304.188C189.908 304.854 190.361 305.188 191.268 305.188C191.788 305.188 192.241 305.048 192.628 304.768C193.028 304.488 193.228 304.141 193.228 303.728V302.828ZM204.168 292.688C204.461 292.688 204.828 292.728 205.268 292.808C205.708 292.874 206.061 292.954 206.328 293.048V295.388H205.408C204.981 295.388 204.688 295.468 204.528 295.628C204.368 295.788 204.288 296.061 204.288 296.448V296.868H206.328V299.568H204.288V307.428H200.308V299.568H198.828V296.868H200.308V296.428C200.308 295.068 200.641 294.108 201.308 293.548C201.975 292.974 202.928 292.688 204.168 292.688ZM211.821 292.688C212.088 292.688 212.415 292.728 212.801 292.808C213.188 292.874 213.501 292.954 213.741 293.048V295.388H213.021C212.595 295.388 212.308 295.468 212.161 295.628C212.015 295.788 211.941 296.061 211.941 296.448V296.868H213.741V299.568H211.941V307.428H207.961V299.568H206.601V296.868H207.961V296.428C207.961 295.068 208.295 294.108 208.961 293.548C209.628 292.974 210.581 292.688 211.821 292.688ZM214.581 295.628V292.928H218.561V295.628H214.581ZM214.581 307.428V296.868H218.561V307.428H214.581ZM228.261 296.628C229.488 296.628 230.408 296.968 231.021 297.648C231.635 298.328 231.941 299.308 231.941 300.588V307.428H227.961V301.068C227.961 300.614 227.841 300.254 227.601 299.988C227.375 299.708 227.048 299.568 226.621 299.568C226.128 299.568 225.728 299.728 225.421 300.048C225.115 300.368 224.961 300.761 224.961 301.228V307.428H220.981V296.868H224.241L224.501 298.468C224.915 297.908 225.455 297.461 226.121 297.128C226.801 296.794 227.515 296.628 228.261 296.628ZM246.201 294.888C246.201 295.701 245.994 296.328 245.581 296.768C245.181 297.208 244.574 297.534 243.761 297.748C244.148 298.041 244.448 298.388 244.661 298.788C244.888 299.174 245.001 299.588 245.001 300.028C245.001 301.148 244.574 301.994 243.721 302.568C242.881 303.141 241.828 303.428 240.561 303.428H239.041C238.201 303.428 237.781 303.621 237.781 304.008C237.781 304.194 237.874 304.348 238.061 304.468C238.248 304.574 238.574 304.628 239.041 304.628H242.641C243.814 304.628 244.701 304.934 245.301 305.548C245.901 306.161 246.201 306.981 246.201 308.008C246.201 308.768 246.001 309.421 245.601 309.968C245.201 310.514 244.661 310.928 243.981 311.208C243.301 311.488 242.561 311.628 241.761 311.628H235.881C235.401 311.628 234.954 311.514 234.541 311.288C234.141 311.061 233.821 310.748 233.581 310.348C233.341 309.961 233.221 309.528 233.221 309.048C233.221 308.528 233.381 308.054 233.701 307.628C234.021 307.214 234.421 306.901 234.901 306.688C234.581 306.461 234.328 306.188 234.141 305.868C233.954 305.548 233.861 305.201 233.861 304.828C233.861 304.308 234.054 303.841 234.441 303.428C234.828 303.001 235.308 302.714 235.881 302.568C235.361 302.234 234.948 301.854 234.641 301.428C234.334 300.988 234.181 300.528 234.181 300.048C234.181 298.821 234.674 297.948 235.661 297.428C236.661 296.894 237.981 296.628 239.621 296.628C240.341 296.628 240.921 296.668 241.361 296.748C242.014 296.334 242.434 295.961 242.621 295.628C242.821 295.281 242.921 295.034 242.921 294.888H246.201ZM239.581 298.708C239.141 298.708 238.781 298.821 238.501 299.048C238.221 299.274 238.081 299.601 238.081 300.028C238.081 300.468 238.208 300.801 238.461 301.028C238.728 301.241 239.101 301.348 239.581 301.348C240.061 301.348 240.434 301.241 240.701 301.028C240.981 300.801 241.121 300.468 241.121 300.028C241.121 299.588 240.981 299.261 240.701 299.048C240.434 298.821 240.061 298.708 239.581 298.708ZM238.041 307.428C237.734 307.428 237.481 307.508 237.281 307.668C237.094 307.841 237.001 308.081 237.001 308.388C237.001 308.694 237.101 308.941 237.301 309.128C237.501 309.314 237.748 309.408 238.041 309.408H241.161C241.454 309.408 241.701 309.314 241.901 309.128C242.114 308.954 242.221 308.714 242.221 308.408C242.221 308.101 242.121 307.861 241.921 307.688C241.721 307.514 241.468 307.428 241.161 307.428H238.041Z" fill="white"/>
<rect x="2" y="168.5" width="324" height="73.1836" stroke="#1A75BB" stroke-width="4"/>
<g filter="url(#filter2_d_1104_1090)">
<rect width="65.1802" height="302.119" rx="4" transform="matrix(0 -1 -1 0 316.5 199.088)" fill="#1A75BB"/>
</g>
<path d="M33.5686 159.525C35.3286 159.525 36.7753 159.885 37.9086 160.605C39.0419 161.312 39.6219 162.365 39.6486 163.765V164.005H35.5086V163.925C35.5086 163.525 35.3619 163.192 35.0686 162.925C34.7753 162.659 34.3286 162.525 33.7286 162.525C33.1419 162.525 32.6886 162.612 32.3686 162.785C32.0619 162.959 31.9086 163.172 31.9086 163.425C31.9086 163.785 32.1219 164.052 32.5486 164.225C32.9753 164.399 33.6619 164.579 34.6086 164.765C35.7153 164.992 36.6219 165.232 37.3286 165.485C38.0486 165.725 38.6753 166.125 39.2086 166.685C39.7419 167.245 40.0153 168.005 40.0286 168.965C40.0286 170.592 39.4753 171.799 38.3686 172.585C37.2753 173.372 35.8086 173.765 33.9686 173.765C31.8219 173.765 30.1486 173.405 28.9486 172.685C27.7619 171.965 27.1686 170.692 27.1686 168.865H31.3486C31.3486 169.559 31.5286 170.025 31.8886 170.265C32.2486 170.492 32.8086 170.605 33.5686 170.605C34.1286 170.605 34.5886 170.545 34.9486 170.425C35.3219 170.305 35.5086 170.059 35.5086 169.685C35.5086 169.352 35.3019 169.105 34.8886 168.945C34.4886 168.772 33.8286 168.592 32.9086 168.405C31.7886 168.165 30.8619 167.919 30.1286 167.665C29.3953 167.399 28.7553 166.965 28.2086 166.365C27.6619 165.765 27.3886 164.952 27.3886 163.925C27.3886 162.419 27.9686 161.312 29.1286 160.605C30.3019 159.885 31.7819 159.525 33.5686 159.525ZM48.9822 162.965V165.665H46.7422V169.685C46.7422 170.165 46.8222 170.519 46.9822 170.745C47.1422 170.959 47.4355 171.065 47.8622 171.065H48.9822V173.405C48.6622 173.512 48.2489 173.599 47.7422 173.665C47.2355 173.732 46.7955 173.765 46.4222 173.765C45.2489 173.765 44.3422 173.552 43.7022 173.125C43.0755 172.699 42.7622 171.972 42.7622 170.945V165.665H41.2822V162.965H42.9222L43.7822 159.765H46.7422V162.965H48.9822ZM56.0489 162.725C57.6622 162.725 58.9756 162.999 59.9889 163.545C61.0022 164.079 61.5089 164.952 61.5089 166.165V170.285C61.5089 170.512 61.5622 170.699 61.6689 170.845C61.7756 170.992 61.9356 171.065 62.1489 171.065H62.8689V173.365C62.8289 173.392 62.7222 173.439 62.5489 173.505C62.3889 173.559 62.1556 173.612 61.8489 173.665C61.5422 173.732 61.1889 173.765 60.7889 173.765C60.0156 173.765 59.3756 173.652 58.8689 173.425C58.3756 173.185 58.0356 172.859 57.8489 172.445C57.3422 172.845 56.7756 173.165 56.1489 173.405C55.5222 173.645 54.7889 173.765 53.9489 173.765C51.4689 173.765 50.2289 172.779 50.2289 170.805C50.2289 169.779 50.5022 168.999 51.0489 168.465C51.6089 167.919 52.4089 167.545 53.4489 167.345C54.4889 167.145 55.8489 167.045 57.5289 167.045V166.525C57.5289 166.112 57.3822 165.799 57.0889 165.585C56.8089 165.372 56.4422 165.265 55.9889 165.265C55.5756 165.265 55.2156 165.339 54.9089 165.485C54.6156 165.632 54.4689 165.865 54.4689 166.185V166.265H50.5489C50.5356 166.199 50.5289 166.105 50.5289 165.985C50.5289 164.985 51.0022 164.192 51.9489 163.605C52.9089 163.019 54.2756 162.725 56.0489 162.725ZM57.5289 168.925C56.3956 168.925 55.5556 169.052 55.0089 169.305C54.4756 169.545 54.2089 169.872 54.2089 170.285C54.2089 170.952 54.6622 171.285 55.5689 171.285C56.0889 171.285 56.5422 171.145 56.9289 170.865C57.3289 170.585 57.5289 170.239 57.5289 169.825V168.925ZM70.8767 162.965V165.665H68.6367V169.685C68.6367 170.165 68.7167 170.519 68.8767 170.745C69.0367 170.959 69.3301 171.065 69.7567 171.065H70.8767V173.405C70.5567 173.512 70.1434 173.599 69.6367 173.665C69.1301 173.732 68.6901 173.765 68.3167 173.765C67.1434 173.765 66.2367 173.552 65.5967 173.125C64.9701 172.699 64.6567 171.972 64.6567 170.945V165.665H63.1767V162.965H64.8167L65.6767 159.765H68.6367V162.965H70.8767ZM78.1834 162.725C80.1168 162.725 81.5901 163.179 82.6034 164.085C83.6301 164.992 84.1434 166.379 84.1434 168.245V168.925H76.2234C76.2234 169.685 76.3901 170.259 76.7234 170.645C77.0701 171.032 77.6101 171.225 78.3434 171.225C79.0101 171.225 79.4968 171.085 79.8034 170.805C80.1234 170.525 80.2834 170.152 80.2834 169.685H84.1434C84.1434 170.965 83.6568 171.965 82.6834 172.685C81.7101 173.405 80.2901 173.765 78.4234 173.765C76.4634 173.765 74.9434 173.312 73.8634 172.405C72.7834 171.485 72.2434 170.099 72.2434 168.245C72.2434 166.432 72.7701 165.059 73.8234 164.125C74.8768 163.192 76.3301 162.725 78.1834 162.725ZM78.3434 165.265C77.0901 165.265 76.3901 165.859 76.2434 167.045H80.1234C80.1234 166.499 79.9634 166.065 79.6434 165.745C79.3368 165.425 78.9034 165.265 78.3434 165.265ZM100.083 162.725C101.283 162.725 102.183 163.072 102.783 163.765C103.383 164.445 103.683 165.419 103.683 166.685V173.525H99.7033V167.165C99.7033 166.712 99.5899 166.352 99.3633 166.085C99.1499 165.805 98.8433 165.665 98.4433 165.665C97.9766 165.665 97.5966 165.825 97.3033 166.145C97.0099 166.465 96.8633 166.859 96.8633 167.325V173.525H92.8833V167.165C92.8833 166.712 92.7699 166.352 92.5433 166.085C92.3299 165.805 92.0233 165.665 91.6233 165.665C91.1566 165.665 90.7766 165.825 90.4833 166.145C90.1899 166.465 90.0433 166.859 90.0433 167.325V173.525H86.0633V162.965H89.3233L89.5833 164.545C89.9833 163.985 90.5099 163.545 91.1633 163.225C91.8299 162.892 92.5299 162.725 93.2633 162.725C94.8499 162.725 95.9166 163.332 96.4633 164.545C96.8766 163.985 97.4033 163.545 98.0433 163.225C98.6966 162.892 99.3766 162.725 100.083 162.725ZM111.523 162.725C113.457 162.725 114.93 163.179 115.943 164.085C116.97 164.992 117.483 166.379 117.483 168.245V168.925H109.563C109.563 169.685 109.73 170.259 110.063 170.645C110.41 171.032 110.95 171.225 111.683 171.225C112.35 171.225 112.837 171.085 113.143 170.805C113.463 170.525 113.623 170.152 113.623 169.685H117.483C117.483 170.965 116.997 171.965 116.023 172.685C115.05 173.405 113.63 173.765 111.763 173.765C109.803 173.765 108.283 173.312 107.203 172.405C106.123 171.485 105.583 170.099 105.583 168.245C105.583 166.432 106.11 165.059 107.163 164.125C108.217 163.192 109.67 162.725 111.523 162.725ZM111.683 165.265C110.43 165.265 109.73 165.859 109.583 167.045H113.463C113.463 166.499 113.303 166.065 112.983 165.745C112.677 165.425 112.243 165.265 111.683 165.265ZM126.683 162.725C127.91 162.725 128.83 163.065 129.443 163.745C130.056 164.425 130.363 165.405 130.363 166.685V173.525H126.383V167.165C126.383 166.712 126.263 166.352 126.023 166.085C125.796 165.805 125.47 165.665 125.043 165.665C124.55 165.665 124.15 165.825 123.843 166.145C123.536 166.465 123.383 166.859 123.383 167.325V173.525H119.403V162.965H122.663L122.923 164.565C123.336 164.005 123.876 163.559 124.543 163.225C125.223 162.892 125.936 162.725 126.683 162.725ZM139.783 162.965V165.665H137.543V169.685C137.543 170.165 137.623 170.519 137.783 170.745C137.943 170.959 138.236 171.065 138.663 171.065H139.783V173.405C139.463 173.512 139.05 173.599 138.543 173.665C138.036 173.732 137.596 173.765 137.223 173.765C136.05 173.765 135.143 173.552 134.503 173.125C133.876 172.699 133.563 171.972 133.563 170.945V165.665H132.083V162.965H133.723L134.583 159.765H137.543V162.965H139.783ZM153.75 162.725C155.603 162.725 157.057 163.199 158.11 164.145C159.177 165.079 159.71 166.445 159.71 168.245C159.71 170.045 159.177 171.419 158.11 172.365C157.057 173.299 155.603 173.765 153.75 173.765C151.897 173.765 150.443 173.299 149.39 172.365C148.337 171.432 147.81 170.059 147.81 168.245C147.81 166.432 148.337 165.059 149.39 164.125C150.443 163.192 151.897 162.725 153.75 162.725ZM153.75 165.425C152.443 165.425 151.79 166.179 151.79 167.685V168.825C151.79 170.319 152.443 171.065 153.75 171.065C155.07 171.065 155.73 170.319 155.73 168.825V167.685C155.73 166.179 155.07 165.425 153.75 165.425ZM165.93 158.785C166.223 158.785 166.59 158.825 167.03 158.905C167.47 158.972 167.823 159.052 168.09 159.145V161.485H167.17C166.743 161.485 166.45 161.565 166.29 161.725C166.13 161.885 166.05 162.159 166.05 162.545V162.965H168.09V165.665H166.05V173.525H162.07V165.665H160.59V162.965H162.07V162.525C162.07 161.165 162.403 160.205 163.07 159.645C163.736 159.072 164.69 158.785 165.93 158.785ZM187.836 173.525L186.056 165.145H185.976L184.196 173.525H179.336L176.116 159.765H180.716L182.296 167.565H182.376L183.936 159.765H188.296L189.956 167.565H190.036L191.516 159.765H195.916L192.696 173.525H187.836ZM202.148 162.725C204.002 162.725 205.455 163.199 206.508 164.145C207.575 165.079 208.108 166.445 208.108 168.245C208.108 170.045 207.575 171.419 206.508 172.365C205.455 173.299 204.002 173.765 202.148 173.765C200.295 173.765 198.842 173.299 197.788 172.365C196.735 171.432 196.208 170.059 196.208 168.245C196.208 166.432 196.735 165.059 197.788 164.125C198.842 163.192 200.295 162.725 202.148 162.725ZM202.148 165.425C200.842 165.425 200.188 166.179 200.188 167.685V168.825C200.188 170.319 200.842 171.065 202.148 171.065C203.468 171.065 204.128 170.319 204.128 168.825V167.685C204.128 166.179 203.468 165.425 202.148 165.425ZM216.448 162.705C216.755 162.705 217.028 162.745 217.268 162.825C217.508 162.892 217.628 162.932 217.628 162.945V166.285H216.348C215.521 166.285 214.921 166.499 214.548 166.925C214.188 167.352 214.008 167.985 214.008 168.825V173.525H210.028V162.965H213.288L213.548 164.565C213.788 163.952 214.168 163.492 214.688 163.185C215.208 162.865 215.795 162.705 216.448 162.705ZM226.939 162.965H231.579L227.679 167.225L231.679 173.525H227.159L224.939 169.905L223.559 171.245V173.525H219.579V159.005H223.559V167.005L226.939 162.965ZM245.479 158.785C244.692 160.012 244.052 161.465 243.559 163.145C243.066 164.812 242.819 166.352 242.819 167.765C242.819 169.192 243.066 170.739 243.559 172.405C244.052 174.059 244.692 175.499 245.479 176.725H243.079C241.932 175.499 241.046 174.105 240.419 172.545C239.792 170.985 239.479 169.392 239.479 167.765C239.479 166.125 239.792 164.525 240.419 162.965C241.046 161.405 241.932 160.012 243.079 158.785H245.479ZM253.412 159.525C255.172 159.525 256.619 159.885 257.752 160.605C258.886 161.312 259.466 162.365 259.492 163.765V164.005H255.352V163.925C255.352 163.525 255.206 163.192 254.912 162.925C254.619 162.659 254.172 162.525 253.572 162.525C252.986 162.525 252.532 162.612 252.212 162.785C251.906 162.959 251.752 163.172 251.752 163.425C251.752 163.785 251.966 164.052 252.392 164.225C252.819 164.399 253.506 164.579 254.452 164.765C255.559 164.992 256.466 165.232 257.172 165.485C257.892 165.725 258.519 166.125 259.052 166.685C259.586 167.245 259.859 168.005 259.872 168.965C259.872 170.592 259.319 171.799 258.212 172.585C257.119 173.372 255.652 173.765 253.812 173.765C251.666 173.765 249.992 173.405 248.792 172.685C247.606 171.965 247.012 170.692 247.012 168.865H251.192C251.192 169.559 251.372 170.025 251.732 170.265C252.092 170.492 252.652 170.605 253.412 170.605C253.972 170.605 254.432 170.545 254.792 170.425C255.166 170.305 255.352 170.059 255.352 169.685C255.352 169.352 255.146 169.105 254.732 168.945C254.332 168.772 253.672 168.592 252.752 168.405C251.632 168.165 250.706 167.919 249.972 167.665C249.239 167.399 248.599 166.965 248.052 166.365C247.506 165.765 247.232 164.952 247.232 163.925C247.232 162.419 247.812 161.312 248.972 160.605C250.146 159.885 251.626 159.525 253.412 159.525ZM268.906 159.525C271.279 159.525 273.113 160.132 274.406 161.345C275.699 162.559 276.346 164.325 276.346 166.645C276.346 168.965 275.699 170.732 274.406 171.945C273.113 173.159 271.279 173.765 268.906 173.765C266.533 173.765 264.699 173.165 263.406 171.965C262.126 170.752 261.486 168.979 261.486 166.645C261.486 164.312 262.126 162.545 263.406 161.345C264.699 160.132 266.533 159.525 268.906 159.525ZM268.906 162.825C267.959 162.825 267.239 163.112 266.746 163.685C266.253 164.259 266.006 165.032 266.006 166.005V167.285C266.006 168.259 266.253 169.032 266.746 169.605C267.239 170.179 267.959 170.465 268.906 170.465C269.853 170.465 270.573 170.179 271.066 169.605C271.573 169.032 271.826 168.259 271.826 167.285V166.005C271.826 165.032 271.573 164.259 271.066 163.685C270.573 163.112 269.853 162.825 268.906 162.825ZM288.734 173.525L286.954 165.145H286.874L285.094 173.525H280.234L277.014 159.765H281.614L283.194 167.565H283.274L284.834 159.765H289.194L290.854 167.565H290.934L292.414 159.765H296.814L293.594 173.525H288.734ZM299.994 158.785C301.141 160.012 302.027 161.405 302.654 162.965C303.281 164.525 303.594 166.125 303.594 167.765C303.594 169.392 303.281 170.985 302.654 172.545C302.027 174.105 301.141 175.499 299.994 176.725H297.594C298.381 175.499 299.021 174.059 299.514 172.405C300.007 170.739 300.254 169.192 300.254 167.765C300.254 166.352 300.007 164.812 299.514 163.145C299.021 161.465 298.381 160.012 297.594 158.785H299.994Z" fill="white"/>
<rect x="2" y="570.248" width="324" height="73.1836" stroke="#1A75BB" stroke-width="4"/>
<g filter="url(#filter3_d_1104_1090)">
<rect width="65.1802" height="302.119" rx="4" transform="matrix(0 -1 -1 0 316.5 600.836)" fill="#1A75BB"/>
</g>
<path d="M39.5086 561.513C40.3619 561.513 41.1219 561.713 41.7886 562.113C42.4553 562.5 42.9753 563.04 43.3486 563.733C43.7219 564.413 43.9086 565.18 43.9086 566.033V566.293C43.9086 567.147 43.7219 567.92 43.3486 568.613C42.9753 569.307 42.4553 569.853 41.7886 570.253C41.1219 570.64 40.3619 570.833 39.5086 570.833H36.2086V575.273H31.7886V561.513H39.5086ZM36.2086 567.613H38.0286C38.4953 567.613 38.8419 567.493 39.0686 567.253C39.3086 567.013 39.4286 566.687 39.4286 566.273V566.113C39.4286 565.687 39.3086 565.36 39.0686 565.133C38.8419 564.893 38.4953 564.773 38.0286 564.773H36.2086V567.613ZM50.8302 564.473C52.4435 564.473 53.7568 564.747 54.7702 565.293C55.7835 565.827 56.2902 566.7 56.2902 567.913V572.033C56.2902 572.26 56.3435 572.447 56.4502 572.593C56.5568 572.74 56.7168 572.813 56.9302 572.813H57.6502V575.113C57.6102 575.14 57.5035 575.187 57.3302 575.253C57.1702 575.307 56.9368 575.36 56.6302 575.413C56.3235 575.48 55.9702 575.513 55.5702 575.513C54.7968 575.513 54.1568 575.4 53.6502 575.173C53.1568 574.933 52.8168 574.607 52.6302 574.193C52.1235 574.593 51.5568 574.913 50.9302 575.153C50.3035 575.393 49.5702 575.513 48.7302 575.513C46.2502 575.513 45.0102 574.527 45.0102 572.553C45.0102 571.527 45.2835 570.747 45.8302 570.213C46.3902 569.667 47.1902 569.293 48.2302 569.093C49.2702 568.893 50.6302 568.793 52.3102 568.793V568.273C52.3102 567.86 52.1635 567.547 51.8702 567.333C51.5902 567.12 51.2235 567.013 50.7702 567.013C50.3568 567.013 49.9968 567.087 49.6902 567.233C49.3968 567.38 49.2502 567.613 49.2502 567.933V568.013H45.3302C45.3168 567.947 45.3102 567.853 45.3102 567.733C45.3102 566.733 45.7835 565.94 46.7302 565.353C47.6902 564.767 49.0568 564.473 50.8302 564.473ZM52.3102 570.673C51.1768 570.673 50.3368 570.8 49.7902 571.053C49.2568 571.293 48.9902 571.62 48.9902 572.033C48.9902 572.7 49.4435 573.033 50.3502 573.033C50.8702 573.033 51.3235 572.893 51.7102 572.613C52.1102 572.333 52.3102 571.987 52.3102 571.573V570.673ZM66.21 574.953C65.6633 576.433 64.99 577.553 64.19 578.313C63.4033 579.087 62.2967 579.473 60.87 579.473C60.0033 579.473 59.2367 579.353 58.57 579.113V576.733H60.17C61.17 576.733 61.7633 576.247 61.95 575.273L57.75 564.713H62.03L64.05 571.733H64.19L66.05 564.713H69.97L66.21 574.953ZM77.5966 564.453C77.9032 564.453 78.1766 564.493 78.4166 564.573C78.6566 564.64 78.7766 564.68 78.7766 564.693V568.033H77.4966C76.6699 568.033 76.0699 568.247 75.6966 568.673C75.3366 569.1 75.1566 569.733 75.1566 570.573V575.273H71.1766V564.713H74.4366L74.6966 566.313C74.9366 565.7 75.3166 565.24 75.8366 564.933C76.3566 564.613 76.9432 564.453 77.5966 564.453ZM85.8358 564.473C87.6891 564.473 89.1424 564.947 90.1958 565.893C91.2624 566.827 91.7958 568.193 91.7958 569.993C91.7958 571.793 91.2624 573.167 90.1958 574.113C89.1424 575.047 87.6891 575.513 85.8358 575.513C83.9824 575.513 82.5291 575.047 81.4758 574.113C80.4224 573.18 79.8958 571.807 79.8958 569.993C79.8958 568.18 80.4224 566.807 81.4758 565.873C82.5291 564.94 83.9824 564.473 85.8358 564.473ZM85.8358 567.173C84.5291 567.173 83.8758 567.927 83.8758 569.433V570.573C83.8758 572.067 84.5291 572.813 85.8358 572.813C87.1558 572.813 87.8158 572.067 87.8158 570.573V569.433C87.8158 567.927 87.1558 567.173 85.8358 567.173ZM93.8556 575.273V560.773H97.8356V575.273H93.8556ZM100.516 575.273V560.773H104.496V575.273H100.516ZM119.756 561.273C121.516 561.273 122.963 561.633 124.096 562.353C125.229 563.06 125.809 564.113 125.836 565.513V565.753H121.696V565.673C121.696 565.273 121.549 564.94 121.256 564.673C120.963 564.407 120.516 564.273 119.916 564.273C119.329 564.273 118.876 564.36 118.556 564.533C118.249 564.707 118.096 564.92 118.096 565.173C118.096 565.533 118.309 565.8 118.736 565.973C119.163 566.147 119.849 566.327 120.796 566.513C121.903 566.74 122.809 566.98 123.516 567.233C124.236 567.473 124.863 567.873 125.396 568.433C125.929 568.993 126.203 569.753 126.216 570.713C126.216 572.34 125.663 573.547 124.556 574.333C123.463 575.12 121.996 575.513 120.156 575.513C118.009 575.513 116.336 575.153 115.136 574.433C113.949 573.713 113.356 572.44 113.356 570.613H117.536C117.536 571.307 117.716 571.773 118.076 572.013C118.436 572.24 118.996 572.353 119.756 572.353C120.316 572.353 120.776 572.293 121.136 572.173C121.509 572.053 121.696 571.807 121.696 571.433C121.696 571.1 121.489 570.853 121.076 570.693C120.676 570.52 120.016 570.34 119.096 570.153C117.976 569.913 117.049 569.667 116.316 569.413C115.583 569.147 114.943 568.713 114.396 568.113C113.849 567.513 113.576 566.7 113.576 565.673C113.576 564.167 114.156 563.06 115.316 562.353C116.489 561.633 117.969 561.273 119.756 561.273ZM133.59 564.473C135.523 564.473 136.996 564.927 138.01 565.833C139.036 566.74 139.55 568.127 139.55 569.993V570.673H131.63C131.63 571.433 131.796 572.007 132.13 572.393C132.476 572.78 133.016 572.973 133.75 572.973C134.416 572.973 134.903 572.833 135.21 572.553C135.53 572.273 135.69 571.9 135.69 571.433H139.55C139.55 572.713 139.063 573.713 138.09 574.433C137.116 575.153 135.696 575.513 133.83 575.513C131.87 575.513 130.35 575.06 129.27 574.153C128.19 573.233 127.65 571.847 127.65 569.993C127.65 568.18 128.176 566.807 129.23 565.873C130.283 564.94 131.736 564.473 133.59 564.473ZM133.75 567.013C132.496 567.013 131.796 567.607 131.65 568.793H135.53C135.53 568.247 135.37 567.813 135.05 567.493C134.743 567.173 134.31 567.013 133.75 567.013ZM147.89 564.453C148.196 564.453 148.47 564.493 148.71 564.573C148.95 564.64 149.07 564.68 149.07 564.693V568.033H147.79C146.963 568.033 146.363 568.247 145.99 568.673C145.63 569.1 145.45 569.733 145.45 570.573V575.273H141.47V564.713H144.73L144.99 566.313C145.23 565.7 145.61 565.24 146.13 564.933C146.65 564.613 147.236 564.453 147.89 564.453ZM154.309 575.273L150.309 564.713H154.589L156.529 571.293H156.669L158.609 564.713H162.529L158.489 575.273H154.309ZM163.875 563.473V560.773H167.855V563.473H163.875ZM163.875 575.273V564.713H167.855V575.273H163.875ZM175.855 564.473C177.589 564.473 178.989 564.847 180.055 565.593C181.135 566.327 181.675 567.453 181.675 568.973H177.815C177.815 567.773 177.162 567.173 175.855 567.173C174.549 567.173 173.895 567.927 173.895 569.433V570.573C173.895 572.067 174.575 572.813 175.935 572.813C177.295 572.813 177.975 572.2 177.975 570.973H181.675C181.675 572.507 181.135 573.647 180.055 574.393C178.989 575.14 177.589 575.513 175.855 575.513C174.002 575.513 172.549 575.047 171.495 574.113C170.442 573.18 169.915 571.807 169.915 569.993C169.915 568.18 170.442 566.807 171.495 565.873C172.549 564.94 174.002 564.473 175.855 564.473ZM189.195 564.473C191.128 564.473 192.602 564.927 193.615 565.833C194.642 566.74 195.155 568.127 195.155 569.993V570.673H187.235C187.235 571.433 187.402 572.007 187.735 572.393C188.082 572.78 188.622 572.973 189.355 572.973C190.022 572.973 190.508 572.833 190.815 572.553C191.135 572.273 191.295 571.9 191.295 571.433H195.155C195.155 572.713 194.668 573.713 193.695 574.433C192.722 575.153 191.302 575.513 189.435 575.513C187.475 575.513 185.955 575.06 184.875 574.153C183.795 573.233 183.255 571.847 183.255 569.993C183.255 568.18 183.782 566.807 184.835 565.873C185.888 564.94 187.342 564.473 189.195 564.473ZM189.355 567.013C188.102 567.013 187.402 567.607 187.255 568.793H191.135C191.135 568.247 190.975 567.813 190.655 567.493C190.348 567.173 189.915 567.013 189.355 567.013ZM202.095 564.473C203.508 564.473 204.702 564.753 205.675 565.313C206.662 565.86 207.155 566.713 207.155 567.873H203.455C203.455 567.487 203.282 567.213 202.935 567.053C202.695 566.92 202.395 566.853 202.035 566.853C201.075 566.853 200.595 567.08 200.595 567.533C200.595 567.787 200.762 567.967 201.095 568.073C201.428 568.18 201.975 568.293 202.735 568.413C203.668 568.547 204.448 568.707 205.075 568.893C205.702 569.067 206.248 569.387 206.715 569.853C207.182 570.307 207.415 570.947 207.415 571.773C207.415 573.12 206.908 574.08 205.895 574.653C204.895 575.227 203.582 575.513 201.955 575.513C201.022 575.513 200.142 575.387 199.315 575.133C198.488 574.867 197.815 574.46 197.295 573.913C196.775 573.367 196.515 572.673 196.515 571.833H200.215V571.913C200.228 572.367 200.415 572.687 200.775 572.873C201.148 573.047 201.542 573.133 201.955 573.133C203.062 573.133 203.615 572.873 203.615 572.353C203.615 572.087 203.442 571.893 203.095 571.773C202.748 571.653 202.182 571.527 201.395 571.393C200.448 571.233 199.668 571.06 199.055 570.873C198.455 570.687 197.928 570.373 197.475 569.933C197.022 569.48 196.795 568.853 196.795 568.053C196.795 566.76 197.282 565.84 198.255 565.293C199.242 564.747 200.522 564.473 202.095 564.473Z" fill="white"/>
<rect x="2" y="436.338" width="324" height="73.1836" stroke="#1A75BB" stroke-width="4"/>
<g filter="url(#filter4_d_1104_1090)">
<rect width="86.7915" height="302.119" rx="4" transform="matrix(0 -1 -1 0 316.5 488.518)" fill="#1A75BB"/>
</g>
<path d="M44.8486 431.823C44.8486 432.663 44.6219 433.423 44.1686 434.103C43.7153 434.783 43.0553 435.283 42.1886 435.603L45.2486 441.363H40.2886L37.8486 436.343H36.2086V441.363H31.7886V427.603H40.2086C41.1953 427.603 42.0353 427.797 42.7286 428.183C43.4353 428.557 43.9619 429.07 44.3086 429.723C44.6686 430.363 44.8486 431.063 44.8486 431.823ZM40.3486 432.003C40.3486 431.643 40.2286 431.343 39.9886 431.103C39.7486 430.863 39.4553 430.743 39.1086 430.743H36.2086V433.283H39.1086C39.4553 433.283 39.7486 433.163 39.9886 432.923C40.2286 432.67 40.3486 432.363 40.3486 432.003ZM52.0272 430.563C53.9605 430.563 55.4339 431.017 56.4472 431.923C57.4739 432.83 57.9872 434.217 57.9872 436.083V436.763H50.0672C50.0672 437.523 50.2339 438.097 50.5672 438.483C50.9139 438.87 51.4539 439.063 52.1872 439.063C52.8539 439.063 53.3405 438.923 53.6472 438.643C53.9672 438.363 54.1272 437.99 54.1272 437.523H57.9872C57.9872 438.803 57.5005 439.803 56.5272 440.523C55.5539 441.243 54.1339 441.603 52.2672 441.603C50.3072 441.603 48.7872 441.15 47.7072 440.243C46.6272 439.323 46.0872 437.937 46.0872 436.083C46.0872 434.27 46.6139 432.897 47.6672 431.963C48.7205 431.03 50.1739 430.563 52.0272 430.563ZM52.1872 433.103C50.9339 433.103 50.2339 433.697 50.0872 434.883H53.9672C53.9672 434.337 53.8072 433.903 53.4872 433.583C53.1805 433.263 52.7472 433.103 52.1872 433.103ZM65.367 430.563C67.1004 430.563 68.5004 430.937 69.567 431.683C70.647 432.417 71.187 433.543 71.187 435.063H67.327C67.327 433.863 66.6737 433.263 65.367 433.263C64.0604 433.263 63.407 434.017 63.407 435.523V436.663C63.407 438.157 64.087 438.903 65.447 438.903C66.807 438.903 67.487 438.29 67.487 437.063H71.187C71.187 438.597 70.647 439.737 69.567 440.483C68.5004 441.23 67.1004 441.603 65.367 441.603C63.5137 441.603 62.0604 441.137 61.007 440.203C59.9537 439.27 59.427 437.897 59.427 436.083C59.427 434.27 59.9537 432.897 61.007 431.963C62.0604 431.03 63.5137 430.563 65.367 430.563ZM79.6669 430.543C79.9735 430.543 80.2469 430.583 80.4869 430.663C80.7269 430.73 80.8469 430.77 80.8469 430.783V434.123H79.5669C78.7402 434.123 78.1402 434.337 77.7669 434.763C77.4069 435.19 77.2269 435.823 77.2269 436.663V441.363H73.2469V430.803H76.5069L76.7669 432.403C77.0069 431.79 77.3869 431.33 77.9069 431.023C78.4269 430.703 79.0135 430.543 79.6669 430.543ZM90.4577 441.363L90.1977 439.763C89.7843 440.337 89.2377 440.79 88.5577 441.123C87.891 441.443 87.1843 441.603 86.4377 441.603C85.211 441.603 84.291 441.263 83.6777 440.583C83.0643 439.903 82.7577 438.923 82.7577 437.643V430.803H86.7377V437.163C86.7377 437.617 86.851 437.983 87.0777 438.263C87.3177 438.53 87.651 438.663 88.0777 438.663C88.571 438.663 88.971 438.503 89.2777 438.183C89.5843 437.863 89.7377 437.47 89.7377 437.003V430.803H93.7177V441.363H90.4577ZM96.2775 429.563V426.863H100.258V429.563H96.2775ZM96.2775 441.363V430.803H100.258V441.363H96.2775ZM109.838 430.803V433.503H107.598V437.523C107.598 438.003 107.678 438.357 107.838 438.583C107.998 438.797 108.291 438.903 108.718 438.903H109.838V441.243C109.518 441.35 109.104 441.437 108.598 441.503C108.091 441.57 107.651 441.603 107.278 441.603C106.104 441.603 105.198 441.39 104.558 440.963C103.931 440.537 103.618 439.81 103.618 438.783V433.503H102.138V430.803H103.778L104.638 427.603H107.598V430.803H109.838ZM125.704 430.563C126.904 430.563 127.804 430.91 128.404 431.603C129.004 432.283 129.304 433.257 129.304 434.523V441.363H125.324V435.003C125.324 434.55 125.211 434.19 124.984 433.923C124.771 433.643 124.464 433.503 124.064 433.503C123.598 433.503 123.218 433.663 122.924 433.983C122.631 434.303 122.484 434.697 122.484 435.163V441.363H118.504V435.003C118.504 434.55 118.391 434.19 118.164 433.923C117.951 433.643 117.644 433.503 117.244 433.503C116.778 433.503 116.398 433.663 116.104 433.983C115.811 434.303 115.664 434.697 115.664 435.163V441.363H111.684V430.803H114.944L115.204 432.383C115.604 431.823 116.131 431.383 116.784 431.063C117.451 430.73 118.151 430.563 118.884 430.563C120.471 430.563 121.538 431.17 122.084 432.383C122.498 431.823 123.024 431.383 123.664 431.063C124.318 430.73 124.998 430.563 125.704 430.563ZM137.144 430.563C139.078 430.563 140.551 431.017 141.564 431.923C142.591 432.83 143.104 434.217 143.104 436.083V436.763H135.184C135.184 437.523 135.351 438.097 135.684 438.483C136.031 438.87 136.571 439.063 137.304 439.063C137.971 439.063 138.458 438.923 138.764 438.643C139.084 438.363 139.244 437.99 139.244 437.523H143.104C143.104 438.803 142.618 439.803 141.644 440.523C140.671 441.243 139.251 441.603 137.384 441.603C135.424 441.603 133.904 441.15 132.824 440.243C131.744 439.323 131.204 437.937 131.204 436.083C131.204 434.27 131.731 432.897 132.784 431.963C133.838 431.03 135.291 430.563 137.144 430.563ZM137.304 433.103C136.051 433.103 135.351 433.697 135.204 434.883H139.084C139.084 434.337 138.924 433.903 138.604 433.583C138.298 433.263 137.864 433.103 137.304 433.103ZM152.304 430.563C153.531 430.563 154.451 430.903 155.064 431.583C155.678 432.263 155.984 433.243 155.984 434.523V441.363H152.004V435.003C152.004 434.55 151.884 434.19 151.644 433.923C151.418 433.643 151.091 433.503 150.664 433.503C150.171 433.503 149.771 433.663 149.464 433.983C149.158 434.303 149.004 434.697 149.004 435.163V441.363H145.024V430.803H148.284L148.544 432.403C148.958 431.843 149.498 431.397 150.164 431.063C150.844 430.73 151.558 430.563 152.304 430.563ZM165.404 430.803V433.503H163.164V437.523C163.164 438.003 163.244 438.357 163.404 438.583C163.564 438.797 163.857 438.903 164.284 438.903H165.404V441.243C165.084 441.35 164.671 441.437 164.164 441.503C163.657 441.57 163.217 441.603 162.844 441.603C161.671 441.603 160.764 441.39 160.124 440.963C159.497 440.537 159.184 439.81 159.184 438.783V433.503H157.704V430.803H159.344L160.204 427.603H163.164V430.803H165.404ZM181.911 427.603C182.764 427.603 183.524 427.803 184.191 428.203C184.858 428.59 185.378 429.13 185.751 429.823C186.124 430.503 186.311 431.27 186.311 432.123V432.383C186.311 433.237 186.124 434.01 185.751 434.703C185.378 435.397 184.858 435.943 184.191 436.343C183.524 436.73 182.764 436.923 181.911 436.923H178.611V441.363H174.191V427.603H181.911ZM178.611 433.703H180.431C180.898 433.703 181.244 433.583 181.471 433.343C181.711 433.103 181.831 432.777 181.831 432.363V432.203C181.831 431.777 181.711 431.45 181.471 431.223C181.244 430.983 180.898 430.863 180.431 430.863H178.611V433.703ZM194.765 430.543C195.071 430.543 195.345 430.583 195.585 430.663C195.825 430.73 195.945 430.77 195.945 430.783V434.123H194.665C193.838 434.123 193.238 434.337 192.865 434.763C192.505 435.19 192.325 435.823 192.325 436.663V441.363H188.345V430.803H191.605L191.865 432.403C192.105 431.79 192.485 431.33 193.005 431.023C193.525 430.703 194.111 430.543 194.765 430.543ZM203.004 430.563C204.857 430.563 206.31 431.037 207.364 431.983C208.43 432.917 208.964 434.283 208.964 436.083C208.964 437.883 208.43 439.257 207.364 440.203C206.31 441.137 204.857 441.603 203.004 441.603C201.15 441.603 199.697 441.137 198.644 440.203C197.59 439.27 197.064 437.897 197.064 436.083C197.064 434.27 197.59 432.897 198.644 431.963C199.697 431.03 201.15 430.563 203.004 430.563ZM203.004 433.263C201.697 433.263 201.044 434.017 201.044 435.523V436.663C201.044 438.157 201.697 438.903 203.004 438.903C204.324 438.903 204.984 438.157 204.984 436.663V435.523C204.984 434.017 204.324 433.263 203.004 433.263ZM216.344 430.563C218.077 430.563 219.477 430.937 220.544 431.683C221.624 432.417 222.164 433.543 222.164 435.063H218.304C218.304 433.863 217.65 433.263 216.344 433.263C215.037 433.263 214.384 434.017 214.384 435.523V436.663C214.384 438.157 215.064 438.903 216.424 438.903C217.784 438.903 218.464 438.29 218.464 437.063H222.164C222.164 438.597 221.624 439.737 220.544 440.483C219.477 441.23 218.077 441.603 216.344 441.603C214.49 441.603 213.037 441.137 211.984 440.203C210.93 439.27 210.404 437.897 210.404 436.083C210.404 434.27 210.93 432.897 211.984 431.963C213.037 431.03 214.49 430.563 216.344 430.563ZM229.683 430.563C231.617 430.563 233.09 431.017 234.103 431.923C235.13 432.83 235.643 434.217 235.643 436.083V436.763H227.723C227.723 437.523 227.89 438.097 228.223 438.483C228.57 438.87 229.11 439.063 229.843 439.063C230.51 439.063 230.997 438.923 231.303 438.643C231.623 438.363 231.783 437.99 231.783 437.523H235.643C235.643 438.803 235.157 439.803 234.183 440.523C233.21 441.243 231.79 441.603 229.923 441.603C227.963 441.603 226.443 441.15 225.363 440.243C224.283 439.323 223.743 437.937 223.743 436.083C223.743 434.27 224.27 432.897 225.323 431.963C226.377 431.03 227.83 430.563 229.683 430.563ZM229.843 433.103C228.59 433.103 227.89 433.697 227.743 434.883H231.623C231.623 434.337 231.463 433.903 231.143 433.583C230.837 433.263 230.403 433.103 229.843 433.103ZM242.583 430.563C243.997 430.563 245.19 430.843 246.163 431.403C247.15 431.95 247.643 432.803 247.643 433.963H243.943C243.943 433.577 243.77 433.303 243.423 433.143C243.183 433.01 242.883 432.943 242.523 432.943C241.563 432.943 241.083 433.17 241.083 433.623C241.083 433.877 241.25 434.057 241.583 434.163C241.917 434.27 242.463 434.383 243.223 434.503C244.157 434.637 244.937 434.797 245.563 434.983C246.19 435.157 246.737 435.477 247.203 435.943C247.67 436.397 247.903 437.037 247.903 437.863C247.903 439.21 247.397 440.17 246.383 440.743C245.383 441.317 244.07 441.603 242.443 441.603C241.51 441.603 240.63 441.477 239.803 441.223C238.977 440.957 238.303 440.55 237.783 440.003C237.263 439.457 237.003 438.763 237.003 437.923H240.703V438.003C240.717 438.457 240.903 438.777 241.263 438.963C241.637 439.137 242.03 439.223 242.443 439.223C243.55 439.223 244.103 438.963 244.103 438.443C244.103 438.177 243.93 437.983 243.583 437.863C243.237 437.743 242.67 437.617 241.883 437.483C240.937 437.323 240.157 437.15 239.543 436.963C238.943 436.777 238.417 436.463 237.963 436.023C237.51 435.57 237.283 434.943 237.283 434.143C237.283 432.85 237.77 431.93 238.743 431.383C239.73 430.837 241.01 430.563 242.583 430.563ZM254.81 430.563C256.223 430.563 257.417 430.843 258.39 431.403C259.377 431.95 259.87 432.803 259.87 433.963H256.17C256.17 433.577 255.997 433.303 255.65 433.143C255.41 433.01 255.11 432.943 254.75 432.943C253.79 432.943 253.31 433.17 253.31 433.623C253.31 433.877 253.477 434.057 253.81 434.163C254.143 434.27 254.69 434.383 255.45 434.503C256.383 434.637 257.163 434.797 257.79 434.983C258.417 435.157 258.963 435.477 259.43 435.943C259.897 436.397 260.13 437.037 260.13 437.863C260.13 439.21 259.623 440.17 258.61 440.743C257.61 441.317 256.297 441.603 254.67 441.603C253.737 441.603 252.857 441.477 252.03 441.223C251.203 440.957 250.53 440.55 250.01 440.003C249.49 439.457 249.23 438.763 249.23 437.923H252.93V438.003C252.943 438.457 253.13 438.777 253.49 438.963C253.863 439.137 254.257 439.223 254.67 439.223C255.777 439.223 256.33 438.963 256.33 438.443C256.33 438.177 256.157 437.983 255.81 437.863C255.463 437.743 254.897 437.617 254.11 437.483C253.163 437.323 252.383 437.15 251.77 436.963C251.17 436.777 250.643 436.463 250.19 436.023C249.737 435.57 249.51 434.943 249.51 434.143C249.51 432.85 249.997 431.93 250.97 431.383C251.957 430.837 253.237 430.563 254.81 430.563ZM38.6286 449.363C41.0019 449.363 42.8353 449.97 44.1286 451.183C45.4219 452.397 46.0686 454.163 46.0686 456.483C46.0686 458.803 45.4219 460.57 44.1286 461.783C42.8353 462.997 41.0019 463.603 38.6286 463.603C36.2553 463.603 34.4219 463.003 33.1286 461.803C31.8486 460.59 31.2086 458.817 31.2086 456.483C31.2086 454.15 31.8486 452.383 33.1286 451.183C34.4219 449.97 36.2553 449.363 38.6286 449.363ZM38.6286 452.663C37.6819 452.663 36.9619 452.95 36.4686 453.523C35.9753 454.097 35.7286 454.87 35.7286 455.843V457.123C35.7286 458.097 35.9753 458.87 36.4686 459.443C36.9619 460.017 37.6819 460.303 38.6286 460.303C39.5753 460.303 40.2953 460.017 40.7886 459.443C41.2953 458.87 41.5486 458.097 41.5486 457.123V455.843C41.5486 454.87 41.2953 454.097 40.7886 453.523C40.2953 452.95 39.5753 452.663 38.6286 452.663ZM55.8288 463.363L55.5688 461.763C55.1554 462.337 54.6088 462.79 53.9288 463.123C53.2621 463.443 52.5554 463.603 51.8088 463.603C50.5821 463.603 49.6621 463.263 49.0488 462.583C48.4354 461.903 48.1288 460.923 48.1288 459.643V452.803H52.1087V459.163C52.1087 459.617 52.2221 459.983 52.4488 460.263C52.6888 460.53 53.0221 460.663 53.4488 460.663C53.9421 460.663 54.3421 460.503 54.6488 460.183C54.9554 459.863 55.1088 459.47 55.1088 459.003V452.803H59.0888V463.363H55.8288ZM68.5486 452.803V455.503H66.3086V459.523C66.3086 460.003 66.3886 460.357 66.5486 460.583C66.7086 460.797 67.0019 460.903 67.4286 460.903H68.5486V463.243C68.2286 463.35 67.8153 463.437 67.3086 463.503C66.8019 463.57 66.3619 463.603 65.9886 463.603C64.8153 463.603 63.9086 463.39 63.2686 462.963C62.6419 462.537 62.3286 461.81 62.3286 460.783V455.503H60.8486V452.803H62.4886L63.3486 449.603H66.3086V452.803H68.5486ZM75.4153 452.563C76.8286 452.563 78.022 452.843 78.9953 453.403C79.982 453.95 80.4753 454.803 80.4753 455.963H76.7753C76.7753 455.577 76.602 455.303 76.2553 455.143C76.0153 455.01 75.7153 454.943 75.3553 454.943C74.3953 454.943 73.9153 455.17 73.9153 455.623C73.9153 455.877 74.082 456.057 74.4153 456.163C74.7486 456.27 75.2953 456.383 76.0553 456.503C76.9886 456.637 77.7686 456.797 78.3953 456.983C79.022 457.157 79.5686 457.477 80.0353 457.943C80.502 458.397 80.7353 459.037 80.7353 459.863C80.7353 461.21 80.2286 462.17 79.2153 462.743C78.2153 463.317 76.902 463.603 75.2753 463.603C74.342 463.603 73.462 463.477 72.6353 463.223C71.8086 462.957 71.1353 462.55 70.6153 462.003C70.0953 461.457 69.8353 460.763 69.8353 459.923H73.5353V460.003C73.5486 460.457 73.7353 460.777 74.0953 460.963C74.4686 461.137 74.862 461.223 75.2753 461.223C76.382 461.223 76.9353 460.963 76.9353 460.443C76.9353 460.177 76.762 459.983 76.4153 459.863C76.0686 459.743 75.502 459.617 74.7153 459.483C73.7686 459.323 72.9886 459.15 72.3753 458.963C71.7753 458.777 71.2486 458.463 70.7953 458.023C70.342 457.57 70.1153 456.943 70.1153 456.143C70.1153 454.85 70.602 453.93 71.5753 453.383C72.562 452.837 73.842 452.563 75.4153 452.563ZM88.0819 452.563C89.9352 452.563 91.3885 453.037 92.4419 453.983C93.5085 454.917 94.0419 456.283 94.0419 458.083C94.0419 459.883 93.5085 461.257 92.4419 462.203C91.3885 463.137 89.9352 463.603 88.0819 463.603C86.2285 463.603 84.7752 463.137 83.7219 462.203C82.6685 461.27 82.1419 459.897 82.1419 458.083C82.1419 456.27 82.6685 454.897 83.7219 453.963C84.7752 453.03 86.2285 452.563 88.0819 452.563ZM88.0819 455.263C86.7752 455.263 86.1219 456.017 86.1219 457.523V458.663C86.1219 460.157 86.7752 460.903 88.0819 460.903C89.4019 460.903 90.0619 460.157 90.0619 458.663V457.523C90.0619 456.017 89.4019 455.263 88.0819 455.263ZM103.622 463.363L103.362 461.763C102.948 462.337 102.402 462.79 101.722 463.123C101.055 463.443 100.348 463.603 99.6017 463.603C98.3751 463.603 97.4551 463.263 96.8417 462.583C96.2284 461.903 95.9217 460.923 95.9217 459.643V452.803H99.9017V459.163C99.9017 459.617 100.015 459.983 100.242 460.263C100.482 460.53 100.815 460.663 101.242 460.663C101.735 460.663 102.135 460.503 102.442 460.183C102.748 459.863 102.902 459.47 102.902 459.003V452.803H106.882V463.363H103.622ZM115.722 452.543C116.028 452.543 116.302 452.583 116.542 452.663C116.782 452.73 116.902 452.77 116.902 452.783V456.123H115.622C114.795 456.123 114.195 456.337 113.822 456.763C113.462 457.19 113.282 457.823 113.282 458.663V463.363H109.302V452.803H112.562L112.822 454.403C113.062 453.79 113.442 453.33 113.962 453.023C114.482 452.703 115.068 452.543 115.722 452.543ZM123.98 452.563C125.714 452.563 127.114 452.937 128.18 453.683C129.26 454.417 129.8 455.543 129.8 457.063H125.94C125.94 455.863 125.287 455.263 123.98 455.263C122.674 455.263 122.02 456.017 122.02 457.523V458.663C122.02 460.157 122.7 460.903 124.06 460.903C125.42 460.903 126.1 460.29 126.1 459.063H129.8C129.8 460.597 129.26 461.737 128.18 462.483C127.114 463.23 125.714 463.603 123.98 463.603C122.127 463.603 120.674 463.137 119.62 462.203C118.567 461.27 118.04 459.897 118.04 458.083C118.04 456.27 118.567 454.897 119.62 453.963C120.674 453.03 122.127 452.563 123.98 452.563ZM132 451.563V448.863H135.98V451.563H132ZM132 463.363V452.803H135.98V463.363H132ZM145.8 452.563C147.027 452.563 147.947 452.903 148.56 453.583C149.174 454.263 149.48 455.243 149.48 456.523V463.363H145.5V457.003C145.5 456.55 145.38 456.19 145.14 455.923C144.914 455.643 144.587 455.503 144.16 455.503C143.667 455.503 143.267 455.663 142.96 455.983C142.654 456.303 142.5 456.697 142.5 457.163V463.363H138.52V452.803H141.78L142.04 454.403C142.454 453.843 142.994 453.397 143.66 453.063C144.34 452.73 145.054 452.563 145.8 452.563ZM163.74 450.823C163.74 451.637 163.533 452.263 163.12 452.703C162.72 453.143 162.113 453.47 161.3 453.683C161.687 453.977 161.987 454.323 162.2 454.723C162.427 455.11 162.54 455.523 162.54 455.963C162.54 457.083 162.113 457.93 161.26 458.503C160.42 459.077 159.367 459.363 158.1 459.363H156.58C155.74 459.363 155.32 459.557 155.32 459.943C155.32 460.13 155.413 460.283 155.6 460.403C155.787 460.51 156.113 460.563 156.58 460.563H160.18C161.353 460.563 162.24 460.87 162.84 461.483C163.44 462.097 163.74 462.917 163.74 463.943C163.74 464.703 163.54 465.357 163.14 465.903C162.74 466.45 162.2 466.863 161.52 467.143C160.84 467.423 160.1 467.563 159.3 467.563H153.42C152.94 467.563 152.493 467.45 152.08 467.223C151.68 466.997 151.36 466.683 151.12 466.283C150.88 465.897 150.76 465.463 150.76 464.983C150.76 464.463 150.92 463.99 151.24 463.563C151.56 463.15 151.96 462.837 152.44 462.623C152.12 462.397 151.867 462.123 151.68 461.803C151.493 461.483 151.4 461.137 151.4 460.763C151.4 460.243 151.593 459.777 151.98 459.363C152.367 458.937 152.847 458.65 153.42 458.503C152.9 458.17 152.487 457.79 152.18 457.363C151.873 456.923 151.72 456.463 151.72 455.983C151.72 454.757 152.213 453.883 153.2 453.363C154.2 452.83 155.52 452.563 157.16 452.563C157.88 452.563 158.46 452.603 158.9 452.683C159.553 452.27 159.973 451.897 160.16 451.563C160.36 451.217 160.46 450.97 160.46 450.823H163.74ZM157.12 454.643C156.68 454.643 156.32 454.757 156.04 454.983C155.76 455.21 155.62 455.537 155.62 455.963C155.62 456.403 155.747 456.737 156 456.963C156.267 457.177 156.64 457.283 157.12 457.283C157.6 457.283 157.973 457.177 158.24 456.963C158.52 456.737 158.66 456.403 158.66 455.963C158.66 455.523 158.52 455.197 158.24 454.983C157.973 454.757 157.6 454.643 157.12 454.643ZM155.58 463.363C155.273 463.363 155.02 463.443 154.82 463.603C154.633 463.777 154.54 464.017 154.54 464.323C154.54 464.63 154.64 464.877 154.84 465.063C155.04 465.25 155.287 465.343 155.58 465.343H158.7C158.993 465.343 159.24 465.25 159.44 465.063C159.653 464.89 159.76 464.65 159.76 464.343C159.76 464.037 159.66 463.797 159.46 463.623C159.26 463.45 159.007 463.363 158.7 463.363H155.58ZM177.76 448.623C176.973 449.85 176.333 451.303 175.84 452.983C175.347 454.65 175.1 456.19 175.1 457.603C175.1 459.03 175.347 460.577 175.84 462.243C176.333 463.897 176.973 465.337 177.76 466.563H175.36C174.213 465.337 173.327 463.943 172.7 462.383C172.073 460.823 171.76 459.23 171.76 457.603C171.76 455.963 172.073 454.363 172.7 452.803C173.327 451.243 174.213 449.85 175.36 448.623H177.76ZM192.974 453.823C192.974 454.663 192.747 455.423 192.294 456.103C191.84 456.783 191.18 457.283 190.314 457.603L193.374 463.363H188.414L185.974 458.343H184.334V463.363H179.914V449.603H188.334C189.32 449.603 190.16 449.797 190.854 450.183C191.56 450.557 192.087 451.07 192.434 451.723C192.794 452.363 192.974 453.063 192.974 453.823ZM188.474 454.003C188.474 453.643 188.354 453.343 188.114 453.103C187.874 452.863 187.58 452.743 187.234 452.743H184.334V455.283H187.234C187.58 455.283 187.874 455.163 188.114 454.923C188.354 454.67 188.474 454.363 188.474 454.003ZM203.2 449.603C204.053 449.603 204.813 449.803 205.48 450.203C206.147 450.59 206.667 451.13 207.04 451.823C207.413 452.503 207.6 453.27 207.6 454.123V454.383C207.6 455.237 207.413 456.01 207.04 456.703C206.667 457.397 206.147 457.943 205.48 458.343C204.813 458.73 204.053 458.923 203.2 458.923H199.9V463.363H195.48V449.603H203.2ZM199.9 455.703H201.72C202.187 455.703 202.533 455.583 202.76 455.343C203 455.103 203.12 454.777 203.12 454.363V454.203C203.12 453.777 203 453.45 202.76 453.223C202.533 452.983 202.187 452.863 201.72 452.863H199.9V455.703ZM216.754 449.363C219.127 449.363 220.96 449.97 222.254 451.183C223.547 452.397 224.194 454.163 224.194 456.483C224.194 458.803 223.547 460.57 222.254 461.783C220.96 462.997 219.127 463.603 216.754 463.603C214.38 463.603 212.547 463.003 211.254 461.803C209.974 460.59 209.334 458.817 209.334 456.483C209.334 454.15 209.974 452.383 211.254 451.183C212.547 449.97 214.38 449.363 216.754 449.363ZM216.754 452.663C215.807 452.663 215.087 452.95 214.594 453.523C214.1 454.097 213.854 454.87 213.854 455.843V457.123C213.854 458.097 214.1 458.87 214.594 459.443C215.087 460.017 215.807 460.303 216.754 460.303C217.7 460.303 218.42 460.017 218.914 459.443C219.42 458.87 219.674 458.097 219.674 457.123V455.843C219.674 454.87 219.42 454.097 218.914 453.523C218.42 452.95 217.7 452.663 216.754 452.663ZM228.174 448.623C229.32 449.85 230.207 451.243 230.834 452.803C231.46 454.363 231.774 455.963 231.774 457.603C231.774 459.23 231.46 460.823 230.834 462.383C230.207 463.943 229.32 465.337 228.174 466.563H225.774C226.56 465.337 227.2 463.897 227.694 462.243C228.187 460.577 228.434 459.03 228.434 457.603C228.434 456.19 228.187 454.65 227.694 452.983C227.2 451.303 226.56 449.85 225.774 448.623H228.174Z" fill="white"/>
<defs>
<filter id="filter0_d_1104_1090" x="14.3813" y="0" width="251.758" height="73.1797" filterUnits="userSpaceOnUse" color-interpolation-filters="sRGB">
<feFlood flood-opacity="0" result="BackgroundImageFix"/>
<feColorMatrix in="SourceAlpha" type="matrix" values="0 0 0 0 0 0 0 0 0 0 0 0 0 0 0 0 0 0 127 0" result="hardAlpha"/>
<feOffset dy="4"/>
<feGaussianBlur stdDeviation="2"/>
<feComposite in2="hardAlpha" operator="out"/>
<feColorMatrix type="matrix" values="0 0 0 0 0 0 0 0 0 0 0 0 0 0 0 0 0 0 0.25 0"/>
<feBlend mode="normal" in2="BackgroundImageFix" result="effect1_dropShadow_1104_1090"/>
<feBlend mode="normal" in="SourceGraphic" in2="effect1_dropShadow_1104_1090" result="shape"/>
</filter>
<filter id="filter1_d_1104_1090" x="14.3813" y="267.818" width="251.758" height="73.1797" filterUnits="userSpaceOnUse" color-interpolation-filters="sRGB">
<feFlood flood-opacity="0" result="BackgroundImageFix"/>
<feColorMatrix in="SourceAlpha" type="matrix" values="0 0 0 0 0 0 0 0 0 0 0 0 0 0 0 0 0 0 127 0" result="hardAlpha"/>
<feOffset dy="4"/>
<feGaussianBlur stdDeviation="2"/>
<feComposite in2="hardAlpha" operator="out"/>
<feColorMatrix type="matrix" values="0 0 0 0 0 0 0 0 0 0 0 0 0 0 0 0 0 0 0.25 0"/>
<feBlend mode="normal" in2="BackgroundImageFix" result="effect1_dropShadow_1104_1090"/>
<feBlend mode="normal" in="SourceGraphic" in2="effect1_dropShadow_1104_1090" result="shape"/>
</filter>
<filter id="filter2_d_1104_1090" x="10.3813" y="133.908" width="310.119" height="73.1797" filterUnits="userSpaceOnUse" color-interpolation-filters="sRGB">
<feFlood flood-opacity="0" result="BackgroundImageFix"/>
<feColorMatrix in="SourceAlpha" type="matrix" values="0 0 0 0 0 0 0 0 0 0 0 0 0 0 0 0 0 0 127 0" result="hardAlpha"/>
<feOffset dy="4"/>
<feGaussianBlur stdDeviation="2"/>
<feComposite in2="hardAlpha" operator="out"/>
<feColorMatrix type="matrix" values="0 0 0 0 0 0 0 0 0 0 0 0 0 0 0 0 0 0 0.25 0"/>
<feBlend mode="normal" in2="BackgroundImageFix" result="effect1_dropShadow_1104_1090"/>
<feBlend mode="normal" in="SourceGraphic" in2="effect1_dropShadow_1104_1090" result="shape"/>
</filter>
<filter id="filter3_d_1104_1090" x="10.3813" y="535.656" width="310.119" height="73.1797" filterUnits="userSpaceOnUse" color-interpolation-filters="sRGB">
<feFlood flood-opacity="0" result="BackgroundImageFix"/>
<feColorMatrix in="SourceAlpha" type="matrix" values="0 0 0 0 0 0 0 0 0 0 0 0 0 0 0 0 0 0 127 0" result="hardAlpha"/>
<feOffset dy="4"/>
<feGaussianBlur stdDeviation="2"/>
<feComposite in2="hardAlpha" operator="out"/>
<feColorMatrix type="matrix" values="0 0 0 0 0 0 0 0 0 0 0 0 0 0 0 0 0 0 0.25 0"/>
<feBlend mode="normal" in2="BackgroundImageFix" result="effect1_dropShadow_1104_1090"/>
<feBlend mode="normal" in="SourceGraphic" in2="effect1_dropShadow_1104_1090" result="shape"/>
</filter>
<filter id="filter4_d_1104_1090" x="10.3813" y="401.727" width="310.119" height="94.791" filterUnits="userSpaceOnUse" color-interpolation-filters="sRGB">
<feFlood flood-opacity="0" result="BackgroundImageFix"/>
<feColorMatrix in="SourceAlpha" type="matrix" values="0 0 0 0 0 0 0 0 0 0 0 0 0 0 0 0 0 0 127 0" result="hardAlpha"/>
<feOffset dy="4"/>
<feGaussianBlur stdDeviation="2"/>
<feComposite in2="hardAlpha" operator="out"/>
<feColorMatrix type="matrix" values="0 0 0 0 0 0 0 0 0 0 0 0 0 0 0 0 0 0 0.25 0"/>
<feBlend mode="normal" in2="BackgroundImageFix" result="effect1_dropShadow_1104_1090"/>
<feBlend mode="normal" in="SourceGraphic" in2="effect1_dropShadow_1104_1090" result="shape"/>
</filter>
</defs>
</svg>
