<svg width="673" height="648" viewBox="0 0 673 648" fill="none" xmlns="http://www.w3.org/2000/svg">
<rect x="2" y="34.5898" width="668.799" height="73.1836" stroke="#1A75BB" stroke-width="4"/>
<g filter="url(#filter0_d_1104_1068)">
<rect width="65.1802" height="500" rx="4" transform="matrix(0 -1 -1 0 537.704 65.1797)" fill="#1A75BB"/>
</g>
<path d="M75.7483 25.8298C80.5617 25.8298 82.9684 28.1232 82.9684 32.7098C82.9684 37.2965 80.5617 39.5898 75.7483 39.5898H69.7883V25.8298H75.7483ZM74.2083 36.2898H75.6684C77.5217 36.2898 78.4484 35.2965 78.4484 33.3098V32.1098C78.4484 30.1232 77.5217 29.1298 75.6684 29.1298H74.2083V36.2898ZM85.2148 27.7898V25.0898H89.1948V27.7898H85.2148ZM85.2148 39.5898V29.0298H89.1948V39.5898H85.2148ZM98.1549 28.7698C98.4616 28.7698 98.7349 28.8098 98.9749 28.8898C99.2149 28.9565 99.3349 28.9965 99.3349 29.0098V32.3498H98.0549C97.2282 32.3498 96.6282 32.5632 96.2549 32.9898C95.8949 33.4165 95.7149 34.0498 95.7149 34.8898V39.5898H91.7349V29.0298H94.9949L95.2549 30.6298C95.4949 30.0165 95.8749 29.5565 96.3949 29.2498C96.9149 28.9298 97.5016 28.7698 98.1549 28.7698ZM106.394 28.7898C108.327 28.7898 109.801 29.2432 110.814 30.1498C111.841 31.0565 112.354 32.4432 112.354 34.3098V34.9898H104.434C104.434 35.7498 104.601 36.3232 104.934 36.7098C105.281 37.0965 105.821 37.2898 106.554 37.2898C107.221 37.2898 107.707 37.1498 108.014 36.8698C108.334 36.5898 108.494 36.2165 108.494 35.7498H112.354C112.354 37.0298 111.867 38.0298 110.894 38.7498C109.921 39.4698 108.501 39.8298 106.634 39.8298C104.674 39.8298 103.154 39.3765 102.074 38.4698C100.994 37.5498 100.454 36.1632 100.454 34.3098C100.454 32.4965 100.981 31.1232 102.034 30.1898C103.087 29.2565 104.541 28.7898 106.394 28.7898ZM106.554 31.3298C105.301 31.3298 104.601 31.9232 104.454 33.1098H108.334C108.334 32.5632 108.174 32.1298 107.854 31.8098C107.547 31.4898 107.114 31.3298 106.554 31.3298ZM119.734 28.7898C121.467 28.7898 122.867 29.1632 123.934 29.9098C125.014 30.6432 125.554 31.7698 125.554 33.2898H121.694C121.694 32.0898 121.041 31.4898 119.734 31.4898C118.427 31.4898 117.774 32.2432 117.774 33.7498V34.8898C117.774 36.3832 118.454 37.1298 119.814 37.1298C121.174 37.1298 121.854 36.5165 121.854 35.2898H125.554C125.554 36.8232 125.014 37.9632 123.934 38.7098C122.867 39.4565 121.467 39.8298 119.734 39.8298C117.881 39.8298 116.427 39.3632 115.374 38.4298C114.321 37.4965 113.794 36.1232 113.794 34.3098C113.794 32.4965 114.321 31.1232 115.374 30.1898C116.427 29.2565 117.881 28.7898 119.734 28.7898ZM134.654 29.0298V31.7298H132.414V35.7498C132.414 36.2298 132.494 36.5832 132.654 36.8098C132.814 37.0232 133.107 37.1298 133.534 37.1298H134.654V39.4698C134.334 39.5765 133.92 39.6632 133.414 39.7298C132.907 39.7965 132.467 39.8298 132.094 39.8298C130.92 39.8298 130.014 39.6165 129.374 39.1898C128.747 38.7632 128.434 38.0365 128.434 37.0098V31.7298H126.954V29.0298H128.594L129.454 25.8298H132.414V29.0298H134.654ZM152.721 39.5898V34.3698H147.861V39.5898H143.441V25.8298H147.861V30.8498H152.721V25.8298H157.141V39.5898H152.721ZM159.961 27.7898V25.0898H163.941V27.7898H159.961ZM159.961 39.5898V29.0298H163.941V39.5898H159.961ZM172.901 28.7698C173.208 28.7698 173.481 28.8098 173.721 28.8898C173.961 28.9565 174.081 28.9965 174.081 29.0098V32.3498H172.801C171.974 32.3498 171.374 32.5632 171.001 32.9898C170.641 33.4165 170.461 34.0498 170.461 34.8898V39.5898H166.481V29.0298H169.741L170.001 30.6298C170.241 30.0165 170.621 29.5565 171.141 29.2498C171.661 28.9298 172.248 28.7698 172.901 28.7698ZM181.14 28.7898C183.074 28.7898 184.547 29.2432 185.56 30.1498C186.587 31.0565 187.1 32.4432 187.1 34.3098V34.9898H179.18C179.18 35.7498 179.347 36.3232 179.68 36.7098C180.027 37.0965 180.567 37.2898 181.3 37.2898C181.967 37.2898 182.454 37.1498 182.76 36.8698C183.08 36.5898 183.24 36.2165 183.24 35.7498H187.1C187.1 37.0298 186.614 38.0298 185.64 38.7498C184.667 39.4698 183.247 39.8298 181.38 39.8298C179.42 39.8298 177.9 39.3765 176.82 38.4698C175.74 37.5498 175.2 36.1632 175.2 34.3098C175.2 32.4965 175.727 31.1232 176.78 30.1898C177.834 29.2565 179.287 28.7898 181.14 28.7898ZM181.3 31.3298C180.047 31.3298 179.347 31.9232 179.2 33.1098H183.08C183.08 32.5632 182.92 32.1298 182.6 31.8098C182.294 31.4898 181.86 31.3298 181.3 31.3298Z" fill="white"/>
<rect x="2" y="169.057" width="668.799" height="73.1836" stroke="#1A75BB" stroke-width="4"/>
<g filter="url(#filter1_d_1104_1068)">
<rect width="65.1802" height="500" rx="4" transform="matrix(0 -1 -1 0 537.704 199.646)" fill="#1A75BB"/>
</g>
<path d="M75.5683 160.057C77.3284 160.057 78.775 160.417 79.9084 161.137C81.0417 161.843 81.6217 162.897 81.6484 164.297V164.537H77.5083V164.457C77.5083 164.057 77.3617 163.723 77.0684 163.457C76.775 163.19 76.3283 163.057 75.7284 163.057C75.1417 163.057 74.6883 163.143 74.3683 163.317C74.0617 163.49 73.9083 163.703 73.9083 163.957C73.9083 164.317 74.1217 164.583 74.5483 164.757C74.975 164.93 75.6617 165.11 76.6084 165.297C77.715 165.523 78.6217 165.763 79.3283 166.017C80.0483 166.257 80.675 166.657 81.2084 167.217C81.7417 167.777 82.015 168.537 82.0284 169.497C82.0284 171.123 81.475 172.33 80.3684 173.117C79.275 173.903 77.8084 174.297 75.9683 174.297C73.8217 174.297 72.1483 173.937 70.9483 173.217C69.7617 172.497 69.1683 171.223 69.1683 169.397H73.3483C73.3483 170.09 73.5283 170.557 73.8883 170.797C74.2484 171.023 74.8083 171.137 75.5683 171.137C76.1284 171.137 76.5884 171.077 76.9483 170.957C77.3217 170.837 77.5083 170.59 77.5083 170.217C77.5083 169.883 77.3017 169.637 76.8884 169.477C76.4883 169.303 75.8283 169.123 74.9083 168.937C73.7883 168.697 72.8617 168.45 72.1283 168.197C71.395 167.93 70.755 167.497 70.2083 166.897C69.6617 166.297 69.3883 165.483 69.3883 164.457C69.3883 162.95 69.9683 161.843 71.1283 161.137C72.3017 160.417 73.7817 160.057 75.5683 160.057ZM90.9819 163.497V166.197H88.7419V170.217C88.7419 170.697 88.8219 171.05 88.9819 171.277C89.1419 171.49 89.4353 171.597 89.8619 171.597H90.9819V173.937C90.6619 174.043 90.2486 174.13 89.7419 174.197C89.2353 174.263 88.7953 174.297 88.4219 174.297C87.2486 174.297 86.3419 174.083 85.7019 173.657C85.0753 173.23 84.7619 172.503 84.7619 171.477V166.197H83.2819V163.497H84.9219L85.7819 160.297H88.7419V163.497H90.9819ZM98.0487 163.257C99.662 163.257 100.975 163.53 101.989 164.077C103.002 164.61 103.509 165.483 103.509 166.697V170.817C103.509 171.043 103.562 171.23 103.669 171.377C103.775 171.523 103.935 171.597 104.149 171.597H104.869V173.897C104.829 173.923 104.722 173.97 104.549 174.037C104.389 174.09 104.155 174.143 103.849 174.197C103.542 174.263 103.189 174.297 102.789 174.297C102.015 174.297 101.375 174.183 100.869 173.957C100.375 173.717 100.035 173.39 99.8487 172.977C99.342 173.377 98.7753 173.697 98.1487 173.937C97.522 174.177 96.7887 174.297 95.9487 174.297C93.4687 174.297 92.2287 173.31 92.2287 171.337C92.2287 170.31 92.502 169.53 93.0487 168.997C93.6087 168.45 94.4087 168.077 95.4487 167.877C96.4887 167.677 97.8487 167.577 99.5287 167.577V167.057C99.5287 166.643 99.382 166.33 99.0887 166.117C98.8087 165.903 98.442 165.797 97.9887 165.797C97.5753 165.797 97.2153 165.87 96.9087 166.017C96.6153 166.163 96.4687 166.397 96.4687 166.717V166.797H92.5487C92.5353 166.73 92.5287 166.637 92.5287 166.517C92.5287 165.517 93.002 164.723 93.9487 164.137C94.9087 163.55 96.2753 163.257 98.0487 163.257ZM99.5287 169.457C98.3953 169.457 97.5553 169.583 97.0087 169.837C96.4753 170.077 96.2087 170.403 96.2087 170.817C96.2087 171.483 96.662 171.817 97.5687 171.817C98.0887 171.817 98.542 171.677 98.9287 171.397C99.3287 171.117 99.5287 170.77 99.5287 170.357V169.457ZM112.876 163.497V166.197H110.636V170.217C110.636 170.697 110.716 171.05 110.876 171.277C111.036 171.49 111.33 171.597 111.756 171.597H112.876V173.937C112.556 174.043 112.143 174.13 111.636 174.197C111.13 174.263 110.69 174.297 110.316 174.297C109.143 174.297 108.236 174.083 107.596 173.657C106.97 173.23 106.656 172.503 106.656 171.477V166.197H105.176V163.497H106.816L107.676 160.297H110.636V163.497H112.876ZM120.183 163.257C122.117 163.257 123.59 163.71 124.603 164.617C125.63 165.523 126.143 166.91 126.143 168.777V169.457H118.223C118.223 170.217 118.39 170.79 118.723 171.177C119.07 171.563 119.61 171.757 120.343 171.757C121.01 171.757 121.497 171.617 121.803 171.337C122.123 171.057 122.283 170.683 122.283 170.217H126.143C126.143 171.497 125.657 172.497 124.683 173.217C123.71 173.937 122.29 174.297 120.423 174.297C118.463 174.297 116.943 173.843 115.863 172.937C114.783 172.017 114.243 170.63 114.243 168.777C114.243 166.963 114.77 165.59 115.823 164.657C116.877 163.723 118.33 163.257 120.183 163.257ZM120.343 165.797C119.09 165.797 118.39 166.39 118.243 167.577H122.123C122.123 167.03 121.963 166.597 121.643 166.277C121.337 165.957 120.903 165.797 120.343 165.797ZM142.083 163.257C143.283 163.257 144.183 163.603 144.783 164.297C145.383 164.977 145.683 165.95 145.683 167.217V174.057H141.703V167.697C141.703 167.243 141.59 166.883 141.363 166.617C141.15 166.337 140.843 166.197 140.443 166.197C139.976 166.197 139.596 166.357 139.303 166.677C139.01 166.997 138.863 167.39 138.863 167.857V174.057H134.883V167.697C134.883 167.243 134.77 166.883 134.543 166.617C134.33 166.337 134.023 166.197 133.623 166.197C133.156 166.197 132.776 166.357 132.483 166.677C132.19 166.997 132.043 167.39 132.043 167.857V174.057H128.063V163.497H131.323L131.583 165.077C131.983 164.517 132.51 164.077 133.163 163.757C133.83 163.423 134.53 163.257 135.263 163.257C136.85 163.257 137.916 163.863 138.463 165.077C138.876 164.517 139.403 164.077 140.043 163.757C140.696 163.423 141.376 163.257 142.083 163.257ZM153.523 163.257C155.456 163.257 156.93 163.71 157.943 164.617C158.97 165.523 159.483 166.91 159.483 168.777V169.457H151.563C151.563 170.217 151.73 170.79 152.063 171.177C152.41 171.563 152.95 171.757 153.683 171.757C154.35 171.757 154.836 171.617 155.143 171.337C155.463 171.057 155.623 170.683 155.623 170.217H159.483C159.483 171.497 158.996 172.497 158.023 173.217C157.05 173.937 155.63 174.297 153.763 174.297C151.803 174.297 150.283 173.843 149.203 172.937C148.123 172.017 147.583 170.63 147.583 168.777C147.583 166.963 148.11 165.59 149.163 164.657C150.216 163.723 151.67 163.257 153.523 163.257ZM153.683 165.797C152.43 165.797 151.73 166.39 151.583 167.577H155.463C155.463 167.03 155.303 166.597 154.983 166.277C154.676 165.957 154.243 165.797 153.683 165.797ZM168.683 163.257C169.91 163.257 170.83 163.597 171.443 164.277C172.056 164.957 172.363 165.937 172.363 167.217V174.057H168.383V167.697C168.383 167.243 168.263 166.883 168.023 166.617C167.796 166.337 167.47 166.197 167.043 166.197C166.55 166.197 166.15 166.357 165.843 166.677C165.536 166.997 165.383 167.39 165.383 167.857V174.057H161.403V163.497H164.663L164.923 165.097C165.336 164.537 165.876 164.09 166.543 163.757C167.223 163.423 167.936 163.257 168.683 163.257ZM181.783 163.497V166.197H179.543V170.217C179.543 170.697 179.623 171.05 179.783 171.277C179.943 171.49 180.236 171.597 180.663 171.597H181.783V173.937C181.463 174.043 181.049 174.13 180.543 174.197C180.036 174.263 179.596 174.297 179.223 174.297C178.049 174.297 177.143 174.083 176.503 173.657C175.876 173.23 175.563 172.503 175.563 171.477V166.197H174.083V163.497H175.723L176.583 160.297H179.543V163.497H181.783ZM195.75 163.257C197.603 163.257 199.056 163.73 200.11 164.677C201.176 165.61 201.71 166.977 201.71 168.777C201.71 170.577 201.176 171.95 200.11 172.897C199.056 173.83 197.603 174.297 195.75 174.297C193.896 174.297 192.443 173.83 191.39 172.897C190.336 171.963 189.81 170.59 189.81 168.777C189.81 166.963 190.336 165.59 191.39 164.657C192.443 163.723 193.896 163.257 195.75 163.257ZM195.75 165.957C194.443 165.957 193.79 166.71 193.79 168.217V169.357C193.79 170.85 194.443 171.597 195.75 171.597C197.07 171.597 197.73 170.85 197.73 169.357V168.217C197.73 166.71 197.07 165.957 195.75 165.957ZM207.929 159.317C208.223 159.317 208.589 159.357 209.029 159.437C209.469 159.503 209.823 159.583 210.089 159.677V162.017H209.169C208.743 162.017 208.449 162.097 208.289 162.257C208.129 162.417 208.049 162.69 208.049 163.077V163.497H210.089V166.197H208.049V174.057H204.069V166.197H202.589V163.497H204.069V163.057C204.069 161.697 204.403 160.737 205.069 160.177C205.736 159.603 206.689 159.317 207.929 159.317ZM229.835 174.057L228.055 165.677H227.975L226.195 174.057H221.335L218.115 160.297H222.715L224.295 168.097H224.375L225.935 160.297H230.295L231.955 168.097H232.035L233.515 160.297H237.915L234.695 174.057H229.835ZM244.148 163.257C246.001 163.257 247.455 163.73 248.508 164.677C249.575 165.61 250.108 166.977 250.108 168.777C250.108 170.577 249.575 171.95 248.508 172.897C247.455 173.83 246.001 174.297 244.148 174.297C242.295 174.297 240.841 173.83 239.788 172.897C238.735 171.963 238.208 170.59 238.208 168.777C238.208 166.963 238.735 165.59 239.788 164.657C240.841 163.723 242.295 163.257 244.148 163.257ZM244.148 165.957C242.841 165.957 242.188 166.71 242.188 168.217V169.357C242.188 170.85 242.841 171.597 244.148 171.597C245.468 171.597 246.128 170.85 246.128 169.357V168.217C246.128 166.71 245.468 165.957 244.148 165.957ZM258.448 163.237C258.755 163.237 259.028 163.277 259.268 163.357C259.508 163.423 259.628 163.463 259.628 163.477V166.817H258.348C257.521 166.817 256.921 167.03 256.548 167.457C256.188 167.883 256.008 168.517 256.008 169.357V174.057H252.028V163.497H255.288L255.548 165.097C255.788 164.483 256.168 164.023 256.688 163.717C257.208 163.397 257.795 163.237 258.448 163.237ZM268.939 163.497H273.579L269.679 167.757L273.679 174.057H269.159L266.939 170.437L265.559 171.777V174.057H261.579V159.537H265.559V167.537L268.939 163.497ZM287.479 159.317C286.692 160.543 286.052 161.997 285.559 163.677C285.065 165.343 284.819 166.883 284.819 168.297C284.819 169.723 285.065 171.27 285.559 172.937C286.052 174.59 286.692 176.03 287.479 177.257H285.079C283.932 176.03 283.045 174.637 282.419 173.077C281.792 171.517 281.479 169.923 281.479 168.297C281.479 166.657 281.792 165.057 282.419 163.497C283.045 161.937 283.932 160.543 285.079 159.317H287.479ZM295.412 160.057C297.172 160.057 298.619 160.417 299.752 161.137C300.885 161.843 301.465 162.897 301.492 164.297V164.537H297.352V164.457C297.352 164.057 297.205 163.723 296.912 163.457C296.619 163.19 296.172 163.057 295.572 163.057C294.985 163.057 294.532 163.143 294.212 163.317C293.905 163.49 293.752 163.703 293.752 163.957C293.752 164.317 293.965 164.583 294.392 164.757C294.819 164.93 295.505 165.11 296.452 165.297C297.559 165.523 298.465 165.763 299.172 166.017C299.892 166.257 300.519 166.657 301.052 167.217C301.585 167.777 301.859 168.537 301.872 169.497C301.872 171.123 301.319 172.33 300.212 173.117C299.119 173.903 297.652 174.297 295.812 174.297C293.665 174.297 291.992 173.937 290.792 173.217C289.605 172.497 289.012 171.223 289.012 169.397H293.192C293.192 170.09 293.372 170.557 293.732 170.797C294.092 171.023 294.652 171.137 295.412 171.137C295.972 171.137 296.432 171.077 296.792 170.957C297.165 170.837 297.352 170.59 297.352 170.217C297.352 169.883 297.145 169.637 296.732 169.477C296.332 169.303 295.672 169.123 294.752 168.937C293.632 168.697 292.705 168.45 291.972 168.197C291.239 167.93 290.599 167.497 290.052 166.897C289.505 166.297 289.232 165.483 289.232 164.457C289.232 162.95 289.812 161.843 290.972 161.137C292.145 160.417 293.625 160.057 295.412 160.057ZM310.906 160.057C313.279 160.057 315.112 160.663 316.406 161.877C317.699 163.09 318.346 164.857 318.346 167.177C318.346 169.497 317.699 171.263 316.406 172.477C315.112 173.69 313.279 174.297 310.906 174.297C308.532 174.297 306.699 173.697 305.406 172.497C304.126 171.283 303.486 169.51 303.486 167.177C303.486 164.843 304.126 163.077 305.406 161.877C306.699 160.663 308.532 160.057 310.906 160.057ZM310.906 163.357C309.959 163.357 309.239 163.643 308.746 164.217C308.252 164.79 308.006 165.563 308.006 166.537V167.817C308.006 168.79 308.252 169.563 308.746 170.137C309.239 170.71 309.959 170.997 310.906 170.997C311.852 170.997 312.572 170.71 313.066 170.137C313.572 169.563 313.826 168.79 313.826 167.817V166.537C313.826 165.563 313.572 164.79 313.066 164.217C312.572 163.643 311.852 163.357 310.906 163.357ZM330.734 174.057L328.954 165.677H328.874L327.094 174.057H322.234L319.014 160.297H323.614L325.194 168.097H325.274L326.834 160.297H331.194L332.854 168.097H332.934L334.414 160.297H338.814L335.594 174.057H330.734ZM341.994 159.317C343.14 160.543 344.027 161.937 344.654 163.497C345.28 165.057 345.594 166.657 345.594 168.297C345.594 169.923 345.28 171.517 344.654 173.077C344.027 174.637 343.14 176.03 341.994 177.257H339.594C340.38 176.03 341.02 174.59 341.514 172.937C342.007 171.27 342.254 169.723 342.254 168.297C342.254 166.883 342.007 165.343 341.514 163.677C341.02 161.997 340.38 160.543 339.594 159.317H341.994Z" fill="white"/>
<rect x="2" y="303.523" width="668.799" height="73.1836" stroke="#1A75BB" stroke-width="4"/>
<g filter="url(#filter2_d_1104_1068)">
<rect width="65.1802" height="500" rx="4" transform="matrix(0 -1 -1 0 537.704 334.113)" fill="#1A75BB"/>
</g>
<path d="M76.3483 294.523C78.3883 294.523 80.0017 295.037 81.1884 296.063C82.375 297.077 82.9684 298.53 82.9684 300.423H78.7483C78.7483 299.623 78.535 298.99 78.1083 298.523C77.695 298.057 77.1017 297.823 76.3284 297.823C75.435 297.823 74.775 298.103 74.3483 298.663C73.935 299.223 73.7284 300.003 73.7284 301.003V302.283C73.7284 303.27 73.935 304.05 74.3483 304.623C74.775 305.183 75.4217 305.463 76.2883 305.463C77.1417 305.463 77.7884 305.243 78.2284 304.803C78.6684 304.363 78.8884 303.743 78.8884 302.943H82.9684C82.9684 304.823 82.3884 306.263 81.2284 307.263C80.0817 308.263 78.455 308.763 76.3483 308.763C74.0017 308.763 72.2217 308.163 71.0083 306.963C69.8083 305.763 69.2083 303.99 69.2083 301.643C69.2083 299.297 69.8083 297.523 71.0083 296.323C72.2217 295.123 74.0017 294.523 76.3483 294.523ZM90.5348 297.723C92.3881 297.723 93.8414 298.197 94.8948 299.143C95.9614 300.077 96.4948 301.443 96.4948 303.243C96.4948 305.043 95.9614 306.417 94.8948 307.363C93.8414 308.297 92.3881 308.763 90.5348 308.763C88.6814 308.763 87.2281 308.297 86.1748 307.363C85.1214 306.43 84.5948 305.057 84.5948 303.243C84.5948 301.43 85.1214 300.057 86.1748 299.123C87.2281 298.19 88.6814 297.723 90.5348 297.723ZM90.5348 300.423C89.2281 300.423 88.5748 301.177 88.5748 302.683V303.823C88.5748 305.317 89.2281 306.063 90.5348 306.063C91.8548 306.063 92.5148 305.317 92.5148 303.823V302.683C92.5148 301.177 91.8548 300.423 90.5348 300.423ZM105.695 297.723C106.921 297.723 107.841 298.063 108.455 298.743C109.068 299.423 109.375 300.403 109.375 301.683V308.523H105.395V302.163C105.395 301.71 105.275 301.35 105.035 301.083C104.808 300.803 104.481 300.663 104.055 300.663C103.561 300.663 103.161 300.823 102.855 301.143C102.548 301.463 102.395 301.857 102.395 302.323V308.523H98.4146V297.963H101.675L101.935 299.563C102.348 299.003 102.888 298.557 103.555 298.223C104.235 297.89 104.948 297.723 105.695 297.723ZM118.794 297.963V300.663H116.554V304.683C116.554 305.163 116.634 305.517 116.794 305.743C116.954 305.957 117.248 306.063 117.674 306.063H118.794V308.403C118.474 308.51 118.061 308.597 117.554 308.663C117.048 308.73 116.608 308.763 116.234 308.763C115.061 308.763 114.154 308.55 113.514 308.123C112.888 307.697 112.574 306.97 112.574 305.943V300.663H111.094V297.963H112.734L113.594 294.763H116.554V297.963H118.794ZM120.781 296.723V294.023H124.761V296.723H120.781ZM120.781 308.523V297.963H124.761V308.523H120.781ZM134.581 297.723C135.808 297.723 136.728 298.063 137.341 298.743C137.955 299.423 138.261 300.403 138.261 301.683V308.523H134.281V302.163C134.281 301.71 134.161 301.35 133.921 301.083C133.695 300.803 133.368 300.663 132.941 300.663C132.448 300.663 132.048 300.823 131.741 301.143C131.435 301.463 131.281 301.857 131.281 302.323V308.523H127.301V297.963H130.561L130.821 299.563C131.235 299.003 131.775 298.557 132.441 298.223C133.121 297.89 133.835 297.723 134.581 297.723ZM152.521 295.983C152.521 296.797 152.314 297.423 151.901 297.863C151.501 298.303 150.894 298.63 150.081 298.843C150.468 299.137 150.768 299.483 150.981 299.883C151.208 300.27 151.321 300.683 151.321 301.123C151.321 302.243 150.894 303.09 150.041 303.663C149.201 304.237 148.148 304.523 146.881 304.523H145.361C144.521 304.523 144.101 304.717 144.101 305.103C144.101 305.29 144.194 305.443 144.381 305.563C144.568 305.67 144.894 305.723 145.361 305.723H148.961C150.134 305.723 151.021 306.03 151.621 306.643C152.221 307.257 152.521 308.077 152.521 309.103C152.521 309.863 152.321 310.517 151.921 311.063C151.521 311.61 150.981 312.023 150.301 312.303C149.621 312.583 148.881 312.723 148.081 312.723H142.201C141.721 312.723 141.274 312.61 140.861 312.383C140.461 312.157 140.141 311.843 139.901 311.443C139.661 311.057 139.541 310.623 139.541 310.143C139.541 309.623 139.701 309.15 140.021 308.723C140.341 308.31 140.741 307.997 141.221 307.783C140.901 307.557 140.648 307.283 140.461 306.963C140.274 306.643 140.181 306.297 140.181 305.923C140.181 305.403 140.374 304.937 140.761 304.523C141.148 304.097 141.628 303.81 142.201 303.663C141.681 303.33 141.268 302.95 140.961 302.523C140.654 302.083 140.501 301.623 140.501 301.143C140.501 299.917 140.994 299.043 141.981 298.523C142.981 297.99 144.301 297.723 145.941 297.723C146.661 297.723 147.241 297.763 147.681 297.843C148.334 297.43 148.754 297.057 148.941 296.723C149.141 296.377 149.241 296.13 149.241 295.983H152.521ZM145.901 299.803C145.461 299.803 145.101 299.917 144.821 300.143C144.541 300.37 144.401 300.697 144.401 301.123C144.401 301.563 144.528 301.897 144.781 302.123C145.048 302.337 145.421 302.443 145.901 302.443C146.381 302.443 146.754 302.337 147.021 302.123C147.301 301.897 147.441 301.563 147.441 301.123C147.441 300.683 147.301 300.357 147.021 300.143C146.754 299.917 146.381 299.803 145.901 299.803ZM144.361 308.523C144.054 308.523 143.801 308.603 143.601 308.763C143.414 308.937 143.321 309.177 143.321 309.483C143.321 309.79 143.421 310.037 143.621 310.223C143.821 310.41 144.068 310.503 144.361 310.503H147.481C147.774 310.503 148.021 310.41 148.221 310.223C148.434 310.05 148.541 309.81 148.541 309.503C148.541 309.197 148.441 308.957 148.241 308.783C148.041 308.61 147.788 308.523 147.481 308.523H144.361ZM159.441 297.723C161.374 297.723 162.848 298.177 163.861 299.083C164.888 299.99 165.401 301.377 165.401 303.243V303.923H157.481C157.481 304.683 157.648 305.257 157.981 305.643C158.328 306.03 158.868 306.223 159.601 306.223C160.268 306.223 160.754 306.083 161.061 305.803C161.381 305.523 161.541 305.15 161.541 304.683H165.401C165.401 305.963 164.914 306.963 163.941 307.683C162.968 308.403 161.548 308.763 159.681 308.763C157.721 308.763 156.201 308.31 155.121 307.403C154.041 306.483 153.501 305.097 153.501 303.243C153.501 301.43 154.028 300.057 155.081 299.123C156.134 298.19 157.588 297.723 159.441 297.723ZM159.601 300.263C158.348 300.263 157.648 300.857 157.501 302.043H161.381C161.381 301.497 161.221 301.063 160.901 300.743C160.594 300.423 160.161 300.263 159.601 300.263ZM174.601 297.723C175.828 297.723 176.748 298.063 177.361 298.743C177.974 299.423 178.281 300.403 178.281 301.683V308.523H174.301V302.163C174.301 301.71 174.181 301.35 173.941 301.083C173.714 300.803 173.388 300.663 172.961 300.663C172.468 300.663 172.068 300.823 171.761 301.143C171.454 301.463 171.301 301.857 171.301 302.323V308.523H167.321V297.963H170.581L170.841 299.563C171.254 299.003 171.794 298.557 172.461 298.223C173.141 297.89 173.854 297.723 174.601 297.723ZM187.701 297.963V300.663H185.461V304.683C185.461 305.163 185.541 305.517 185.701 305.743C185.861 305.957 186.154 306.063 186.581 306.063H187.701V308.403C187.381 308.51 186.967 308.597 186.461 308.663C185.954 308.73 185.514 308.763 185.141 308.763C183.967 308.763 183.061 308.55 182.421 308.123C181.794 307.697 181.481 306.97 181.481 305.943V300.663H180.001V297.963H181.641L182.501 294.763H185.461V297.963H187.701ZM202.268 294.523C204.028 294.523 205.474 294.883 206.608 295.603C207.741 296.31 208.321 297.363 208.348 298.763V299.003H204.208V298.923C204.208 298.523 204.061 298.19 203.768 297.923C203.474 297.657 203.028 297.523 202.428 297.523C201.841 297.523 201.388 297.61 201.068 297.783C200.761 297.957 200.608 298.17 200.608 298.423C200.608 298.783 200.821 299.05 201.248 299.223C201.674 299.397 202.361 299.577 203.308 299.763C204.414 299.99 205.321 300.23 206.028 300.483C206.748 300.723 207.374 301.123 207.908 301.683C208.441 302.243 208.714 303.003 208.728 303.963C208.728 305.59 208.174 306.797 207.068 307.583C205.974 308.37 204.508 308.763 202.668 308.763C200.521 308.763 198.848 308.403 197.648 307.683C196.461 306.963 195.868 305.69 195.868 303.863H200.048C200.048 304.557 200.228 305.023 200.588 305.263C200.948 305.49 201.508 305.603 202.268 305.603C202.828 305.603 203.288 305.543 203.648 305.423C204.021 305.303 204.208 305.057 204.208 304.683C204.208 304.35 204.001 304.103 203.588 303.943C203.188 303.77 202.528 303.59 201.608 303.403C200.488 303.163 199.561 302.917 198.828 302.663C198.094 302.397 197.454 301.963 196.908 301.363C196.361 300.763 196.088 299.95 196.088 298.923C196.088 297.417 196.668 296.31 197.828 295.603C199.001 294.883 200.481 294.523 202.268 294.523ZM217.681 297.963V300.663H215.441V304.683C215.441 305.163 215.521 305.517 215.681 305.743C215.841 305.957 216.134 306.063 216.561 306.063H217.681V308.403C217.361 308.51 216.948 308.597 216.441 308.663C215.934 308.73 215.494 308.763 215.121 308.763C213.948 308.763 213.041 308.55 212.401 308.123C211.774 307.697 211.461 306.97 211.461 305.943V300.663H209.981V297.963H211.621L212.481 294.763H215.441V297.963H217.681ZM224.748 297.723C226.361 297.723 227.675 297.997 228.688 298.543C229.701 299.077 230.208 299.95 230.208 301.163V305.283C230.208 305.51 230.261 305.697 230.368 305.843C230.475 305.99 230.635 306.063 230.848 306.063H231.568V308.363C231.528 308.39 231.421 308.437 231.248 308.503C231.088 308.557 230.855 308.61 230.548 308.663C230.241 308.73 229.888 308.763 229.488 308.763C228.715 308.763 228.075 308.65 227.568 308.423C227.075 308.183 226.735 307.857 226.548 307.443C226.041 307.843 225.475 308.163 224.848 308.403C224.221 308.643 223.488 308.763 222.648 308.763C220.168 308.763 218.928 307.777 218.928 305.803C218.928 304.777 219.201 303.997 219.748 303.463C220.308 302.917 221.108 302.543 222.148 302.343C223.188 302.143 224.548 302.043 226.228 302.043V301.523C226.228 301.11 226.081 300.797 225.788 300.583C225.508 300.37 225.141 300.263 224.688 300.263C224.275 300.263 223.915 300.337 223.608 300.483C223.315 300.63 223.168 300.863 223.168 301.183V301.263H219.248C219.235 301.197 219.228 301.103 219.228 300.983C219.228 299.983 219.701 299.19 220.648 298.603C221.608 298.017 222.975 297.723 224.748 297.723ZM226.228 303.923C225.095 303.923 224.255 304.05 223.708 304.303C223.175 304.543 222.908 304.87 222.908 305.283C222.908 305.95 223.361 306.283 224.268 306.283C224.788 306.283 225.241 306.143 225.628 305.863C226.028 305.583 226.228 305.237 226.228 304.823V303.923ZM237.168 293.783C237.461 293.783 237.828 293.823 238.268 293.903C238.708 293.97 239.061 294.05 239.328 294.143V296.483H238.408C237.981 296.483 237.688 296.563 237.528 296.723C237.368 296.883 237.288 297.157 237.288 297.543V297.963H239.328V300.663H237.288V308.523H233.308V300.663H231.828V297.963H233.308V297.523C233.308 296.163 233.641 295.203 234.308 294.643C234.974 294.07 235.928 293.783 237.168 293.783ZM244.821 293.783C245.088 293.783 245.414 293.823 245.801 293.903C246.188 293.97 246.501 294.05 246.741 294.143V296.483H246.021C245.594 296.483 245.308 296.563 245.161 296.723C245.014 296.883 244.941 297.157 244.941 297.543V297.963H246.741V300.663H244.941V308.523H240.961V300.663H239.601V297.963H240.961V297.523C240.961 296.163 241.294 295.203 241.961 294.643C242.628 294.07 243.581 293.783 244.821 293.783ZM247.581 296.723V294.023H251.561V296.723H247.581ZM247.581 308.523V297.963H251.561V308.523H247.581ZM261.261 297.723C262.488 297.723 263.408 298.063 264.021 298.743C264.634 299.423 264.941 300.403 264.941 301.683V308.523H260.961V302.163C260.961 301.71 260.841 301.35 260.601 301.083C260.374 300.803 260.048 300.663 259.621 300.663C259.128 300.663 258.728 300.823 258.421 301.143C258.114 301.463 257.961 301.857 257.961 302.323V308.523H253.981V297.963H257.241L257.501 299.563C257.914 299.003 258.454 298.557 259.121 298.223C259.801 297.89 260.514 297.723 261.261 297.723ZM279.201 295.983C279.201 296.797 278.994 297.423 278.581 297.863C278.181 298.303 277.574 298.63 276.761 298.843C277.148 299.137 277.448 299.483 277.661 299.883C277.888 300.27 278.001 300.683 278.001 301.123C278.001 302.243 277.574 303.09 276.721 303.663C275.881 304.237 274.828 304.523 273.561 304.523H272.041C271.201 304.523 270.781 304.717 270.781 305.103C270.781 305.29 270.874 305.443 271.061 305.563C271.248 305.67 271.574 305.723 272.041 305.723H275.641C276.814 305.723 277.701 306.03 278.301 306.643C278.901 307.257 279.201 308.077 279.201 309.103C279.201 309.863 279.001 310.517 278.601 311.063C278.201 311.61 277.661 312.023 276.981 312.303C276.301 312.583 275.561 312.723 274.761 312.723H268.881C268.401 312.723 267.954 312.61 267.541 312.383C267.141 312.157 266.821 311.843 266.581 311.443C266.341 311.057 266.221 310.623 266.221 310.143C266.221 309.623 266.381 309.15 266.701 308.723C267.021 308.31 267.421 307.997 267.901 307.783C267.581 307.557 267.328 307.283 267.141 306.963C266.954 306.643 266.861 306.297 266.861 305.923C266.861 305.403 267.054 304.937 267.441 304.523C267.828 304.097 268.308 303.81 268.881 303.663C268.361 303.33 267.948 302.95 267.641 302.523C267.334 302.083 267.181 301.623 267.181 301.143C267.181 299.917 267.674 299.043 268.661 298.523C269.661 297.99 270.981 297.723 272.621 297.723C273.341 297.723 273.921 297.763 274.361 297.843C275.014 297.43 275.434 297.057 275.621 296.723C275.821 296.377 275.921 296.13 275.921 295.983H279.201ZM272.581 299.803C272.141 299.803 271.781 299.917 271.501 300.143C271.221 300.37 271.081 300.697 271.081 301.123C271.081 301.563 271.208 301.897 271.461 302.123C271.728 302.337 272.101 302.443 272.581 302.443C273.061 302.443 273.434 302.337 273.701 302.123C273.981 301.897 274.121 301.563 274.121 301.123C274.121 300.683 273.981 300.357 273.701 300.143C273.434 299.917 273.061 299.803 272.581 299.803ZM271.041 308.523C270.734 308.523 270.481 308.603 270.281 308.763C270.094 308.937 270.001 309.177 270.001 309.483C270.001 309.79 270.101 310.037 270.301 310.223C270.501 310.41 270.748 310.503 271.041 310.503H274.161C274.454 310.503 274.701 310.41 274.901 310.223C275.114 310.05 275.221 309.81 275.221 309.503C275.221 309.197 275.121 308.957 274.921 308.783C274.721 308.61 274.468 308.523 274.161 308.523H271.041Z" fill="white"/>
<rect x="2" y="437.99" width="668.799" height="73.1836" stroke="#1A75BB" stroke-width="4"/>
<g filter="url(#filter3_d_1104_1068)">
<rect width="65.1802" height="500" rx="4" transform="matrix(0 -1 -1 0 537.704 468.58)" fill="#1A75BB"/>
</g>
<path d="M82.8484 433.45C82.8484 434.29 82.6217 435.05 82.1683 435.73C81.715 436.41 81.055 436.91 80.1884 437.23L83.2484 442.99H78.2883L75.8483 437.97H74.2083V442.99H69.7883V429.23H78.2084C79.195 429.23 80.035 429.424 80.7284 429.81C81.435 430.184 81.9617 430.697 82.3084 431.35C82.6684 431.99 82.8484 432.69 82.8484 433.45ZM78.3484 433.63C78.3484 433.27 78.2284 432.97 77.9884 432.73C77.7484 432.49 77.455 432.37 77.1084 432.37H74.2083V434.91H77.1084C77.455 434.91 77.7484 434.79 77.9884 434.55C78.2284 434.297 78.3484 433.99 78.3484 433.63ZM90.0269 432.19C91.9603 432.19 93.4336 432.644 94.4469 433.55C95.4736 434.457 95.9869 435.844 95.9869 437.71V438.39H88.0669C88.0669 439.15 88.2336 439.724 88.5669 440.11C88.9136 440.497 89.4536 440.69 90.1869 440.69C90.8536 440.69 91.3403 440.55 91.6469 440.27C91.9669 439.99 92.1269 439.617 92.1269 439.15H95.9869C95.9869 440.43 95.5003 441.43 94.5269 442.15C93.5536 442.87 92.1336 443.23 90.2669 443.23C88.3069 443.23 86.7869 442.777 85.7069 441.87C84.6269 440.95 84.0869 439.564 84.0869 437.71C84.0869 435.897 84.6136 434.524 85.6669 433.59C86.7203 432.657 88.1736 432.19 90.0269 432.19ZM90.1869 434.73C88.9336 434.73 88.2336 435.324 88.0869 436.51H91.9669C91.9669 435.964 91.8069 435.53 91.4869 435.21C91.1803 434.89 90.7469 434.73 90.1869 434.73ZM103.367 432.19C105.1 432.19 106.5 432.564 107.567 433.31C108.647 434.044 109.187 435.17 109.187 436.69H105.327C105.327 435.49 104.673 434.89 103.367 434.89C102.06 434.89 101.407 435.644 101.407 437.15V438.29C101.407 439.784 102.087 440.53 103.447 440.53C104.807 440.53 105.487 439.917 105.487 438.69H109.187C109.187 440.224 108.647 441.364 107.567 442.11C106.5 442.857 105.1 443.23 103.367 443.23C101.513 443.23 100.06 442.764 99.0068 441.83C97.9535 440.897 97.4268 439.524 97.4268 437.71C97.4268 435.897 97.9535 434.524 99.0068 433.59C100.06 432.657 101.513 432.19 103.367 432.19ZM117.667 432.17C117.973 432.17 118.247 432.21 118.487 432.29C118.727 432.357 118.847 432.397 118.847 432.41V435.75H117.567C116.74 435.75 116.14 435.964 115.767 436.39C115.407 436.817 115.227 437.45 115.227 438.29V442.99H111.247V432.43H114.507L114.767 434.03C115.007 433.417 115.387 432.957 115.907 432.65C116.427 432.33 117.013 432.17 117.667 432.17ZM128.457 442.99L128.197 441.39C127.784 441.964 127.237 442.417 126.557 442.75C125.891 443.07 125.184 443.23 124.437 443.23C123.211 443.23 122.291 442.89 121.677 442.21C121.064 441.53 120.757 440.55 120.757 439.27V432.43H124.737V438.79C124.737 439.244 124.851 439.61 125.077 439.89C125.317 440.157 125.651 440.29 126.077 440.29C126.571 440.29 126.971 440.13 127.277 439.81C127.584 439.49 127.737 439.097 127.737 438.63V432.43H131.717V442.99H128.457ZM134.277 431.19V428.49H138.257V431.19H134.277ZM134.277 442.99V432.43H138.257V442.99H134.277ZM147.837 432.43V435.13H145.597V439.15C145.597 439.63 145.677 439.984 145.837 440.21C145.997 440.424 146.291 440.53 146.717 440.53H147.837V442.87C147.517 442.977 147.104 443.064 146.597 443.13C146.091 443.197 145.651 443.23 145.277 443.23C144.104 443.23 143.197 443.017 142.557 442.59C141.931 442.164 141.617 441.437 141.617 440.41V435.13H140.137V432.43H141.777L142.637 429.23H145.597V432.43H147.837ZM163.704 432.19C164.904 432.19 165.804 432.537 166.404 433.23C167.004 433.91 167.304 434.884 167.304 436.15V442.99H163.324V436.63C163.324 436.177 163.211 435.817 162.984 435.55C162.771 435.27 162.464 435.13 162.064 435.13C161.597 435.13 161.217 435.29 160.924 435.61C160.631 435.93 160.484 436.324 160.484 436.79V442.99H156.504V436.63C156.504 436.177 156.391 435.817 156.164 435.55C155.951 435.27 155.644 435.13 155.244 435.13C154.777 435.13 154.397 435.29 154.104 435.61C153.811 435.93 153.664 436.324 153.664 436.79V442.99H149.684V432.43H152.944L153.204 434.01C153.604 433.45 154.131 433.01 154.784 432.69C155.451 432.357 156.151 432.19 156.884 432.19C158.471 432.19 159.537 432.797 160.084 434.01C160.497 433.45 161.024 433.01 161.664 432.69C162.317 432.357 162.997 432.19 163.704 432.19ZM175.144 432.19C177.077 432.19 178.551 432.644 179.564 433.55C180.591 434.457 181.104 435.844 181.104 437.71V438.39H173.184C173.184 439.15 173.351 439.724 173.684 440.11C174.031 440.497 174.571 440.69 175.304 440.69C175.971 440.69 176.457 440.55 176.764 440.27C177.084 439.99 177.244 439.617 177.244 439.15H181.104C181.104 440.43 180.617 441.43 179.644 442.15C178.671 442.87 177.251 443.23 175.384 443.23C173.424 443.23 171.904 442.777 170.824 441.87C169.744 440.95 169.204 439.564 169.204 437.71C169.204 435.897 169.731 434.524 170.784 433.59C171.837 432.657 173.291 432.19 175.144 432.19ZM175.304 434.73C174.051 434.73 173.351 435.324 173.204 436.51H177.084C177.084 435.964 176.924 435.53 176.604 435.21C176.297 434.89 175.864 434.73 175.304 434.73ZM190.304 432.19C191.531 432.19 192.451 432.53 193.064 433.21C193.677 433.89 193.984 434.87 193.984 436.15V442.99H190.004V436.63C190.004 436.177 189.884 435.817 189.644 435.55C189.417 435.27 189.091 435.13 188.664 435.13C188.171 435.13 187.771 435.29 187.464 435.61C187.157 435.93 187.004 436.324 187.004 436.79V442.99H183.024V432.43H186.284L186.544 434.03C186.957 433.47 187.497 433.024 188.164 432.69C188.844 432.357 189.557 432.19 190.304 432.19ZM203.404 432.43V435.13H201.164V439.15C201.164 439.63 201.244 439.984 201.404 440.21C201.564 440.424 201.857 440.53 202.284 440.53H203.404V442.87C203.084 442.977 202.67 443.064 202.164 443.13C201.657 443.197 201.217 443.23 200.844 443.23C199.67 443.23 198.764 443.017 198.124 442.59C197.497 442.164 197.184 441.437 197.184 440.41V435.13H195.704V432.43H197.344L198.204 429.23H201.164V432.43H203.404ZM219.911 429.23C220.764 429.23 221.524 429.43 222.191 429.83C222.857 430.217 223.377 430.757 223.751 431.45C224.124 432.13 224.311 432.897 224.311 433.75V434.01C224.311 434.864 224.124 435.637 223.751 436.33C223.377 437.024 222.857 437.57 222.191 437.97C221.524 438.357 220.764 438.55 219.911 438.55H216.611V442.99H212.191V429.23H219.911ZM216.611 435.33H218.431C218.897 435.33 219.244 435.21 219.471 434.97C219.711 434.73 219.831 434.404 219.831 433.99V433.83C219.831 433.404 219.711 433.077 219.471 432.85C219.244 432.61 218.897 432.49 218.431 432.49H216.611V435.33ZM232.764 432.17C233.071 432.17 233.344 432.21 233.584 432.29C233.824 432.357 233.944 432.397 233.944 432.41V435.75H232.664C231.838 435.75 231.238 435.964 230.864 436.39C230.504 436.817 230.324 437.45 230.324 438.29V442.99H226.344V432.43H229.604L229.864 434.03C230.104 433.417 230.484 432.957 231.004 432.65C231.524 432.33 232.111 432.17 232.764 432.17ZM241.004 432.19C242.857 432.19 244.31 432.664 245.364 433.61C246.43 434.544 246.964 435.91 246.964 437.71C246.964 439.51 246.43 440.884 245.364 441.83C244.31 442.764 242.857 443.23 241.004 443.23C239.15 443.23 237.697 442.764 236.644 441.83C235.59 440.897 235.064 439.524 235.064 437.71C235.064 435.897 235.59 434.524 236.644 433.59C237.697 432.657 239.15 432.19 241.004 432.19ZM241.004 434.89C239.697 434.89 239.044 435.644 239.044 437.15V438.29C239.044 439.784 239.697 440.53 241.004 440.53C242.324 440.53 242.984 439.784 242.984 438.29V437.15C242.984 435.644 242.324 434.89 241.004 434.89ZM254.343 432.19C256.077 432.19 257.477 432.564 258.543 433.31C259.623 434.044 260.163 435.17 260.163 436.69H256.303C256.303 435.49 255.65 434.89 254.343 434.89C253.037 434.89 252.383 435.644 252.383 437.15V438.29C252.383 439.784 253.063 440.53 254.423 440.53C255.783 440.53 256.463 439.917 256.463 438.69H260.163C260.163 440.224 259.623 441.364 258.543 442.11C257.477 442.857 256.077 443.23 254.343 443.23C252.49 443.23 251.037 442.764 249.983 441.83C248.93 440.897 248.403 439.524 248.403 437.71C248.403 435.897 248.93 434.524 249.983 433.59C251.037 432.657 252.49 432.19 254.343 432.19ZM267.683 432.19C269.617 432.19 271.09 432.644 272.103 433.55C273.13 434.457 273.643 435.844 273.643 437.71V438.39H265.723C265.723 439.15 265.89 439.724 266.223 440.11C266.57 440.497 267.11 440.69 267.843 440.69C268.51 440.69 268.997 440.55 269.303 440.27C269.623 439.99 269.783 439.617 269.783 439.15H273.643C273.643 440.43 273.157 441.43 272.183 442.15C271.21 442.87 269.79 443.23 267.923 443.23C265.963 443.23 264.443 442.777 263.363 441.87C262.283 440.95 261.743 439.564 261.743 437.71C261.743 435.897 262.27 434.524 263.323 433.59C264.377 432.657 265.83 432.19 267.683 432.19ZM267.843 434.73C266.59 434.73 265.89 435.324 265.743 436.51H269.623C269.623 435.964 269.463 435.53 269.143 435.21C268.837 434.89 268.403 434.73 267.843 434.73ZM280.583 432.19C281.996 432.19 283.19 432.47 284.163 433.03C285.15 433.577 285.643 434.43 285.643 435.59H281.943C281.943 435.204 281.77 434.93 281.423 434.77C281.183 434.637 280.883 434.57 280.523 434.57C279.563 434.57 279.083 434.797 279.083 435.25C279.083 435.504 279.25 435.684 279.583 435.79C279.916 435.897 280.463 436.01 281.223 436.13C282.156 436.264 282.936 436.424 283.563 436.61C284.19 436.784 284.736 437.104 285.203 437.57C285.67 438.024 285.903 438.664 285.903 439.49C285.903 440.837 285.396 441.797 284.383 442.37C283.383 442.944 282.07 443.23 280.443 443.23C279.51 443.23 278.63 443.104 277.803 442.85C276.976 442.584 276.303 442.177 275.783 441.63C275.263 441.084 275.003 440.39 275.003 439.55H278.703V439.63C278.716 440.084 278.903 440.404 279.263 440.59C279.636 440.764 280.03 440.85 280.443 440.85C281.55 440.85 282.103 440.59 282.103 440.07C282.103 439.804 281.93 439.61 281.583 439.49C281.236 439.37 280.67 439.244 279.883 439.11C278.936 438.95 278.156 438.777 277.543 438.59C276.943 438.404 276.416 438.09 275.963 437.65C275.51 437.197 275.283 436.57 275.283 435.77C275.283 434.477 275.77 433.557 276.743 433.01C277.73 432.464 279.01 432.19 280.583 432.19ZM292.81 432.19C294.223 432.19 295.416 432.47 296.39 433.03C297.376 433.577 297.87 434.43 297.87 435.59H294.17C294.17 435.204 293.996 434.93 293.65 434.77C293.41 434.637 293.11 434.57 292.75 434.57C291.79 434.57 291.31 434.797 291.31 435.25C291.31 435.504 291.476 435.684 291.81 435.79C292.143 435.897 292.69 436.01 293.45 436.13C294.383 436.264 295.163 436.424 295.79 436.61C296.416 436.784 296.963 437.104 297.43 437.57C297.896 438.024 298.13 438.664 298.13 439.49C298.13 440.837 297.623 441.797 296.61 442.37C295.61 442.944 294.296 443.23 292.67 443.23C291.736 443.23 290.856 443.104 290.03 442.85C289.203 442.584 288.53 442.177 288.01 441.63C287.49 441.084 287.23 440.39 287.23 439.55H290.93V439.63C290.943 440.084 291.13 440.404 291.49 440.59C291.863 440.764 292.256 440.85 292.67 440.85C293.776 440.85 294.33 440.59 294.33 440.07C294.33 439.804 294.156 439.61 293.81 439.49C293.463 439.37 292.896 439.244 292.11 439.11C291.163 438.95 290.383 438.777 289.77 438.59C289.17 438.404 288.643 438.09 288.19 437.65C287.736 437.197 287.51 436.57 287.51 435.77C287.51 434.477 287.996 433.557 288.97 433.01C289.956 432.464 291.236 432.19 292.81 432.19ZM313.796 428.99C316.17 428.99 318.003 429.597 319.296 430.81C320.59 432.024 321.236 433.79 321.236 436.11C321.236 438.43 320.59 440.197 319.296 441.41C318.003 442.624 316.17 443.23 313.796 443.23C311.423 443.23 309.59 442.63 308.296 441.43C307.016 440.217 306.376 438.444 306.376 436.11C306.376 433.777 307.016 432.01 308.296 430.81C309.59 429.597 311.423 428.99 313.796 428.99ZM313.796 432.29C312.85 432.29 312.13 432.577 311.636 433.15C311.143 433.724 310.896 434.497 310.896 435.47V436.75C310.896 437.724 311.143 438.497 311.636 439.07C312.13 439.644 312.85 439.93 313.796 439.93C314.743 439.93 315.463 439.644 315.956 439.07C316.463 438.497 316.716 437.724 316.716 436.75V435.47C316.716 434.497 316.463 433.724 315.956 433.15C315.463 432.577 314.743 432.29 313.796 432.29ZM330.996 442.99L330.736 441.39C330.323 441.964 329.776 442.417 329.096 442.75C328.43 443.07 327.723 443.23 326.976 443.23C325.75 443.23 324.83 442.89 324.216 442.21C323.603 441.53 323.296 440.55 323.296 439.27V432.43H327.276V438.79C327.276 439.244 327.39 439.61 327.616 439.89C327.856 440.157 328.19 440.29 328.616 440.29C329.11 440.29 329.51 440.13 329.816 439.81C330.123 439.49 330.276 439.097 330.276 438.63V432.43H334.256V442.99H330.996ZM343.716 432.43V435.13H341.476V439.15C341.476 439.63 341.556 439.984 341.716 440.21C341.876 440.424 342.17 440.53 342.596 440.53H343.716V442.87C343.396 442.977 342.983 443.064 342.476 443.13C341.97 443.197 341.53 443.23 341.156 443.23C339.983 443.23 339.076 443.017 338.436 442.59C337.81 442.164 337.496 441.437 337.496 440.41V435.13H336.016V432.43H337.656L338.516 429.23H341.476V432.43H343.716ZM350.583 432.19C351.996 432.19 353.19 432.47 354.163 433.03C355.15 433.577 355.643 434.43 355.643 435.59H351.943C351.943 435.204 351.77 434.93 351.423 434.77C351.183 434.637 350.883 434.57 350.523 434.57C349.563 434.57 349.083 434.797 349.083 435.25C349.083 435.504 349.25 435.684 349.583 435.79C349.916 435.897 350.463 436.01 351.223 436.13C352.156 436.264 352.936 436.424 353.563 436.61C354.19 436.784 354.736 437.104 355.203 437.57C355.67 438.024 355.903 438.664 355.903 439.49C355.903 440.837 355.396 441.797 354.383 442.37C353.383 442.944 352.07 443.23 350.443 443.23C349.51 443.23 348.63 443.104 347.803 442.85C346.976 442.584 346.303 442.177 345.783 441.63C345.263 441.084 345.003 440.39 345.003 439.55H348.703V439.63C348.716 440.084 348.903 440.404 349.263 440.59C349.636 440.764 350.03 440.85 350.443 440.85C351.55 440.85 352.103 440.59 352.103 440.07C352.103 439.804 351.93 439.61 351.583 439.49C351.236 439.37 350.67 439.244 349.883 439.11C348.936 438.95 348.156 438.777 347.543 438.59C346.943 438.404 346.416 438.09 345.963 437.65C345.51 437.197 345.283 436.57 345.283 435.77C345.283 434.477 345.77 433.557 346.743 433.01C347.73 432.464 349.01 432.19 350.583 432.19ZM363.25 432.19C365.103 432.19 366.556 432.664 367.61 433.61C368.676 434.544 369.21 435.91 369.21 437.71C369.21 439.51 368.676 440.884 367.61 441.83C366.556 442.764 365.103 443.23 363.25 443.23C361.396 443.23 359.943 442.764 358.89 441.83C357.836 440.897 357.31 439.524 357.31 437.71C357.31 435.897 357.836 434.524 358.89 433.59C359.943 432.657 361.396 432.19 363.25 432.19ZM363.25 434.89C361.943 434.89 361.29 435.644 361.29 437.15V438.29C361.29 439.784 361.943 440.53 363.25 440.53C364.57 440.53 365.23 439.784 365.23 438.29V437.15C365.23 435.644 364.57 434.89 363.25 434.89ZM378.789 442.99L378.529 441.39C378.116 441.964 377.569 442.417 376.889 442.75C376.223 443.07 375.516 443.23 374.769 443.23C373.543 443.23 372.623 442.89 372.009 442.21C371.396 441.53 371.089 440.55 371.089 439.27V432.43H375.069V438.79C375.069 439.244 375.183 439.61 375.409 439.89C375.649 440.157 375.983 440.29 376.409 440.29C376.903 440.29 377.303 440.13 377.609 439.81C377.916 439.49 378.069 439.097 378.069 438.63V432.43H382.049V442.99H378.789ZM390.889 432.17C391.196 432.17 391.469 432.21 391.709 432.29C391.949 432.357 392.069 432.397 392.069 432.41V435.75H390.789C389.963 435.75 389.363 435.964 388.989 436.39C388.629 436.817 388.449 437.45 388.449 438.29V442.99H384.469V432.43H387.729L387.989 434.03C388.229 433.417 388.609 432.957 389.129 432.65C389.649 432.33 390.236 432.17 390.889 432.17ZM399.148 432.19C400.881 432.19 402.281 432.564 403.348 433.31C404.428 434.044 404.968 435.17 404.968 436.69H401.108C401.108 435.49 400.455 434.89 399.148 434.89C397.841 434.89 397.188 435.644 397.188 437.15V438.29C397.188 439.784 397.868 440.53 399.228 440.53C400.588 440.53 401.268 439.917 401.268 438.69H404.968C404.968 440.224 404.428 441.364 403.348 442.11C402.281 442.857 400.881 443.23 399.148 443.23C397.295 443.23 395.841 442.764 394.788 441.83C393.735 440.897 393.208 439.524 393.208 437.71C393.208 435.897 393.735 434.524 394.788 433.59C395.841 432.657 397.295 432.19 399.148 432.19ZM407.168 431.19V428.49H411.148V431.19H407.168ZM407.168 442.99V432.43H411.148V442.99H407.168ZM420.968 432.19C422.195 432.19 423.115 432.53 423.728 433.21C424.341 433.89 424.648 434.87 424.648 436.15V442.99H420.668V436.63C420.668 436.177 420.548 435.817 420.308 435.55C420.081 435.27 419.755 435.13 419.328 435.13C418.835 435.13 418.435 435.29 418.128 435.61C417.821 435.93 417.668 436.324 417.668 436.79V442.99H413.688V432.43H416.948L417.208 434.03C417.621 433.47 418.161 433.024 418.828 432.69C419.508 432.357 420.221 432.19 420.968 432.19ZM438.908 430.45C438.908 431.264 438.701 431.89 438.288 432.33C437.888 432.77 437.281 433.097 436.468 433.31C436.855 433.604 437.155 433.95 437.368 434.35C437.595 434.737 437.708 435.15 437.708 435.59C437.708 436.71 437.281 437.557 436.428 438.13C435.588 438.704 434.535 438.99 433.268 438.99H431.748C430.908 438.99 430.488 439.184 430.488 439.57C430.488 439.757 430.581 439.91 430.768 440.03C430.955 440.137 431.281 440.19 431.748 440.19H435.348C436.521 440.19 437.408 440.497 438.008 441.11C438.608 441.724 438.908 442.544 438.908 443.57C438.908 444.33 438.708 444.984 438.308 445.53C437.908 446.077 437.368 446.49 436.688 446.77C436.008 447.05 435.268 447.19 434.468 447.19H428.588C428.108 447.19 427.661 447.077 427.248 446.85C426.848 446.624 426.528 446.31 426.288 445.91C426.048 445.524 425.928 445.09 425.928 444.61C425.928 444.09 426.088 443.617 426.408 443.19C426.728 442.777 427.128 442.464 427.608 442.25C427.288 442.024 427.035 441.75 426.848 441.43C426.661 441.11 426.568 440.764 426.568 440.39C426.568 439.87 426.761 439.404 427.148 438.99C427.535 438.564 428.015 438.277 428.588 438.13C428.068 437.797 427.655 437.417 427.348 436.99C427.041 436.55 426.888 436.09 426.888 435.61C426.888 434.384 427.381 433.51 428.368 432.99C429.368 432.457 430.688 432.19 432.328 432.19C433.048 432.19 433.628 432.23 434.068 432.31C434.721 431.897 435.141 431.524 435.328 431.19C435.528 430.844 435.628 430.597 435.628 430.45H438.908ZM432.288 434.27C431.848 434.27 431.488 434.384 431.208 434.61C430.928 434.837 430.788 435.164 430.788 435.59C430.788 436.03 430.915 436.364 431.168 436.59C431.435 436.804 431.808 436.91 432.288 436.91C432.768 436.91 433.141 436.804 433.408 436.59C433.688 436.364 433.828 436.03 433.828 435.59C433.828 435.15 433.688 434.824 433.408 434.61C433.141 434.384 432.768 434.27 432.288 434.27ZM430.748 442.99C430.441 442.99 430.188 443.07 429.988 443.23C429.801 443.404 429.708 443.644 429.708 443.95C429.708 444.257 429.808 444.504 430.008 444.69C430.208 444.877 430.455 444.97 430.748 444.97H433.868C434.161 444.97 434.408 444.877 434.608 444.69C434.821 444.517 434.928 444.277 434.928 443.97C434.928 443.664 434.828 443.424 434.628 443.25C434.428 443.077 434.175 442.99 433.868 442.99H430.748ZM452.928 428.25C452.141 429.477 451.501 430.93 451.008 432.61C450.515 434.277 450.268 435.817 450.268 437.23C450.268 438.657 450.515 440.204 451.008 441.87C451.501 443.524 452.141 444.964 452.928 446.19H450.528C449.381 444.964 448.495 443.57 447.868 442.01C447.241 440.45 446.928 438.857 446.928 437.23C446.928 435.59 447.241 433.99 447.868 432.43C448.495 430.87 449.381 429.477 450.528 428.25H452.928ZM468.141 433.45C468.141 434.29 467.915 435.05 467.461 435.73C467.008 436.41 466.348 436.91 465.481 437.23L468.541 442.99H463.581L461.141 437.97H459.501V442.99H455.081V429.23H463.501C464.488 429.23 465.328 429.424 466.021 429.81C466.728 430.184 467.255 430.697 467.601 431.35C467.961 431.99 468.141 432.69 468.141 433.45ZM463.641 433.63C463.641 433.27 463.521 432.97 463.281 432.73C463.041 432.49 462.748 432.37 462.401 432.37H459.501V434.91H462.401C462.748 434.91 463.041 434.79 463.281 434.55C463.521 434.297 463.641 433.99 463.641 433.63ZM478.368 429.23C479.221 429.23 479.981 429.43 480.648 429.83C481.314 430.217 481.834 430.757 482.208 431.45C482.581 432.13 482.768 432.897 482.768 433.75V434.01C482.768 434.864 482.581 435.637 482.208 436.33C481.834 437.024 481.314 437.57 480.648 437.97C479.981 438.357 479.221 438.55 478.368 438.55H475.068V442.99H470.648V429.23H478.368ZM475.068 435.33H476.888C477.354 435.33 477.701 435.21 477.928 434.97C478.168 434.73 478.288 434.404 478.288 433.99V433.83C478.288 433.404 478.168 433.077 477.928 432.85C477.701 432.61 477.354 432.49 476.888 432.49H475.068V435.33ZM491.921 428.99C494.295 428.99 496.128 429.597 497.421 430.81C498.715 432.024 499.361 433.79 499.361 436.11C499.361 438.43 498.715 440.197 497.421 441.41C496.128 442.624 494.295 443.23 491.921 443.23C489.548 443.23 487.715 442.63 486.421 441.43C485.141 440.217 484.501 438.444 484.501 436.11C484.501 433.777 485.141 432.01 486.421 430.81C487.715 429.597 489.548 428.99 491.921 428.99ZM491.921 432.29C490.975 432.29 490.255 432.577 489.761 433.15C489.268 433.724 489.021 434.497 489.021 435.47V436.75C489.021 437.724 489.268 438.497 489.761 439.07C490.255 439.644 490.975 439.93 491.921 439.93C492.868 439.93 493.588 439.644 494.081 439.07C494.588 438.497 494.841 437.724 494.841 436.75V435.47C494.841 434.497 494.588 433.724 494.081 433.15C493.588 432.577 492.868 432.29 491.921 432.29ZM503.341 428.25C504.488 429.477 505.375 430.87 506.001 432.43C506.628 433.99 506.941 435.59 506.941 437.23C506.941 438.857 506.628 440.45 506.001 442.01C505.375 443.57 504.488 444.964 503.341 446.19H500.941C501.728 444.964 502.368 443.524 502.861 441.87C503.355 440.204 503.601 438.657 503.601 437.23C503.601 435.817 503.355 434.277 502.861 432.61C502.368 430.93 501.728 429.477 500.941 428.25H503.341Z" fill="white"/>
<rect x="2" y="572.457" width="668.799" height="73.1836" stroke="#1A75BB" stroke-width="4"/>
<g filter="url(#filter4_d_1104_1068)">
<rect width="65.1802" height="500" rx="4" transform="matrix(0 -1 -1 0 537.704 603.047)" fill="#1A75BB"/>
</g>
<path d="M77.5083 563.697C78.3617 563.697 79.1217 563.897 79.7883 564.297C80.455 564.684 80.975 565.224 81.3483 565.917C81.7217 566.597 81.9083 567.364 81.9083 568.217V568.477C81.9083 569.33 81.7217 570.104 81.3483 570.797C80.975 571.49 80.455 572.037 79.7883 572.437C79.1217 572.824 78.3617 573.017 77.5083 573.017H74.2083V577.457H69.7883V563.697H77.5083ZM74.2083 569.797H76.0283C76.495 569.797 76.8417 569.677 77.0684 569.437C77.3084 569.197 77.4284 568.87 77.4284 568.457V568.297C77.4284 567.87 77.3084 567.544 77.0684 567.317C76.8417 567.077 76.495 566.957 76.0283 566.957H74.2083V569.797ZM88.8299 566.657C90.4432 566.657 91.7566 566.93 92.7699 567.477C93.7832 568.01 94.2899 568.884 94.2899 570.097V574.217C94.2899 574.444 94.3432 574.63 94.4499 574.777C94.5566 574.924 94.7166 574.997 94.9299 574.997H95.6499V577.297C95.6099 577.324 95.5032 577.37 95.3299 577.437C95.1699 577.49 94.9366 577.544 94.6299 577.597C94.3232 577.664 93.9699 577.697 93.5699 577.697C92.7966 577.697 92.1566 577.584 91.6499 577.357C91.1566 577.117 90.8166 576.79 90.6299 576.377C90.1232 576.777 89.5566 577.097 88.9299 577.337C88.3032 577.577 87.5699 577.697 86.7299 577.697C84.2499 577.697 83.0099 576.71 83.0099 574.737C83.0099 573.71 83.2832 572.93 83.8299 572.397C84.3899 571.85 85.1899 571.477 86.2299 571.277C87.2699 571.077 88.6299 570.977 90.3099 570.977V570.457C90.3099 570.044 90.1632 569.73 89.8699 569.517C89.5899 569.304 89.2232 569.197 88.7699 569.197C88.3566 569.197 87.9966 569.27 87.6899 569.417C87.3966 569.564 87.2499 569.797 87.2499 570.117V570.197H83.3299C83.3166 570.13 83.3099 570.037 83.3099 569.917C83.3099 568.917 83.7832 568.124 84.7299 567.537C85.6899 566.95 87.0566 566.657 88.8299 566.657ZM90.3099 572.857C89.1766 572.857 88.3366 572.984 87.7899 573.237C87.2566 573.477 86.9899 573.804 86.9899 574.217C86.9899 574.884 87.4432 575.217 88.3499 575.217C88.8699 575.217 89.3232 575.077 89.7099 574.797C90.1099 574.517 90.3099 574.17 90.3099 573.757V572.857ZM104.21 577.137C103.663 578.617 102.99 579.737 102.19 580.497C101.403 581.27 100.296 581.657 98.8698 581.657C98.0031 581.657 97.2364 581.537 96.5698 581.297V578.917H98.1698C99.1698 578.917 99.7631 578.43 99.9498 577.457L95.7498 566.897H100.03L102.05 573.917H102.19L104.05 566.897H107.97L104.21 577.137ZM115.596 566.637C115.903 566.637 116.176 566.677 116.416 566.757C116.656 566.824 116.776 566.864 116.776 566.877V570.217H115.496C114.67 570.217 114.07 570.43 113.696 570.857C113.336 571.284 113.156 571.917 113.156 572.757V577.457H109.176V566.897H112.436L112.696 568.497C112.936 567.884 113.316 567.424 113.836 567.117C114.356 566.797 114.943 566.637 115.596 566.637ZM123.836 566.657C125.689 566.657 127.142 567.13 128.196 568.077C129.262 569.01 129.796 570.377 129.796 572.177C129.796 573.977 129.262 575.35 128.196 576.297C127.142 577.23 125.689 577.697 123.836 577.697C121.982 577.697 120.529 577.23 119.476 576.297C118.422 575.364 117.896 573.99 117.896 572.177C117.896 570.364 118.422 568.99 119.476 568.057C120.529 567.124 121.982 566.657 123.836 566.657ZM123.836 569.357C122.529 569.357 121.876 570.11 121.876 571.617V572.757C121.876 574.25 122.529 574.997 123.836 574.997C125.156 574.997 125.816 574.25 125.816 572.757V571.617C125.816 570.11 125.156 569.357 123.836 569.357ZM131.855 577.457V562.957H135.835V577.457H131.855ZM138.516 577.457V562.957H142.496V577.457H138.516ZM157.756 563.457C159.516 563.457 160.963 563.817 162.096 564.537C163.229 565.244 163.809 566.297 163.836 567.697V567.937H159.696V567.857C159.696 567.457 159.549 567.124 159.256 566.857C158.963 566.59 158.516 566.457 157.916 566.457C157.329 566.457 156.876 566.544 156.556 566.717C156.249 566.89 156.096 567.104 156.096 567.357C156.096 567.717 156.309 567.984 156.736 568.157C157.163 568.33 157.849 568.51 158.796 568.697C159.903 568.924 160.809 569.164 161.516 569.417C162.236 569.657 162.863 570.057 163.396 570.617C163.929 571.177 164.203 571.937 164.216 572.897C164.216 574.524 163.663 575.73 162.556 576.517C161.463 577.304 159.996 577.697 158.156 577.697C156.009 577.697 154.336 577.337 153.136 576.617C151.949 575.897 151.356 574.624 151.356 572.797H155.536C155.536 573.49 155.716 573.957 156.076 574.197C156.436 574.424 156.996 574.537 157.756 574.537C158.316 574.537 158.776 574.477 159.136 574.357C159.509 574.237 159.696 573.99 159.696 573.617C159.696 573.284 159.489 573.037 159.076 572.877C158.676 572.704 158.016 572.524 157.096 572.337C155.976 572.097 155.049 571.85 154.316 571.597C153.583 571.33 152.943 570.897 152.396 570.297C151.849 569.697 151.576 568.884 151.576 567.857C151.576 566.35 152.156 565.244 153.316 564.537C154.489 563.817 155.969 563.457 157.756 563.457ZM171.589 566.657C173.523 566.657 174.996 567.11 176.009 568.017C177.036 568.924 177.549 570.31 177.549 572.177V572.857H169.629C169.629 573.617 169.796 574.19 170.129 574.577C170.476 574.964 171.016 575.157 171.749 575.157C172.416 575.157 172.903 575.017 173.209 574.737C173.529 574.457 173.689 574.084 173.689 573.617H177.549C177.549 574.897 177.063 575.897 176.089 576.617C175.116 577.337 173.696 577.697 171.829 577.697C169.869 577.697 168.349 577.244 167.269 576.337C166.189 575.417 165.649 574.03 165.649 572.177C165.649 570.364 166.176 568.99 167.229 568.057C168.283 567.124 169.736 566.657 171.589 566.657ZM171.749 569.197C170.496 569.197 169.796 569.79 169.649 570.977H173.529C173.529 570.43 173.369 569.997 173.049 569.677C172.743 569.357 172.309 569.197 171.749 569.197ZM185.889 566.637C186.196 566.637 186.469 566.677 186.709 566.757C186.949 566.824 187.069 566.864 187.069 566.877V570.217H185.789C184.963 570.217 184.363 570.43 183.989 570.857C183.629 571.284 183.449 571.917 183.449 572.757V577.457H179.469V566.897H182.729L182.989 568.497C183.229 567.884 183.609 567.424 184.129 567.117C184.649 566.797 185.236 566.637 185.889 566.637ZM192.308 577.457L188.308 566.897H192.588L194.528 573.477H194.668L196.608 566.897H200.528L196.488 577.457H192.308ZM201.875 565.657V562.957H205.855V565.657H201.875ZM201.875 577.457V566.897H205.855V577.457H201.875ZM213.855 566.657C215.588 566.657 216.988 567.03 218.055 567.777C219.135 568.51 219.675 569.637 219.675 571.157H215.815C215.815 569.957 215.162 569.357 213.855 569.357C212.548 569.357 211.895 570.11 211.895 571.617V572.757C211.895 574.25 212.575 574.997 213.935 574.997C215.295 574.997 215.975 574.384 215.975 573.157H219.675C219.675 574.69 219.135 575.83 218.055 576.577C216.988 577.324 215.588 577.697 213.855 577.697C212.002 577.697 210.548 577.23 209.495 576.297C208.442 575.364 207.915 573.99 207.915 572.177C207.915 570.364 208.442 568.99 209.495 568.057C210.548 567.124 212.002 566.657 213.855 566.657ZM227.195 566.657C229.128 566.657 230.602 567.11 231.615 568.017C232.642 568.924 233.155 570.31 233.155 572.177V572.857H225.235C225.235 573.617 225.402 574.19 225.735 574.577C226.082 574.964 226.622 575.157 227.355 575.157C228.022 575.157 228.508 575.017 228.815 574.737C229.135 574.457 229.295 574.084 229.295 573.617H233.155C233.155 574.897 232.668 575.897 231.695 576.617C230.722 577.337 229.302 577.697 227.435 577.697C225.475 577.697 223.955 577.244 222.875 576.337C221.795 575.417 221.255 574.03 221.255 572.177C221.255 570.364 221.782 568.99 222.835 568.057C223.888 567.124 225.342 566.657 227.195 566.657ZM227.355 569.197C226.102 569.197 225.402 569.79 225.255 570.977H229.135C229.135 570.43 228.975 569.997 228.655 569.677C228.348 569.357 227.915 569.197 227.355 569.197ZM240.095 566.657C241.508 566.657 242.701 566.937 243.675 567.497C244.661 568.044 245.155 568.897 245.155 570.057H241.455C241.455 569.67 241.281 569.397 240.935 569.237C240.695 569.104 240.395 569.037 240.035 569.037C239.075 569.037 238.595 569.264 238.595 569.717C238.595 569.97 238.761 570.15 239.095 570.257C239.428 570.364 239.975 570.477 240.735 570.597C241.668 570.73 242.448 570.89 243.075 571.077C243.701 571.25 244.248 571.57 244.715 572.037C245.181 572.49 245.415 573.13 245.415 573.957C245.415 575.304 244.908 576.264 243.895 576.837C242.895 577.41 241.581 577.697 239.955 577.697C239.021 577.697 238.141 577.57 237.315 577.317C236.488 577.05 235.815 576.644 235.295 576.097C234.775 575.55 234.515 574.857 234.515 574.017H238.215V574.097C238.228 574.55 238.415 574.87 238.775 575.057C239.148 575.23 239.541 575.317 239.955 575.317C241.061 575.317 241.615 575.057 241.615 574.537C241.615 574.27 241.441 574.077 241.095 573.957C240.748 573.837 240.181 573.71 239.395 573.577C238.448 573.417 237.668 573.244 237.055 573.057C236.455 572.87 235.928 572.557 235.475 572.117C235.021 571.664 234.795 571.037 234.795 570.237C234.795 568.944 235.281 568.024 236.255 567.477C237.241 566.93 238.521 566.657 240.095 566.657Z" fill="white"/>
<defs>
<filter id="filter0_d_1104_1068" x="33.7041" y="0" width="508" height="73.1797" filterUnits="userSpaceOnUse" color-interpolation-filters="sRGB">
<feFlood flood-opacity="0" result="BackgroundImageFix"/>
<feColorMatrix in="SourceAlpha" type="matrix" values="0 0 0 0 0 0 0 0 0 0 0 0 0 0 0 0 0 0 127 0" result="hardAlpha"/>
<feOffset dy="4"/>
<feGaussianBlur stdDeviation="2"/>
<feComposite in2="hardAlpha" operator="out"/>
<feColorMatrix type="matrix" values="0 0 0 0 0 0 0 0 0 0 0 0 0 0 0 0 0 0 0.25 0"/>
<feBlend mode="normal" in2="BackgroundImageFix" result="effect1_dropShadow_1104_1068"/>
<feBlend mode="normal" in="SourceGraphic" in2="effect1_dropShadow_1104_1068" result="shape"/>
</filter>
<filter id="filter1_d_1104_1068" x="33.7041" y="134.467" width="508" height="73.1797" filterUnits="userSpaceOnUse" color-interpolation-filters="sRGB">
<feFlood flood-opacity="0" result="BackgroundImageFix"/>
<feColorMatrix in="SourceAlpha" type="matrix" values="0 0 0 0 0 0 0 0 0 0 0 0 0 0 0 0 0 0 127 0" result="hardAlpha"/>
<feOffset dy="4"/>
<feGaussianBlur stdDeviation="2"/>
<feComposite in2="hardAlpha" operator="out"/>
<feColorMatrix type="matrix" values="0 0 0 0 0 0 0 0 0 0 0 0 0 0 0 0 0 0 0.25 0"/>
<feBlend mode="normal" in2="BackgroundImageFix" result="effect1_dropShadow_1104_1068"/>
<feBlend mode="normal" in="SourceGraphic" in2="effect1_dropShadow_1104_1068" result="shape"/>
</filter>
<filter id="filter2_d_1104_1068" x="33.7041" y="268.934" width="508" height="73.1797" filterUnits="userSpaceOnUse" color-interpolation-filters="sRGB">
<feFlood flood-opacity="0" result="BackgroundImageFix"/>
<feColorMatrix in="SourceAlpha" type="matrix" values="0 0 0 0 0 0 0 0 0 0 0 0 0 0 0 0 0 0 127 0" result="hardAlpha"/>
<feOffset dy="4"/>
<feGaussianBlur stdDeviation="2"/>
<feComposite in2="hardAlpha" operator="out"/>
<feColorMatrix type="matrix" values="0 0 0 0 0 0 0 0 0 0 0 0 0 0 0 0 0 0 0.25 0"/>
<feBlend mode="normal" in2="BackgroundImageFix" result="effect1_dropShadow_1104_1068"/>
<feBlend mode="normal" in="SourceGraphic" in2="effect1_dropShadow_1104_1068" result="shape"/>
</filter>
<filter id="filter3_d_1104_1068" x="33.7041" y="403.4" width="508" height="73.1797" filterUnits="userSpaceOnUse" color-interpolation-filters="sRGB">
<feFlood flood-opacity="0" result="BackgroundImageFix"/>
<feColorMatrix in="SourceAlpha" type="matrix" values="0 0 0 0 0 0 0 0 0 0 0 0 0 0 0 0 0 0 127 0" result="hardAlpha"/>
<feOffset dy="4"/>
<feGaussianBlur stdDeviation="2"/>
<feComposite in2="hardAlpha" operator="out"/>
<feColorMatrix type="matrix" values="0 0 0 0 0 0 0 0 0 0 0 0 0 0 0 0 0 0 0.25 0"/>
<feBlend mode="normal" in2="BackgroundImageFix" result="effect1_dropShadow_1104_1068"/>
<feBlend mode="normal" in="SourceGraphic" in2="effect1_dropShadow_1104_1068" result="shape"/>
</filter>
<filter id="filter4_d_1104_1068" x="33.7041" y="537.867" width="508" height="73.1797" filterUnits="userSpaceOnUse" color-interpolation-filters="sRGB">
<feFlood flood-opacity="0" result="BackgroundImageFix"/>
<feColorMatrix in="SourceAlpha" type="matrix" values="0 0 0 0 0 0 0 0 0 0 0 0 0 0 0 0 0 0 127 0" result="hardAlpha"/>
<feOffset dy="4"/>
<feGaussianBlur stdDeviation="2"/>
<feComposite in2="hardAlpha" operator="out"/>
<feColorMatrix type="matrix" values="0 0 0 0 0 0 0 0 0 0 0 0 0 0 0 0 0 0 0.25 0"/>
<feBlend mode="normal" in2="BackgroundImageFix" result="effect1_dropShadow_1104_1068"/>
<feBlend mode="normal" in="SourceGraphic" in2="effect1_dropShadow_1104_1068" result="shape"/>
</filter>
</defs>
</svg>
