<svg width="266" height="204" viewBox="0 0 266 204" fill="none" xmlns="http://www.w3.org/2000/svg">
<path d="M0 0H266V131.338L130.845 203.319L0 131.338V0Z" fill="#1A75BB"/>
<path d="M121.782 46.3305C116 53.6896 116.113 53.5394 116.676 54.4405C116.939 54.8535 123.284 63.1512 130.793 72.9508C138.302 82.7128 144.648 91.0481 144.948 91.4986C145.248 92.0243 145.812 92.2871 146.563 92.2871C147.576 92.2871 148.027 91.8741 150.242 88.983C151.631 87.1808 158.164 78.6578 164.772 70.0597C171.381 61.4241 176.787 54.1026 176.787 53.7647C176.787 53.0513 175.473 51.2491 170.104 44.4908L166.612 40.0978H146.638H126.663L121.782 46.3305ZM140.255 47.0063C138.79 48.9588 137.401 50.5732 137.176 50.5732C136.988 50.5732 136.387 50.01 135.862 49.3342C135.336 48.6208 134.097 47.0439 133.121 45.7673L131.319 43.477H137.138H142.996L140.255 47.0063ZM161.543 43.9276C160.943 44.9789 156.362 50.6108 156.137 50.6108C155.912 50.6108 151.481 45.129 150.768 43.9651C150.542 43.5896 151.556 43.477 156.137 43.477C160.567 43.477 161.769 43.5896 161.543 43.9276ZM130.38 47.8324C131.769 49.597 133.008 51.2866 133.121 51.587C133.271 52.0375 132.408 52.1126 127.639 52.1126C124.523 52.1126 121.97 52 121.97 51.8874C121.97 51.5494 127.376 44.6409 127.639 44.6034C127.752 44.6034 128.991 46.0677 130.38 47.8324ZM149.566 48.0576C151.031 49.935 152.27 51.587 152.307 51.7747C152.382 51.9625 149.904 52.1126 146.788 52.1126C143.446 52.1126 141.118 51.9625 141.118 51.7372C141.118 51.3242 146.412 44.6034 146.713 44.6409C146.825 44.6409 148.139 46.1803 149.566 48.0576ZM168.49 47.9826C169.954 49.8223 171.155 51.5119 171.155 51.7372C171.155 52.1877 160.417 52.2628 160.154 51.8123C160.004 51.587 165.336 44.6034 165.674 44.6034C165.786 44.6034 167.025 46.1052 168.49 47.9826ZM135.712 56.5055C135.824 57.1063 136.312 58.9836 136.8 60.7483C137.251 62.5129 138.077 65.6293 138.64 67.6943C139.166 69.7594 140.217 73.7017 140.931 76.4801C141.681 79.2586 142.17 81.5864 142.095 81.6615C141.944 81.8117 138.678 77.6816 131.506 68.2575C129.854 66.0798 127.151 62.5505 125.499 60.3728C123.847 58.1951 122.345 56.2052 122.195 55.9424C121.97 55.6044 123.396 55.4918 128.69 55.4918H135.486L135.712 56.5055ZM153.734 56.1301C153.621 56.5055 152.758 59.8472 151.819 63.5642C150.843 67.2813 149.679 71.7493 149.191 73.514C148.74 75.2787 147.952 78.1697 147.501 79.9719C147.013 81.8117 146.525 83.276 146.375 83.276C146.225 83.276 145.924 82.3749 145.661 81.2861C145.436 80.2348 144.835 77.7192 144.31 75.7668C142.095 67.5817 139.504 57.4817 139.316 56.5055L139.166 55.4918H146.563C153.396 55.4918 153.922 55.5293 153.734 56.1301ZM170.892 56.4305C165.411 63.8271 150.655 82.7128 150.58 82.4875C150.467 82.2623 151.857 76.7054 154.86 65.4416C155.348 63.5642 156.137 60.5981 156.587 58.7583L157.413 55.4918H164.51H171.606L170.892 56.4305Z" fill="white"/>
<path d="M70.9816 91.6111C70.3434 92.2494 70.3434 134.376 70.9816 135.015C71.3196 135.352 75.1117 135.465 85.6998 135.465H100.005L101.957 134.339C103.947 133.212 105.487 131.147 106.012 129.007C106.238 128.106 106.463 127.956 107.702 127.956C109.842 127.956 111.006 128.482 119.904 133.438C124.447 135.953 129.066 138.281 130.192 138.619C131.844 139.107 134.097 139.22 141.456 139.22C146.9 139.22 151.331 139.032 152.194 138.807C154.973 138.056 157.563 136.554 161.093 133.588C165.598 129.833 173.746 122.962 180.579 117.18C183.545 114.664 186.324 112.036 186.737 111.36C187.75 109.671 187.75 106.066 186.737 104.377C185.61 102.5 183.47 101.185 181.142 100.998C178.965 100.81 179.34 100.697 169.841 105.24C158.69 110.609 155.31 112.186 155.048 112.186C154.897 112.186 154.56 111.511 154.297 110.685C153.696 108.657 152.269 107.08 150.392 106.404C147.576 105.353 125.837 99.4583 123.396 99.0453C122.082 98.8575 117.727 98.6698 113.709 98.6698H106.388L105.749 96.8676C104.961 94.6523 103.271 92.8501 101.206 91.8739C99.7421 91.2356 98.5406 91.1605 85.512 91.1605C75.0742 91.1605 71.3196 91.2732 70.9816 91.6111ZM100.193 95.1029C100.756 95.4033 101.619 96.2293 102.032 96.9051C102.783 98.1441 102.821 98.6322 102.821 113.35C102.821 127.731 102.783 128.594 102.07 129.721C100.681 132.048 100.418 132.086 86.4882 132.086H73.9103V113.313V94.5397H86.4882C96.8885 94.5397 99.2915 94.6523 100.193 95.1029ZM126.287 103.1C127.752 103.551 133.233 105.09 138.49 106.555C143.746 108.019 148.552 109.408 149.115 109.633C151.518 110.572 152.044 113.688 150.167 115.603C149.528 116.241 148.665 116.692 148.102 116.692C147.125 116.692 143.859 116.054 138.678 114.852C128.315 112.412 128.39 112.449 127.789 112.937C127.489 113.2 127.226 113.876 127.226 114.439C127.226 115.303 127.451 115.566 128.465 115.904C131.206 116.805 146.45 120.071 147.764 120.071C149.566 120.071 152.044 118.945 153.02 117.706C153.433 117.143 155.198 116.054 156.925 115.228C158.652 114.439 162.97 112.374 166.462 110.685C177.538 105.315 179.791 104.302 180.579 104.302C181.931 104.302 183.433 105.353 183.883 106.63C184.709 108.957 184.108 109.671 175.585 116.917C158.464 131.373 155.536 133.738 153.508 134.677C151.481 135.653 151.255 135.653 141.982 135.765C130.68 135.916 131.844 136.216 120.805 129.983C112.846 125.515 110.668 124.614 108.002 124.577H106.2V113.275V101.974L114.948 102.162C122.195 102.312 124.11 102.5 126.287 103.1Z" fill="white"/>
<path d="M106.388 102.538C106.275 102.801 106.238 107.794 106.313 113.689L106.388 124.39L106.5 113.426L106.576 102.425L113.071 102.312L119.529 102.2L113.034 102.125C108.115 102.087 106.5 102.162 106.388 102.538Z" fill="white"/>
</svg>
