<svg width="266" height="204" viewBox="0 0 266 204" fill="none" xmlns="http://www.w3.org/2000/svg">
<path d="M0 203.319H266V71.9811L130.845 -6.30046e-06L0 71.9811V203.319Z" fill="#1A75BB"/>
<path d="M75 71.2738C75 82.1738 75.1 82.8738 77.1 83.3738C79 83.8738 79.1 84.5738 78.7 90.0738C78.5 93.3738 77.2 100.174 75.7 104.974C74.3 109.874 73.4 114.474 73.6 115.174C73.9 115.874 73 117.574 71.6 118.974C70.2 120.474 69 122.274 69 123.074C69 124.474 90.6 173.574 91.8 174.874C92.8 175.874 113.8 166.474 114.5 164.774C114.8 164.074 113.4 161.674 111.5 159.574C107.5 155.174 107.4 154.674 109.5 150.774C112 145.874 116.7 145.274 120.7 149.274C122.9 151.474 123.1 152.374 122.6 155.774C122.1 158.874 122.3 159.874 123.5 160.374C125.2 160.974 141.2 154.374 144.3 151.874C145.2 150.974 146.1 150.574 146.3 150.774C148.8 154.374 149 166.674 146.4 166.674C145.3 166.674 145 168.674 145 177.174C145 186.974 145.1 187.674 147 187.674C148.8 187.674 149 186.974 149 179.174V170.674H168H187V179.174C187 186.974 187.2 187.674 189 187.674C190.9 187.674 191 186.974 191 177.174C191 168.474 190.7 166.674 189.5 166.674C188.4 166.674 188 165.374 187.9 161.374C187.8 158.574 187.9 155.674 188 155.174C188.2 154.574 189.4 150.374 190.7 145.674C192 140.974 192.8 135.974 192.6 134.474C192.2 132.474 192.6 131.474 193.9 130.674C198.1 128.474 197.5 125.574 186.9 99.8738C181.3 86.2738 176.3 74.7738 175.9 74.2738C175.5 73.7738 171 75.1738 165.6 77.4738L156 81.4738V78.1738C156 71.3738 148.4 66.3738 141.4 68.6738C134.7 70.8738 131.7 80.4738 136 85.9738C137.1 87.3738 137.6 88.7738 137.1 89.0738C134.3 90.8738 119.6 96.5738 118.9 96.1738C117.7 95.3738 119.2 84.2738 120.6 83.3738C121.7 82.7738 122 79.6738 122 71.1738C122 60.3738 121.9 59.6738 120 59.6738C118.1 59.6738 118 60.3738 118 69.6738V79.6738H98.5H79V69.6738C79 60.3738 78.9 59.6738 77 59.6738C75.1 59.6738 75 60.3738 75 71.2738ZM150.2 74.3738C151.2 75.2738 152 77.7738 152.2 80.5738C152.6 86.5738 154.2 86.7738 165 82.1738C169.5 80.2738 173.4 78.7738 173.5 78.8738C175 80.9738 192.6 125.474 192.3 126.374C191.3 128.874 190.4 127.574 188.1 120.674C185.7 113.074 183.6 111.074 179.8 112.574C175.4 114.274 174.8 115.974 175.1 125.274L175.5 133.974L160.6 140.274C152.4 143.774 145.6 146.574 145.5 146.374C145.4 146.274 144 142.974 142.3 139.174L139.2 132.174L142.5 131.874C151.4 131.074 155.1 118.374 148.3 112.074C144.9 108.874 137.5 108.674 133.7 111.674L131.1 113.774L127.7 106.474L124.4 99.1738L134.4 94.9738C140 92.6738 144.6 90.1738 144.8 89.3738C145 88.5738 143.5 86.7738 141.5 85.2738C139.1 83.4738 138 81.7738 138 80.0738C138 72.8738 144.9 69.7738 150.2 74.3738ZM115 87.1738V90.6738H99H83V87.1738V83.6738H99H115V87.1738ZM114 96.1738C115.8 98.2738 115.2 98.6738 103 104.074C97.2 106.674 91 110.174 89.1 111.774L85.8 114.874L87 122.774C88 129.074 88 130.974 87 132.174C86.3 132.974 85.4 133.674 84.9 133.674C84.5 133.674 82.7 129.174 80.9 123.674L77.6 113.774L79.4 106.474C82.5 94.1738 81.7 94.6738 98.4 94.6738C110.1 94.6738 113 94.9738 114 96.1738ZM125 110.674C128.2 118.274 129.7 120.674 131.1 120.674C132.1 120.674 133 120.174 133 119.674C133 117.574 137.9 113.674 140.5 113.674C143.6 113.674 148 117.774 148 120.674C148 124.274 143.6 127.674 139 127.674C136.5 127.674 134.7 128.174 134.4 128.974C134.1 129.774 135.7 134.374 137.9 139.274C140 144.174 141.5 148.474 141.1 148.874C140.8 149.274 137.5 150.874 133.8 152.574C127.3 155.474 127 155.474 127 153.574C127 148.174 121.2 142.674 115.5 142.674C111.3 142.674 107 145.474 105.4 149.174C103.4 153.974 103.6 155.874 106.5 160.074L108.9 163.674L102.3 166.674C98.6 168.374 95.1 169.574 94.5 169.274C93.9 169.074 88.8 158.674 83.2 146.074C74.8 127.274 73.2 123.074 74.3 121.974C75.4 120.874 76 121.874 77.9 127.874C80.7 136.674 81.4 137.674 85.1 137.674C90.8 137.674 92.8 132.974 91.1 123.474C90 117.274 90.1 117.174 92.8 114.474C94.7 112.574 115.7 102.174 120.6 100.674C120.6 100.674 122.6 105.174 125 110.674ZM185.9 126.774L188.9 136.474L186.9 143.774C183.5 156.574 185 155.674 167.9 155.674C154.3 155.674 153 155.474 152 153.774C151.5 152.674 151 151.174 151 150.374C151 148.374 169.4 140.574 169.8 142.374C170.2 143.974 174 144.174 174 142.574C174 141.874 175.5 139.974 177.4 138.174C180.6 135.174 180.8 134.774 179.9 130.574C178.7 124.174 178.8 118.274 180.2 116.874C181.9 115.174 182.5 116.074 185.9 126.774ZM184 163.174V166.674H168H152V163.174V159.674H168H184V163.174Z" fill="white"/>
<path d="M175 63.6736C175 67.7736 177.1 69.3736 178.4 66.0736C179.7 62.6736 179.1 59.6736 177 59.6736C175.3 59.6736 175 60.3736 175 63.6736Z" fill="white"/>
<path d="M163.4 65.0739C162.6 67.2739 165.8 72.6739 167.5 72.0739C169.4 71.2739 169.4 68.6739 167.4 65.8739C165.7 63.3739 164.2 63.0739 163.4 65.0739Z" fill="white"/>
<path d="M185.3 67.2738C183.8 70.3738 183.8 70.8738 185 71.6738C185.8 72.2738 186.8 72.6738 187.1 72.6738C188.1 72.6738 191.1 65.5738 190.5 64.5738C189.2 62.6738 186.9 63.7738 185.3 67.2738Z" fill="white"/>
<path d="M79.7001 179.174C78.1001 182.474 78.1001 182.674 80.0001 183.674C81.6001 184.574 82.2001 184.274 83.5001 181.574C84.4001 179.874 84.9001 177.874 84.6001 177.074C83.7001 174.574 81.4001 175.574 79.7001 179.174Z" fill="white"/>
<path d="M100.5 176.674C99.7 177.974 102.8 183.674 104.4 183.674C106.7 183.674 106.9 182.574 105.3 179.074C103.7 175.774 101.7 174.774 100.5 176.674Z" fill="white"/>
<path d="M91 183.774C91 187.074 91.3 187.774 92.8 187.474C94 187.274 94.6 186.074 94.8 183.374C95.1 180.174 94.8 179.674 93.1 179.674C91.3 179.674 91 180.274 91 183.774Z" fill="white"/>
</svg>
