<svg width="266" height="204" viewBox="0 0 266 204" fill="none" xmlns="http://www.w3.org/2000/svg">
<path d="M0 0H266V131.338L130.845 203.319L0 131.338V0Z" fill="#1A75BB"/>
<path d="M129.046 45.4773C128.146 46.8773 126.046 48.2773 124.346 48.6773C120.446 49.4773 119.946 50.5773 122.046 53.7773C123.046 55.2773 124.146 58.2773 124.446 60.4773C124.946 63.9773 125.246 64.4773 127.446 64.1773C128.846 64.0773 131.046 63.9773 132.446 63.9773C133.846 63.9773 136.046 64.0773 137.446 64.1773C139.646 64.4773 139.946 63.9773 140.446 60.4773C140.746 58.2773 141.846 55.2773 142.846 53.7773C144.846 50.6773 144.246 48.9773 141.246 48.9773C140.146 48.9773 137.946 47.5773 136.446 45.9773C133.046 42.2773 131.146 42.1773 129.046 45.4773ZM135.746 51.5773C137.646 52.2773 137.946 53.5773 136.446 54.4773C135.946 54.7773 135.446 55.8773 135.446 56.8773C135.446 58.1773 134.646 58.6773 132.446 58.6773C130.246 58.6773 129.446 58.1773 129.446 56.8773C129.446 55.8773 129.046 54.7773 128.446 54.4773C127.946 54.1773 127.446 53.5773 127.446 53.1773C127.446 52.1773 131.746 50.1773 132.946 50.5773C133.546 50.7773 134.746 51.2773 135.746 51.5773Z" fill="white"/>
<path d="M102.246 52.9774C100.846 54.5774 98.6457 55.9774 97.5457 55.9774C94.4457 55.9774 93.8457 58.6774 96.3457 61.9774C97.5457 63.6774 98.4457 66.3774 98.4457 68.5774C98.4457 72.0774 98.5457 72.1774 101.246 71.4774C103.946 70.7774 106.546 70.6774 111.446 71.1774C113.646 71.4774 113.946 71.0774 114.246 67.4774C114.446 65.2774 115.246 62.6774 116.146 61.7774C118.346 59.2774 117.346 56.6774 113.846 55.6774C112.046 55.1774 110.046 53.6774 109.346 52.3774C107.646 49.1774 105.446 49.3774 102.246 52.9774ZM109.846 59.2774C111.346 59.8774 111.546 60.2774 110.646 61.1774C109.946 61.8774 109.446 63.0774 109.446 63.9774C109.446 65.0774 108.446 65.5774 105.946 65.6774C103.946 65.7774 102.446 65.2774 102.446 64.6774C102.446 63.9774 102.146 62.4774 101.846 61.1774C101.346 59.5774 101.646 58.9774 102.846 58.9774C103.746 58.9774 104.746 58.2774 105.146 57.3774C105.646 55.8774 105.946 55.8774 106.846 57.1774C107.446 57.9774 108.846 58.8774 109.846 59.2774Z" fill="white"/>
<path d="M155.546 52.3774C154.846 53.6774 152.846 55.1774 151.046 55.6774C147.546 56.6774 146.546 59.2774 148.746 61.7774C149.646 62.6774 150.446 65.2774 150.646 67.4774C150.946 71.0774 151.246 71.4774 153.446 71.1774C158.346 70.6774 160.946 70.7774 163.746 71.4774C166.346 72.1774 166.446 72.0774 166.446 68.5774C166.446 66.3774 167.346 63.6774 168.546 61.9774C171.046 58.6774 170.446 55.9774 167.346 55.9774C166.246 55.9774 164.046 54.5774 162.646 52.9774C159.446 49.3774 157.246 49.1774 155.546 52.3774ZM162.146 58.9774C163.246 58.9774 163.546 59.5774 163.046 61.1774C162.746 62.4774 162.446 63.9774 162.446 64.6774C162.446 65.2774 160.946 65.7774 158.946 65.6774C156.446 65.5774 155.446 65.0774 155.446 63.9774C155.446 63.0774 154.946 61.8774 154.246 61.1774C153.346 60.2774 153.546 59.8774 155.046 59.3774C156.046 58.9774 157.346 57.9774 157.846 57.1774C158.546 55.8774 158.846 55.8774 159.646 57.3774C160.146 58.2774 161.246 58.9774 162.146 58.9774Z" fill="white"/>
<path d="M126.946 72.8779C116.246 75.4779 109.446 84.2779 109.446 95.4779C109.446 109.078 118.846 118.378 132.446 118.378C146.146 118.378 155.446 109.078 155.446 95.2779C155.446 84.7779 149.246 76.4779 139.246 73.4779C133.746 71.8779 131.646 71.7779 126.946 72.8779ZM139.746 78.3779C145.946 80.8779 151.446 89.5779 151.446 96.4779C151.446 97.5779 150.446 100.478 149.346 102.978C147.446 107.078 147.246 107.278 146.246 105.478C145.646 104.378 144.246 102.478 143.246 101.278C141.746 99.6779 141.446 98.3779 141.946 95.9779C143.246 89.9779 138.546 83.9779 132.446 83.9779C126.346 83.9779 121.646 89.9779 122.946 95.9779C123.446 98.3779 123.146 99.6779 121.646 101.278C120.646 102.478 119.246 104.378 118.646 105.478C117.646 107.278 117.446 107.078 115.546 102.978C114.446 100.478 113.446 97.5779 113.446 96.4779C113.446 89.6779 118.946 80.9779 124.946 78.3779C128.846 76.6779 135.646 76.6779 139.746 78.3779ZM136.746 91.0779C138.346 93.6779 136.746 97.8779 133.846 98.5779C129.246 99.7779 125.346 93.4779 128.646 90.1779C130.346 88.4779 135.446 89.0779 136.746 91.0779ZM140.446 105.678C141.546 107.078 142.446 109.078 142.446 109.978C142.446 113.478 132.146 115.178 125.546 112.878C121.946 111.578 121.546 109.378 124.446 105.678C126.146 103.478 127.246 103.178 132.446 103.178C137.646 103.178 138.746 103.478 140.446 105.678Z" fill="white"/>
<path d="M82.1457 86.7775C80.1457 88.9775 80.0457 95.1775 81.4457 113.178C82.3457 125.878 84.2457 131.578 89.4457 138.178C91.8457 141.078 92.1457 141.878 90.8457 142.378C89.6457 142.878 89.4457 144.578 89.6457 151.178L89.9457 159.478H106.446H122.946L123.246 151.178C123.546 143.478 123.346 142.778 121.446 142.278C119.746 141.778 119.446 140.978 119.446 135.878C119.446 127.478 117.746 124.378 109.046 116.578L101.446 109.778V101.578C101.446 92.4775 99.9457 88.9775 96.0457 88.9775C94.7457 88.9775 92.9457 88.0775 91.9457 86.9775C89.6457 84.4775 84.3457 84.3775 82.1457 86.7775ZM88.8457 90.6775C89.1457 91.6775 89.4457 98.2775 89.5457 105.478L89.6457 118.478L96.3457 124.778C104.146 132.378 106.946 134.378 108.446 133.478C110.546 132.178 109.246 129.978 101.946 123.478C94.4457 116.778 93.0457 114.478 95.9457 113.278C97.3457 112.778 109.546 122.478 113.146 126.978C113.846 127.778 114.446 131.478 114.446 135.178V141.978H106.546H98.6457L95.0457 137.478C87.9457 128.878 86.4457 123.978 85.6457 106.578C85.2457 97.9775 85.1457 90.4775 85.2457 89.9775C85.8457 88.3775 88.2457 88.8775 88.8457 90.6775ZM97.1457 101.278C97.5457 106.378 97.3457 107.778 96.2457 108.278C95.0457 108.678 94.5457 107.478 94.0457 101.778C93.7457 97.9775 93.7457 94.3775 94.0457 93.7775C95.3457 91.7775 96.6457 94.8775 97.1457 101.278ZM119.446 150.978V154.978H106.446H93.4457V150.978V146.978H106.446H119.446V150.978Z" fill="white"/>
<path d="M172.946 86.9775C171.946 88.0775 170.146 88.9775 168.846 88.9775C164.946 88.9775 163.446 92.4775 163.446 101.578V109.778L155.846 116.578C147.146 124.378 145.446 127.478 145.446 135.878C145.446 140.978 145.146 141.778 143.446 142.278C141.546 142.778 141.346 143.478 141.646 151.178L141.946 159.478H158.446H174.946L175.246 151.178C175.446 144.578 175.246 142.878 174.046 142.378C172.746 141.878 173.046 141.078 175.446 138.178C180.646 131.578 182.546 125.878 183.446 113.178C184.946 94.4775 184.746 88.5775 182.646 86.6775C180.146 84.3775 175.146 84.5775 172.946 86.9775ZM179.646 89.9775C179.846 90.4775 179.646 97.9775 179.246 106.478C178.446 123.878 177.446 127.378 170.346 136.678L166.346 141.978H158.446H150.446V135.178C150.446 131.478 151.046 127.778 151.746 126.978C155.346 122.478 167.546 112.778 168.946 113.278C171.846 114.478 170.446 116.778 162.946 123.478C155.646 129.978 154.346 132.178 156.446 133.478C157.946 134.378 160.746 132.378 168.546 124.778L175.246 118.478L175.346 105.478C175.446 98.2775 175.746 91.6775 176.046 90.6775C176.646 88.8775 179.046 88.3775 179.646 89.9775ZM170.846 101.678C170.346 107.378 169.846 108.678 168.646 108.278C167.546 107.778 167.346 106.378 167.746 101.378C168.246 94.6775 169.146 92.2775 170.546 93.6775C171.046 94.1775 171.246 97.7775 170.846 101.678ZM171.446 150.978V154.978H158.446H145.446V150.978V146.978H158.446H171.446V150.978Z" fill="white"/>
</svg>
