<svg width="40" height="40" viewBox="0 0 40 40" fill="none" xmlns="http://www.w3.org/2000/svg">
<path d="M15.0886 18.5351L20.6121 24.3636C21.2109 24.9955 22.2955 25.0857 23.5037 24.4903C26.5786 23.2155 27.6017 22.9047 28.1858 23.521L34.535 30.2209C35.2855 31.0129 35.0852 32.3321 34.246 33.2177C29.888 37.8164 22.8047 37.8164 18.4467 33.2177L6.58608 20.7019C2.24995 16.1263 2.24995 8.72377 6.58608 4.14813C7.44306 3.24382 8.75912 3.02131 9.53792 3.84313L15.8872 10.5431C16.4375 11.1238 16.1424 12.2054 14.9409 15.4281C14.3823 16.6861 14.4718 17.8842 15.0886 18.5351Z" fill="#1565D8"/>
</svg>
