<svg width="40" height="40" viewBox="0 0 40 40" fill="none" xmlns="http://www.w3.org/2000/svg">
<path fill-rule="evenodd" clip-rule="evenodd" d="M10.5352 14.1905C17.6229 15.1907 23.1667 12.6074 27.0272 6.47504C27.0466 6.4443 27.0643 6.41278 27.0804 6.38062C28.5661 8.05242 29.4685 10.2541 29.4685 12.6666V16.1333C29.4685 19.6369 27.5473 22.7867 24.5691 24.4276C24.1811 24.158 23.7097 24 23.2014 24C21.8759 24 20.8014 25.0745 20.8014 26.4C20.8014 27.7255 21.8759 28.8 23.2014 28.8C23.8727 28.8 24.4796 28.5244 24.9152 28.0802C24.2662 30.1189 22.3117 31.6 20.0014 31.6C17.1633 31.6 14.8621 29.3648 14.8586 26.6063L15.6174 24.5257C12.5352 22.9146 10.5352 19.7082 10.5352 16.1333V14.1905V14.1905ZM10.5527 12.0658C10.8627 7.11742 14.9742 3.19995 20.0006 3.19995C22.1192 3.19995 24.0751 3.89585 25.6525 5.07152C25.604 5.12137 25.5595 5.17785 25.5199 5.24077C22.0454 10.7598 17.1346 13.0258 10.6458 12.0741C10.6146 12.0695 10.5835 12.0668 10.5527 12.0658H10.5527ZM12.8818 27.6535C13.4044 31.0197 16.3927 33.6 20.0008 33.6C23.6096 33.6 26.5984 31.0186 27.1201 27.6514L30.9563 28.425C32.4802 28.7223 33.6944 29.8745 34.071 31.3808L35.1773 35.8059C35.3035 36.3108 34.9216 36.8 34.4012 36.8H5.60118C5.08072 36.8 4.69883 36.3108 4.82506 35.8059L5.92991 31.3865C6.30739 29.8766 7.52648 28.7227 9.04718 28.4302L12.8818 27.6535V27.6535Z" fill="#1565D8"/>
<path opacity="0.3" fill-rule="evenodd" clip-rule="evenodd" d="M23.2004 27.2C23.6422 27.2 24.0004 26.8418 24.0004 26.4C24.0004 25.9581 23.6422 25.6 23.2004 25.6C22.7586 25.6 22.4004 25.9581 22.4004 26.4C22.4004 26.8418 22.7586 27.2 23.2004 27.2Z" fill="#1565D8"/>
<path opacity="0.3" fill-rule="evenodd" clip-rule="evenodd" d="M30.9708 11.2H31.2001C32.5256 11.2 33.6001 12.2745 33.6001 13.6V16.8C33.6001 18.1254 32.5256 19.2 31.2001 19.2H30.6348C30.9177 18.2182 31.0671 17.1877 31.0671 16.1333V12.6666C31.0671 12.1694 31.0343 11.6798 30.9708 11.2Z" fill="#1565D8"/>
<path opacity="0.3" fill-rule="evenodd" clip-rule="evenodd" d="M9.36649 19.2H8.80039C7.47491 19.2 6.40039 18.1254 6.40039 16.8V13.6C6.40039 12.2745 7.47491 11.2 8.80039 11.2H9.03045C8.96691 11.6798 8.93412 12.1694 8.93412 12.6666V16.1333C8.93412 17.1877 9.08356 18.2182 9.36649 19.2V19.2Z" fill="#1565D8"/>
</svg>
